<?xml version="1.0" encoding="utf-8"?>
<!-- Generator: Adobe Illustrator 24.2.0, SVG Export Plug-In . SVG Version: 6.00 Build 0)  -->
<svg version="1.1" id="Layer_1" xmlns="http://www.w3.org/2000/svg" xmlns:xlink="http://www.w3.org/1999/xlink" x="0px" y="0px"
	 viewBox="0 0 64 64" style="enable-background:new 0 0 64 64;" xml:space="preserve">
<style type="text/css">
	.st0{fill:none;}
	.st1{fill:#EB248D;}
</style>
<g>
	<rect id="canvas_background" x="-1" y="-1" class="st0" width="66" height="66"/>
</g>
<g>
	<g id="svg_1">
		<path id="svg_2" class="st1" d="M58.9,17h-9.9l-2,28H45v-8h-2.4l-1.7-22h-9.9l-0.8,10.3L30,25.5c-1.4-0.8-3-1.5-4.6-1.9L24.6,22
			h-7.2l-0.9,1.6c-1.6,0.4-3.1,1-4.6,1.9l-2.5-1.2l-5.3,5.3l1.2,2.5c-0.8,1.4-1.4,2.9-1.9,4.5L1,37.3v7.4l2.6,0.9
			c0.4,1.6,1,3.1,1.9,4.5l-1.2,2.5l5.3,5.3l2.5-1.2c0.8,0.5,2.3,1.3,3,1.8V63h48V45h-2.1C60.9,45,58.9,17,58.9,17z M57.1,19l0.3,4
			h-6.7l0.3-4H57.1z M50.5,25h7l1.4,20h-9.9L50.5,25z M15,37v14.4c-3.7-2.1-6-6-6-10.4c0-6.6,5.4-12,12-12c3.3,0,6.4,1.4,8.7,3.8
			L29.4,37H15z M32.5,23h7.1l1.1,14h-9.2L32.5,23z M39.1,17l0.3,4h-6.8l0.3-4C32.9,17,39.1,17,39.1,17z M12.5,54.6l-0.5-0.3
			l-2.2,1.1l-3.2-3.2l1.1-2.2l-0.3-0.5c-0.9-1.5-1.6-3.2-2-4.9L5.3,44L3,43.3v-4.6L5.3,38l0.1-0.5c0.4-1.7,1.1-3.4,2-4.9L7.7,32
			l-1.1-2.2l3.2-3.2l2.2,1.1l0.5-0.3c1.5-0.9,3.2-1.6,4.9-2l0.4-0.1l0.7-1.3h4.8l0.7,1.3l0.4,0.1c1.7,0.4,3.4,1.1,4.9,2l0.5,0.3
			l0.1-0.1l-0.2,2.6C27.4,28.2,24.3,27,21,27c-7.7,0-14,6.3-14,14c0,5.4,3.1,10.3,8,12.6V56C14,55.4,12.9,54.8,12.5,54.6z M27,61H17
			V39h26v6H31.6L27,49.6V61z M37,61h-4v-6h4V61z M47,61h-4v-6h4V61z M57,61h-4v-6h4V61z M59,61v-8h-8v8h-2v-8h-8v8h-2v-8h-8v8h-2V51
			h32v10H59z M61,49H30.4l2-2H61V49z"/>
		<path id="svg_3" class="st1" d="M51,9h9c0.6,0,1,0.4,1,1s-0.4,1-1,1h-2c-1.7,0-3,1.3-3,3v1h2v-1c0-0.6,0.4-1,1-1h2
			c1.7,0,3-1.3,3-3s-1.3-3-3-3h-9V9z"/>
		<path id="svg_4" class="st1" d="M48,13h2c0.6,0,1,0.4,1,1v1h2v-1c0-1.7-1.3-3-3-3h-2c-1.7,0-3-1.3-3-3s1.3-3,3-3h7V3h-7
			c-2.8,0-5,2.2-5,5S45.2,13,48,13z"/>
		<path id="svg_5" class="st1" d="M57,3h2v2h-2V3z"/>
		<path id="svg_6" class="st1" d="M9,7h7c0.6,0,1,0.4,1,1c0,1.7,1.3,3,3,3h12c0.6,0,1,0.4,1,1v1h2v-1c0-1.7-1.3-3-3-3H20
			c-0.6,0-1-0.4-1-1c0-1.7-1.3-3-3-3H9C8.4,5,8,4.6,8,4s0.4-1,1-1h11V1H9C7.3,1,6,2.3,6,4S7.3,7,9,7z"/>
		<path id="svg_7" class="st1" d="M29,7h3c2.8,0,5,2.2,5,5v1h2v-1c0-3.9-3.1-7-7-7h-3c-0.6,0-1-0.4-1-1s0.4-1,1-1h11V1H29
			c-1.7,0-3,1.3-3,3S27.3,7,29,7z"/>
		<path id="svg_8" class="st1" d="M35,41h2v2h-2V41z"/>
		<path id="svg_9" class="st1" d="M39,41h2v2h-2V41z"/>
		<path id="svg_10" class="st1" d="M31,41h2v2h-2V41z"/>
		<path id="svg_11" class="st1" d="M27,41h2v2h-2V41z"/>
		<path id="svg_12" class="st1" d="M19,41h2v2h-2V41z"/>
		<path id="svg_13" class="st1" d="M23,41h2v2h-2V41z"/>
		<path id="svg_14" class="st1" d="M23,45h2v2h-2V45z"/>
		<path id="svg_15" class="st1" d="M19,45h2v2h-2V45z"/>
		<path id="svg_16" class="st1" d="M23,49h2v2h-2V49z"/>
		<path id="svg_17" class="st1" d="M19,49h2v2h-2V49z"/>
		<path id="svg_18" class="st1" d="M19,53h2v2h-2V53z"/>
		<path id="svg_19" class="st1" d="M23,53h2v2h-2V53z"/>
		<path id="svg_20" class="st1" d="M23,57h2v2h-2V57z"/>
		<path id="svg_21" class="st1" d="M19,57h2v2h-2V57z"/>
		<path id="svg_22" class="st1" d="M35,25h2v2h-2V25z"/>
		<path id="svg_23" class="st1" d="M35,33h2v2h-2V33z"/>
		<path id="svg_24" class="st1" d="M35,29h2v2h-2V29z"/>
		<path id="svg_25" class="st1" d="M53,27h2v2h-2V27z"/>
		<path id="svg_26" class="st1" d="M53,35h2v2h-2V35z"/>
		<path id="svg_27" class="st1" d="M53,31h2v2h-2V31z"/>
		<path id="svg_28" class="st1" d="M53,39h2v2h-2V39z"/>
	</g>
</g>
</svg>
