<?xml version="1.0" encoding="utf-8"?>
<!-- Generator: Adobe Illustrator 24.2.0, SVG Export Plug-In . SVG Version: 6.00 Build 0)  -->
<svg version="1.1" id="Layer_1" xmlns="http://www.w3.org/2000/svg" xmlns:xlink="http://www.w3.org/1999/xlink" x="0px" y="0px"
	 viewBox="0 0 512 512" style="enable-background:new 0 0 512 512;" xml:space="preserve">
<style type="text/css">
	.st0{fill:none;}
	.st1{fill:#8B6CAE;}
</style>
<g>
	<rect id="canvas_background" x="-1" y="-1" class="st0" width="514" height="514"/>
</g>
<g>
	<g id="svg_1">
		<g id="svg_2">
			<g id="svg_3">
				<path id="svg_4" class="st1" d="M186,224.9L186,224.9C185.8,225.1,185.6,225.5,186,224.9z"/>
				<path id="svg_5" class="st1" d="M326,224.7L326,224.7C326.2,224.9,326.1,224.8,326,224.7z"/>
				<path id="svg_6" class="st1" d="M437.5,417.7L326,224.7c-0.1-0.2-0.1-0.1,0,0V58.3c11.6-4.1,20-15.2,20-28.3
					c0-16.5-13.5-30-30-30H196c-16.5,0-30,13.5-30,30c0,13,8.4,24.2,20,28.3v166.6c0.1-0.2,0.2-0.4,0,0L76.5,414.3
					C69.6,424.7,66,436.7,66,449.2c0,34.7,28.2,62.8,62.9,62.8h254.4c0.6,0,1.1,0,1.6-0.1c10.4-0.3,20.7-3.2,29.8-8.4
					c14.5-8.4,24.9-21.9,29.2-38.1C448.2,449.1,445.9,432.2,437.5,417.7L437.5,417.7z M186,30c0-5.5,4.5-10,10-10h120
					c5.5,0,10,4.5,10,10s-4.5,10-10,10H196C190.5,40,186,35.5,186,30z M240.7,187H206v-28.5h27.4c5.5,0,10-4.5,10-10
					c0-5.5-4.5-10-10-10H206V110h34.7c5.5,0,10-4.5,10-10s-4.5-10-10-10H206V60h100v167.4c0,1.8,0.5,3.5,1.3,5l13.2,22.8
					c-20.7-1.9-40.1,1.2-59,4.2c-23,3.6-46.6,7.3-73.8,2.6l16.9-29.3c0.9-1.5,1.3-3.2,1.3-5V207h34.7c5.5,0,10-4.5,10-10
					C250.7,191.4,246.2,187,240.7,187L240.7,187z M424.5,460.2c-2.9,11-10,20.2-19.9,26c-6.5,3.8-13.9,5.8-21.4,5.8c0,0,0,0,0,0
					c-0.5,0-1,0-1.5,0.1H128.8c-23.6,0-42.9-19.2-42.9-42.9c0-8.6,2.5-16.9,7.3-23.9c0.1-0.2,0.3-0.4,0.4-0.6l61.8-107.1
					c0.4-0.7,0.8-1.4,1.4-2.2c0.1-0.2,0.2-0.3,0.3-0.5l20-34.6c13.1,2.9,25.4,4,37.1,4c18.2,0,34.9-2.6,50.4-5
					c23.1-3.6,45.1-7.1,68.7-1.7l23.2,40.2c0.2,0.4,0.5,0.8,0.8,1.2l62.9,108.9C425.9,437.6,427.5,449.1,424.5,460.2L424.5,460.2z"
					/>
			</g>
		</g>
	</g>
	<g id="svg_7">
		<g id="svg_8">
			<path id="svg_9" class="st1" d="M270.7,90h-0.3c-5.5,0-10,4.5-10,10c0,5.5,4.5,10,10,10h0.3c5.5,0,10-4.5,10-10
				S276.2,90,270.7,90z"/>
		</g>
	</g>
	<g id="svg_10">
		<g id="svg_11">
			<path id="svg_12" class="st1" d="M270.7,187h-0.3c-5.5,0-10,4.5-10,10c0,5.5,4.5,10,10,10h0.3c5.5,0,10-4.5,10-10
				C280.7,191.4,276.2,187,270.7,187z"/>
		</g>
	</g>
	<g id="svg_13">
	</g>
	<g id="svg_14">
	</g>
	<g id="svg_15">
	</g>
	<g id="svg_16">
	</g>
	<g id="svg_17">
	</g>
	<g id="svg_18">
	</g>
	<g id="svg_19">
	</g>
	<g id="svg_20">
	</g>
	<g id="svg_21">
	</g>
	<g id="svg_22">
	</g>
	<g id="svg_23">
	</g>
	<g id="svg_24">
	</g>
	<g id="svg_25">
	</g>
	<g id="svg_26">
	</g>
	<g id="svg_27">
	</g>
</g>
</svg>
