<?xml version="1.0" encoding="utf-8"?>
<!-- Generator: Adobe Illustrator 24.2.0, SVG Export Plug-In . SVG Version: 6.00 Build 0)  -->
<svg version="1.1" id="Layer_1" xmlns="http://www.w3.org/2000/svg" xmlns:xlink="http://www.w3.org/1999/xlink" x="0px" y="0px"
	 viewBox="0 0 512 512" style="enable-background:new 0 0 512 512;" xml:space="preserve">
<style type="text/css">
	.st0{fill:none;}
	.st1{fill:#EB1D25;}
</style>
<g>
	<rect id="canvas_background" x="-1" y="-1" class="st0" width="514" height="514"/>
</g>
<g>
	<path id="svg_1" class="st1" d="M171.9,0c-19.6,0-38.1,13.9-52.1,39C107.2,61.7,100,90.5,100,118.2c0,28.3,14.8,54.1,38.5,67.3
		c8.2,4.5,13,13,12.6,22l-2,42.5c-0.2,4.1,3,7.7,7.2,7.9c4.2,0.2,7.7-3,7.9-7.2l2-42.5c0.7-14.8-7.1-28.5-20.3-35.9
		c-19-10.5-30.8-31.3-30.8-54.2c0-25.2,6.5-51.4,17.9-71.9C144,26.5,158.2,15,171.9,15s27.9,11.4,39,31.3
		c11.4,20.5,17.9,46.7,17.9,71.9c0,22.9-11.8,43.6-30.8,54.2c-13.2,7.3-21,21.1-20.3,35.9l12.5,269.5c0.2,5.1-1.6,9.9-5.1,13.5
		c-3.5,3.7-8.2,5.7-13.3,5.7c-5.1,0-9.8-2-13.3-5.7c-3.5-3.7-5.3-8.5-5.1-13.5l9.2-196.9c0.2-4.1-3-7.7-7.2-7.9
		c-4.1-0.2-7.7,3-7.9,7.2l-9.2,196.9c-0.4,9.2,2.8,17.9,9.2,24.6s14.9,10.3,24.2,10.3s17.8-3.7,24.2-10.3c6.4-6.7,9.6-15.4,9.2-24.6
		l-12.5-269.5c-0.4-9,4.4-17.5,12.6-22c23.8-13.2,38.5-39,38.5-67.3c0-27.7-7.2-56.6-19.8-79.2C210,13.9,191.5,0,171.9,0L171.9,0z"
		/>
	<path id="svg_2" class="st1" d="M376.2,185.9c23-12.6,37-37.6,35.7-63.8l-5.4-103.4C405.9,8.2,397.3,0,386.8,0
		c-5.3,0-10.3,2.1-14.1,5.9c-3.7,3.8-5.7,8.9-5.6,14.2l2,89.5c0,1.4-0.7,2.3-1.1,2.7c-0.4,0.4-1.3,1.1-2.7,1.1
		c-2.1,0-3.7-1.7-3.8-3.7l-0.9-92C360.6,7.9,352.6,0,342.9,0c-9.8,0-17.8,7.9-17.9,17.7l-0.9,92c0,2.1-1.7,3.7-3.8,3.7
		c-1.4,0-2.3-0.7-2.7-1.1s-1.1-1.3-1.1-2.7l2-90c0.1-5.2-1.8-10.1-5.5-13.8C309.5,2,304.6,0,299.4,0c-10.2,0-18.6,8-19.2,18.2
		L274.8,122c-1.4,26.6,12.3,51,35.6,63.9c7.7,4.2,12.5,12.9,12,21.9l-7.4,159.4c-0.2,4.1,3,7.7,7.2,7.9c4.2,0.2,7.7-3,7.9-7.2
		l7.4-159.4c0.7-14.8-7.1-28.8-19.8-35.8c-18.3-10-28.9-29.1-27.9-49.9L295.3,19c0.1-2.2,1.9-3.9,4.1-3.9c1.5,0,2.5,0.8,3,1.2
		c0.5,0.5,1.2,1.5,1.2,3l-2,90c-0.1,5.1,1.8,9.9,5.4,13.6c3.6,3.6,8.3,5.7,13.4,5.7c10.3,0,18.7-8.3,18.8-18.6l0.9-92
		c0-1.5,1.3-2.8,2.8-2.8s2.8,1.3,2.8,2.8l0.9,92c0.1,10.3,8.5,18.6,18.8,18.6c5.1,0,9.9-2,13.4-5.7c3.6-3.6,5.5-8.5,5.4-13.6
		l-2-89.5c0-1.3,0.4-2.4,1.3-3.3c0.9-0.9,2.1-1.4,3.3-1.4c2.5,0,4.5,1.9,4.6,4.4l5.4,103.4c1.1,20.8-9.6,39.9-27.9,49.8
		c-12.7,7-20.5,21-19.8,35.8l12.5,269.3c0.2,5.1-1.6,10-5.2,13.6c-3.6,3.7-8.3,5.7-13.5,5.6c-4.9-0.1-9.4-2.1-12.8-5.8
		c-3.5-3.8-5.4-8.9-5.2-14l3.7-79.1c0.2-4.1-3-7.7-7.2-7.9c-4.2-0.2-7.7,3-7.9,7.2l-3.7,79.1c-0.4,9.2,2.9,18.3,9.2,25
		c6.2,6.6,14.5,10.3,23.5,10.5c0.2,0,0.4,0,0.6,0c9,0,17.7-3.7,24-10.1c6.4-6.6,9.8-15.6,9.4-24.8l-12.5-269.3
		C363.8,198.7,368.5,190.1,376.2,185.9L376.2,185.9z"/>
</g>
</svg>
