<svg xmlns="http://www.w3.org/2000/svg" viewBox="0 0 199 129"><defs><style>.cls-1{fill:#87cafd;opacity:0.21;}.cls-1,.cls-19{isolation:isolate;}.cls-2{fill:#2d3554;}.cls-3{fill:#cae2ff;}.cls-4{fill:#afcdfb;}.cls-5{fill:#1c468a;}.cls-6{fill:#739af0;}.cls-7{fill:#9fc1f4;}.cls-8{fill:#f78e48;}.cls-9{fill:#182c4c;}.cls-10{fill:#ffb27d;}.cls-11{fill:#e8945b;}.cls-12{fill:#2c3a64;}.cls-13{fill:#233862;}.cls-14{fill:#2b478b;}.cls-15{fill:#f44437;}.cls-16{fill:#963333;}.cls-17{fill:#d37129;}.cls-18{fill:#f1a34f;}.cls-19,.cls-20{fill:#d86713;}.cls-19{opacity:0.4;}.cls-21{fill:#da935b;}.cls-22{fill:#ed7d2b;}.cls-23{fill:#f99746;}.cls-24{fill:#dd772a;}.cls-25{fill:#ef8a3f;}.cls-26{fill:none;}</style></defs><g id="Layer_2" data-name="Layer 2"><g id="Layer_1-2" data-name="Layer 1"><path class="cls-1" d="M12.29,122.17h175c5.78-14.63,5.78-21.73,6.42-30.13C197.34,45.8,168,38.69,159.44,36.76c-26.36-5.91-14.36-35.12-82.9-29.64-6.28.5-21.1,4.56-26.2,7.19-3.58,1.84-17.07,10.08-21,24a29.61,29.61,0,0,0-.29,14.87c4.46,19.51-7.17,18.39-15.67,27.68C2,93.29,3.2,113.58,12.29,122.17Z"/><rect class="cls-2" x="3.08" y="122.27" width="192.83" height="0.53" rx="0.22"/><path class="cls-3" d="M146.24,78.83a43.84,43.84,0,0,1-.7,7.83,43.29,43.29,0,0,1-82.23,9.76,42.89,42.89,0,0,1-2.2-6.25,43.39,43.39,0,0,1,41.82-54.79q1.65,0,3.27.12a43.38,43.38,0,0,1,40,43.33Z"/><path class="cls-4" d="M146.24,78.83a43.84,43.84,0,0,1-.7,7.83,24.58,24.58,0,0,0-5.47-.34c-2.56.3-5.11,5.57-10.37,5.78S118,88.28,111.08,91s-10.51-.15-11.72-2.11,3-6.48,2.63-8.44.53-8.59,6.39-8.59,8.56-3,9.31-4.36,5.25-.31,7.66-2.87-1.81-7.07,0-10.09S136,50.78,136,50.78a43.35,43.35,0,0,1,10.23,28.05Z"/><path class="cls-4" d="M82.39,71.44c-2.1,3,.75,9.15-1,12.32s-5.26,2.56-7.81,4.06c-2.21,1.31-3.1,6.71-10.21,8.6a43.8,43.8,0,0,1-2.7-26.94A13.17,13.17,0,0,1,66.77,66c8.56-2.26,10.69-2.78,14.11-2.23C83.46,64.17,84.5,68.47,82.39,71.44Z"/><path class="cls-4" d="M114.68,55.05s-5.25-1-8.11.76-8.63,5-7.88,6.93,6.23,3.31,8.48,3.24,8.86-3.47,11.64-3.24S120,55.23,114.68,55.05Z"/><path class="cls-4" d="M89.67,106.75c-2.3,1.69-2.85,6.85-4.32,7.57a12.17,12.17,0,0,0-2.82,2.85,43.52,43.52,0,0,1-15-13.28c2.6-1.81,7.48-4.86,10.86-5,0,0,1.69,0,2.94-3.46A16.8,16.8,0,0,1,83,92c.94-1.4,2.08-2.08,3.59-1.54a2.6,2.6,0,0,1,1.36,1.06c.88,1.31.93,3.38,3.4,5.38C94.66,99.61,92,105.07,89.67,106.75Z"/><path class="cls-5" d="M64.12,104h-.84V122.1h.84Z"/><path class="cls-5" d="M62.92,103.39a.72.72,0,0,1,.15-.42.74.74,0,0,1,.36-.27.77.77,0,0,1,.84.2.84.84,0,0,1,.2.4.77.77,0,0,1,0,.45.74.74,0,0,1-.29.34.75.75,0,0,1-.43.13.67.67,0,0,1-.31-.07.72.72,0,0,1-.25-.18.77.77,0,0,1-.17-.27.65.65,0,0,1,0-.31Z"/><path class="cls-5" d="M64.44,121.85H62.92v.43h1.52Z"/><path class="cls-5" d="M64.34,103.88H63.07v.34h1.27Z"/><path class="cls-6" d="M104.21,109c-4.81,0-10-.13-15.47-.42-14.11-.76-23.89-2.27-24-2.29l.14-1c.1,0,9.84,1.52,23.91,2.27,13,.69,32.38.85,51.13-2.27l.15,1A219.37,219.37,0,0,1,104.21,109Z"/><path class="cls-5" d="M142.17,104h-.85V122.1h.85Z"/><path class="cls-5" d="M141,103.39a.79.79,0,0,1,.15-.42.78.78,0,0,1,.36-.27.86.86,0,0,1,.45,0,.81.81,0,0,1,.39.23.78.78,0,0,1,.21.4.87.87,0,0,1-.06.45.78.78,0,0,1-.28.34.76.76,0,0,1-.44.13.63.63,0,0,1-.3-.07.68.68,0,0,1-.26-.18,1,1,0,0,1-.17-.27,1.06,1.06,0,0,1,0-.31Z"/><path class="cls-5" d="M142.49,121.85H141v.43h1.52Z"/><path class="cls-5" d="M142.39,103.88h-1.28v.34h1.28Z"/><path class="cls-5" d="M66.61,105.36l-.21,1.25-1.78-.31.22-1.22Z"/><path class="cls-5" d="M65.65,105.47a.46.46,0,0,0-.26-.19h0l-.52-.09-.31,0a.44.44,0,0,0-.33.07s0,0,0,0a.53.53,0,0,0-.19.33.55.55,0,0,0,0,.28.52.52,0,0,0,.17.22.62.62,0,0,0,.19.07l.27,0,.12,0,.44.07h.07a.48.48,0,0,0,.31-.13.46.46,0,0,0,.15-.3.49.49,0,0,0-.09-.37Zm0,.36a.65.65,0,0,1,0,.13.36.36,0,0,1-.1.11.33.33,0,0,1-.13.07h-.14l-.44-.08h-.12l-.27,0a.31.31,0,0,1-.2-.11.38.38,0,0,1-.09-.15.37.37,0,0,1,0-.18.35.35,0,0,1,.1-.21l0,0a.31.31,0,0,1,.13-.06h.14l.3,0,.08,0,.45.07a.29.29,0,0,1,.13,0,.32.32,0,0,1,.1.1.43.43,0,0,1,.07.29Z"/><path class="cls-5" d="M139.09,106.51l-.15-1.25,1.79-.27.13,1.23Z"/><path class="cls-5" d="M141.55,105.5a.49.49,0,0,0-.08-.21.54.54,0,0,0-.15-.15.48.48,0,0,0-.31-.07l-.27.05-.56.08-.07,0a.44.44,0,0,0-.16.1.49.49,0,0,0-.14.21.42.42,0,0,0,0,.25.46.46,0,0,0,.18.32.21.21,0,0,0,.1.06h0a.44.44,0,0,0,.25,0l.52-.09.31,0a.51.51,0,0,0,.17-.07.57.57,0,0,0,.14-.13.49.49,0,0,0,.09-.37Zm-.18.3-.05.06a.31.31,0,0,1-.18.09l-.31,0-.52.08a.33.33,0,0,1-.14,0,.34.34,0,0,1-.12-.06h0a.35.35,0,0,1-.14-.25.38.38,0,0,1,.07-.29h0l.1-.1.13-.05.56-.08.27,0a.44.44,0,0,1,.16,0,.26.26,0,0,1,.13.08.35.35,0,0,1,.12.23.37.37,0,0,1-.07.27Z"/><path class="cls-5" d="M144.6,105.36l-.2,1.25-1.78-.31.22-1.22Z"/><path class="cls-5" d="M143.65,105.47a.49.49,0,0,0-.26-.19h0l-.53-.09-.3,0a.43.43,0,0,0-.33.07s0,0,0,0a.49.49,0,0,0-.19.33.54.54,0,0,0,0,.28.55.55,0,0,0,.18.22.67.67,0,0,0,.18.07l.27,0,.12,0,.44.07h.07a.48.48,0,0,0,.32-.13.46.46,0,0,0,.15-.3.49.49,0,0,0-.09-.37Zm0,.36a.35.35,0,0,1,0,.13.24.24,0,0,1-.09.11.33.33,0,0,1-.13.07h-.14l-.45-.08h-.11l-.27,0a.31.31,0,0,1-.2-.11.38.38,0,0,1-.09-.15.55.55,0,0,1,0-.18.43.43,0,0,1,.11-.21l0,0a.27.27,0,0,1,.12-.06h.14l.31,0,.08,0,.44.07a.34.34,0,0,1,.14,0,.47.47,0,0,1,.1.1A.42.42,0,0,1,143.63,105.83Z"/><path class="cls-7" d="M54.52,50.41a19.14,19.14,0,0,0-11.19-1.06s7.21-.49,11.49,4.1c0,0,3-4.6,7.93-5.66C62.75,47.79,59.07,47.35,54.52,50.41Z"/><path class="cls-7" d="M40.76,48.19a14.77,14.77,0,0,0-8.65-.87S37.69,47,41,50.54a11,11,0,0,1,6.16-4.34A10.31,10.31,0,0,0,40.76,48.19Z"/><path class="cls-7" d="M46.18,34.33a9.09,9.09,0,0,0-5.36-.09s3.41-.5,5.62,1.52a6.75,6.75,0,0,1,3.56-3A6.27,6.27,0,0,0,46.18,34.33Z"/><path class="cls-7" d="M58.05,42.67a13.24,13.24,0,0,0-7.76-.88s5-.25,7.92,3A9.89,9.89,0,0,1,63.8,41,9.24,9.24,0,0,0,58.05,42.67Z"/><path class="cls-7" d="M53.36,37.4a12.3,12.3,0,0,0-7.2-.55s4.63-.4,7.43,2.5a9.17,9.17,0,0,1,5-3.73A8.52,8.52,0,0,0,53.36,37.4Z"/><path class="cls-7" d="M162,49.05a27.33,27.33,0,0,1,16-1.52s-10.33-.7-16.45,5.87c0,0-4.28-6.59-11.36-8.1C150.23,45.3,155.5,44.67,162,49.05Z"/><path class="cls-7" d="M174,26a13,13,0,0,1,7.67-.13s-4.89-.72-8,2.18a9.7,9.7,0,0,0-5.1-4.27A8.94,8.94,0,0,1,174,26Z"/><path class="cls-7" d="M157,38a19,19,0,0,1,11.11-1.27s-7.19-.35-11.35,4.3c0,0-3.07-4.52-8-5.47C148.72,35.52,152.38,35,157,38Z"/><path class="cls-7" d="M163.67,30.42A17.55,17.55,0,0,1,174,29.64s-6.62-.58-10.64,3.57c0,0-2.67-4.28-7.2-5.34C156.14,27.87,159.54,27.53,163.67,30.42Z"/><path class="cls-8" d="M127,34.76c-4.2,0-7.61,3.67-7.61,8.21S127,54.75,127,54.75s7.61-7.25,7.61-11.78S131.18,34.76,127,34.76ZM127,47a4.48,4.48,0,0,1-4.14-2.78,4.48,4.48,0,0,1,1-4.9,4.47,4.47,0,0,1,2.3-1.23,4.42,4.42,0,0,1,2.59.25,4.47,4.47,0,0,1,2,1.66,4.54,4.54,0,0,1,.76,2.5,4.5,4.5,0,0,1-2.77,4.16A4.4,4.4,0,0,1,127,47Z"/><path class="cls-9" d="M127,120.25s-.2,1.94.24,2.15a50.75,50.75,0,0,0,5.63,0s0-.66-.91-.78-2.48-.63-2.77-1.81S127,120.25,127,120.25Z"/><path class="cls-10" d="M125.81,70.87s3.4,1.33,3.76.57q.08-.47.12-.84a11.49,11.49,0,0,0,.12-1.43l-2.24-1.81-.5-.41a6.91,6.91,0,0,1-.07,1.2s0,0,0,.08C126.62,70.41,125.81,70.87,125.81,70.87Z"/><path class="cls-11" d="M127,68.2l0,0a5.19,5.19,0,0,0,2.71,2.37c.06-.48.1-.95.12-1.43l-2.24-1.81a6.31,6.31,0,0,0-.58.78Z"/><path class="cls-10" d="M130.46,69.12s-3.49.58-3.82-1.61-1-3.58,1.22-4.05,2.77.31,3.06,1S131.36,68.91,130.46,69.12Z"/><path class="cls-12" d="M127.28,67s-.46-.47-.2-.77.42.16.64.14.59-.63.61-1.19,2.06.29,2.88,0,1.53-1.36.25-2c-.74-.35-4.49-2.13-5.91-.32-1.81,2.31.61,4.73.93,5.09s.51.27.51.27S127.56,67.46,127.28,67Z"/><path class="cls-12" d="M125.47,63.09a2.41,2.41,0,0,1,.2-.88,3.59,3.59,0,0,0,0,.7C125.79,63.14,125.47,63.09,125.47,63.09Z"/><path class="cls-12" d="M125.1,62.72s.44.05.47.39l-.16.21A.64.64,0,0,0,125.1,62.72Z"/><path class="cls-13" d="M121.87,120.25s-.2,2,.23,2.2c.19.09,5.85,0,5.85,0a1.34,1.34,0,0,0-1.12-.83c-.9-.13-2.48-.63-2.77-1.81S121.87,120.25,121.87,120.25Z"/><path class="cls-14" d="M124.56,90.43s0,.22,0,.6c.06,2.47.26,12,.47,17.37,0,.19,0,.38,0,.56s0,.2,0,.29a58.56,58.56,0,0,0,.82,7.12c.45,2.58.91,4.33.91,4.33a4.23,4.23,0,0,0,2.82-.3s.46-4,.64-6.42c.05-.78.34-3.46.69-6.72.28-2.51.59-5.38.88-8,0-.14,0-.27,0-.41.47-4.21.86-7.65.86-7.65l-3-.29Z"/><path class="cls-13" d="M125.89,116.37l5.06-9.11c.27-2.51.59-5.38.88-8,0-.14,0-.27,0-.41.47-4.21.85-7.65.85-7.65l-3-.29-5.14.11Z"/><path class="cls-14" d="M132.18,91.24s-2.83,14-5.14,20.8-2.34,8.65-2.34,8.65-2.11.46-3-.07c0,0-.54-12.84.86-16.25a25,25,0,0,0,1.39-8.79c-.24-1.72-.47-5.19-.47-5.19Z"/><path class="cls-15" d="M124.2,92a5.09,5.09,0,0,0,2.88.63,16,16,0,0,0,4-.67,8.5,8.5,0,0,0,1.61-.62c1.79-.93.38-15-2-18.81-1.09-1.75-4.4-2.29-4.4-2.29-.54.26-2,3-2.09,5-.1,2.15.1,4.85.1,7.32a27.8,27.8,0,0,1-.67,5.34C123.33,89.81,123.14,91.24,124.2,92Z"/><path class="cls-16" d="M127.08,92.62a16.11,16.11,0,0,0,4.06-.67c.5-1.21.72-3.23.26-6.57-.36-2.55-3-12.79-3-12.79C126.36,72.32,122.11,87,127.08,92.62Z"/><path class="cls-17" d="M126.5,97.67a1.47,1.47,0,0,1,.17-.74,1.53,1.53,0,0,1,.51-.56,5.8,5.8,0,0,1,3.58-.9c2.8.17,3.43,1.74,3.52,2.94s1,3,1.24,4.29.6,4.75-1.39,5-8.65,0-8.65,0-1.55-1.83,0-5.33A11,11,0,0,0,126.5,97.67Z"/><path class="cls-17" d="M127.36,95.87l.53-.1a1.91,1.91,0,0,1,.17-.84.72.72,0,0,1,.29-.33.81.81,0,0,1,.42-.14.73.73,0,0,1,.41.07.76.76,0,0,1,.31.28,2.1,2.1,0,0,1,.23.91h.53a3.36,3.36,0,0,0-.39-1.56,1.17,1.17,0,0,0-1.12-.61,1.33,1.33,0,0,0-1.09.79A3.38,3.38,0,0,0,127.36,95.87Z"/><path class="cls-18" d="M124.13,107.72s6.66.27,8.65,0,1.62-3.67,1.39-5-1.16-3.08-1.25-4.29a2.93,2.93,0,0,0-.12-.72c-.29-1-1.13-2.08-3.39-2.22a5.79,5.79,0,0,0-3.58.9,1.52,1.52,0,0,0-.51.56,1.59,1.59,0,0,0-.18.74c0,.1,0,.23,0,.36a11.17,11.17,0,0,1-1,4.36C122.58,105.89,124.13,107.72,124.13,107.72Z"/><path class="cls-19" d="M133.28,103.19h-4s-.27,2.92,1.63,3S133.34,105.07,133.28,103.19Z"/><path class="cls-17" d="M133.28,103.19a2.39,2.39,0,0,1-1.93,1,3,3,0,0,1-2-1Z"/><path class="cls-19" d="M128.5,103.19h-4s-.27,2.92,1.63,3S128.56,105.07,128.5,103.19Z"/><path class="cls-17" d="M128.5,103.19a2.41,2.41,0,0,1-1.93,1,3,3,0,0,1-2-1Z"/><path class="cls-19" d="M125.14,97.67c0,.1,0,.23,0,.36a4.61,4.61,0,0,0,3.66,2,4.7,4.7,0,0,0,4-2.31c-.28-1-1.13-2.08-3.39-2.22a5.79,5.79,0,0,0-3.58.9,1.53,1.53,0,0,0-.51.56,1.59,1.59,0,0,0-.18.74Z"/><path class="cls-20" d="M128.9,100.59a.37.37,0,0,0,.23-.1.32.32,0,0,0,.09-.23V100a.33.33,0,0,0-.09-.23.37.37,0,0,0-.23-.1h0a.37.37,0,0,0-.24.1.33.33,0,0,0-.09.23v.3a.32.32,0,0,0,.09.23.37.37,0,0,0,.24.1Z"/><path class="cls-21" d="M129.28,92.67s.87,1.67.44,2.32-2-.19-2.1-.56a12.89,12.89,0,0,1,0-2.17Z"/><path class="cls-21" d="M129.42,92.62a1.46,1.46,0,0,1,.42.64c0,.28.33.89.25.94-.26.18-.67-.56-.67-.56l-.14-.82Z"/><path class="cls-15" d="M124.86,75.88s.41,5.83.4,8.24,1.91,8.82,1.91,8.82a12.2,12.2,0,0,0,1.76,0,2,2,0,0,0,.92-.34s-.42-7.57.38-10.47a46.53,46.53,0,0,0,.84-8.74s-.45-1.26-3.11-.86A3.37,3.37,0,0,0,124.86,75.88Z"/><path class="cls-10" d="M88.54,88.35l.32.38c.12.15.26.69.18.79s-.55.23-.57-.06S88.54,88.35,88.54,88.35Z"/><path class="cls-10" d="M106.28,86.1a2.25,2.25,0,0,0,1.28,1.2A2.29,2.29,0,0,1,109,89.13c0,.29-1.31-.67-1.82-.69s-.8.25-1.15-.43-.79-1.36-.79-1.36Z"/><path class="cls-14" d="M93.22,86.51a2.66,2.66,0,0,0,1.23-.27c4.42-2.2.31-17.34.31-17.34a1.5,1.5,0,0,0-.38-.64,1.55,1.55,0,0,0-.63-.4A11.1,11.1,0,0,0,92,67.7c-2.65-.19-2.78,1.36-2.87,1.9S86.88,86.48,93.22,86.51Z"/><path class="cls-13" d="M94.45,86.24c4.42-2.2.31-17.34.31-17.34a1.79,1.79,0,0,0-.4-.62,1.71,1.71,0,0,0-.61-.42c-1.71.45-2.06,1.26-2.16,1.74S89.7,84.13,94.45,86.24Z"/><path class="cls-13" d="M97.71,120.06s-.25,2,.19,2.19a52.47,52.47,0,0,0,5.73.15s0-.67-.91-.81-2.51-.7-2.78-1.9S97.71,120.06,97.71,120.06Z"/><path class="cls-14" d="M102.49,89.93s-.3,3.74-.65,8.23c-.48,6.11-1,13.6-1.11,15-.1,2.46-.49,6.41-.49,6.41a3.1,3.1,0,0,1-2.8.54,64.15,64.15,0,0,1-2.14-11.59l0-.3c-.44-6.06-1.13-18.84-1.13-18.84Z"/><path class="cls-13" d="M102.49,89.93s-.3,3.74-.65,8.23L95.3,108.55l0-.3c-.44-6.06-1.13-18.84-1.13-18.84Z"/><path class="cls-14" d="M101.12,90.38s-5.38,13.53-8.92,19.9-4.64,8.13-4.64,8.13-2-.81-2.22-1.36c0,0,1.36-12.29,3.73-15.28,1.34-1.69,2.91-6.77,3-8.55s.48-5.29.48-5.29Z"/><path class="cls-10" d="M99.79,70.57c-2.11.67-5.75-1.13-5.75-1.13a5.24,5.24,0,0,0,1.74-3.14,6.82,6.82,0,0,0,.1-1.35l2,1.59.76.61s0,.21,0,.6-.09,1-.21,1.66a5.17,5.17,0,0,1,1.43,1.16Z"/><path class="cls-22" d="M106.31,87.32a1.81,1.81,0,0,0,.56-.69s-3.8-5.22-4.13-5.73S100,72.2,100,72.2L94,71S99,81.44,99.86,82.72c1.38,2.11,5.74,5,5.74,5a2.46,2.46,0,0,0,.71-.39Z"/><path class="cls-23" d="M92.13,88.56c0,.13.13.26.3.37a2.32,2.32,0,0,0,.38.21c.46.21.92.4,1.36.56a12.45,12.45,0,0,0,3.29.79,19.65,19.65,0,0,0,3.64-.1c.59-.07,1.07-.13,1.36-.13h0a.36.36,0,0,0,.23-.08s.08-1.88.06-4.36c0-.35,0-.71,0-1.08,0-.12,0-.24,0-.37v0c0-1.17,0-2.4-.1-3.62v0a41.41,41.41,0,0,0-.69-6.77,9.94,9.94,0,0,0-2.63-3.82,3.74,3.74,0,0,0-1.59-1c-1.05-.33-2.66-.77-3-.47a3.39,3.39,0,0,0-.7.76h0a7,7,0,0,0-.48.84A10,10,0,0,0,93,72a23.77,23.77,0,0,0-.7,6.13q0,.87.06,1.77c0,.17,0,.33,0,.5.07,1.48.06,2.85,0,4v0c0,1.22-.1,2.25-.16,3C92.16,87.93,92.13,88.31,92.13,88.56Z"/><path class="cls-22" d="M92.19,87.47a58.39,58.39,0,0,0,.11-7.61c0-.6,0-1.19,0-1.77.72-1.75,1.31-3,1.31-3h1.81S96.7,84.18,92.19,87.47Z"/><path class="cls-11" d="M98.61,67.15s0,.21,0,.6a5.11,5.11,0,0,1-2.79-1.45l2.06.24Z"/><path class="cls-10" d="M99.25,67.1s-3.47.58-3.8-1.59-1-3.57,1.21-4,2.76.3,3,1S100.15,66.9,99.25,67.1Z"/><path class="cls-14" d="M95.45,65.3s.36-.06.3-.56-.06-1.13.34-1,.42.44.59.25.16-1,1.35-1,1.67.36,2.23.12.58-1.09.58-1.09a1,1,0,0,1-.4.4s.92-1.27-.14-2.13S98.14,60,97.52,60c-1.36.09-2.24.17-2.68,1.07A5,5,0,0,0,95.45,65.3Z"/><path class="cls-5" d="M77.07,120.47a1.24,1.24,0,0,1,0,1,1.23,1.23,0,0,1-.28.43,1.39,1.39,0,0,1-.43.28,1.36,1.36,0,0,1-1,0,1.32,1.32,0,0,1-.73-.7,1.17,1.17,0,0,1-.11-.49,1.44,1.44,0,0,1,.09-.51,1.5,1.5,0,0,1,.29-.42,1.19,1.19,0,0,1,.42-.28,1.38,1.38,0,0,1,1,0,1.35,1.35,0,0,1,.73.7Z"/><path class="cls-5" d="M86.63,120.47a1.24,1.24,0,0,1,0,1,1.23,1.23,0,0,1-.28.43,1.39,1.39,0,0,1-.43.28,1.34,1.34,0,0,1-1.74-.69,1.17,1.17,0,0,1-.11-.49,1.25,1.25,0,0,1,.1-.51,1.29,1.29,0,0,1,.28-.42,1.19,1.19,0,0,1,.42-.28,1.31,1.31,0,0,1,1,0,1.29,1.29,0,0,1,.74.69Z"/><path class="cls-24" d="M74.32,120.31l1.89.67a1.8,1.8,0,0,0,.6.1L87.56,121l1.17-1.9Z"/><path class="cls-24" d="M80.42,99.38l3-7.28h0c0-.07.49-1.63,3.2-2h0l2.22-.41a2,2,0,0,1,1.5.12.7.7,0,0,1,.21.66c0,.61-2,5.33-3.38,8.35l.42.17c.34-.77,3.34-7.6,3.42-8.48a1.14,1.14,0,0,0-.37-1,2.53,2.53,0,0,0-1.91-.21l-2.19.41C83.64,90,83,91.76,83,92l-3,7.25Z"/><path class="cls-24" d="M86.18,97.22,92,98.35s1.7.67,1.36,3.56c-.3,2.54-1.59,16.8-1.59,16.8s-.27,3-6.77,2.11Z"/><path class="cls-23" d="M89.4,101.14l-1.56,16a3.54,3.54,0,0,1-.66,1.74A3.69,3.69,0,0,1,85.86,120a3.78,3.78,0,0,1-1.68.4l-5.38,0h-.14l-3.36,0a3.25,3.25,0,0,1-1-.12l-.21-.06a3.63,3.63,0,0,1-1.5-.92,3.68,3.68,0,0,1-.9-1.52,3.49,3.49,0,0,1-.1-1.54L74.05,101a3.68,3.68,0,0,1,3.31-3l1-.08.23,0,.19,0,3.18-.3.39,0,3.06-.29a4,4,0,0,1,1.38.12l.09,0,.17.06A3.59,3.59,0,0,1,89.4,101.14Z"/><path class="cls-25" d="M87.18,118.85a3.69,3.69,0,0,1-3,1.53l-5.38,0h-.14l-3.37,0a3.19,3.19,0,0,1-1-.12,1.41,1.41,0,0,1-.22-.06A3.81,3.81,0,0,1,71.58,117s11.38-.15,13.76.21A2.27,2.27,0,0,1,87.18,118.85Z"/><path class="cls-24" d="M78.73,97.83s-2.52,1.49-2.85,2.79-2.59,16.93-2.61,17.09a3.62,3.62,0,0,0,.33,1.45,3.48,3.48,0,0,0,.89,1.19l-.17,0-.22-.06a3.19,3.19,0,0,1-1-2.57c.09-.64,2.27-15.76,2.61-17.1.3-1.18,2.06-2.36,2.63-2.71l.22,0Z"/><path class="cls-24" d="M82.3,97.49a4.73,4.73,0,0,0-2,3.13c-.35,2.2-1.69,18.15-1.7,18.31v0h0a1.75,1.75,0,0,0,.36,1.45h-.27a1.67,1.67,0,0,1-.29-1.5c0-.5,1.36-16.14,1.7-18.32a4.85,4.85,0,0,1,1.83-3.06Z"/><path class="cls-24" d="M87,97.42a4.06,4.06,0,0,0-1,.78,4.44,4.44,0,0,0-1.1,2.33c-.35,2.2-1.41,18.1-1.42,18.26v0h0a2.38,2.38,0,0,0,.5,1.56h-.34a2.54,2.54,0,0,1-.36-1.61c0-.51,1.08-16.09,1.42-18.27a4.55,4.55,0,0,1,2-3.17l.09,0Z"/><path class="cls-10" d="M89.37,86.13,88.61,88a1,1,0,0,0,0,.69,1.7,1.7,0,0,1-.86,2.1s-.68.34-.79-.18a9.59,9.59,0,0,0-.15-1.08,2.08,2.08,0,0,1,.4-1.5,1.84,1.84,0,0,0,.17-.62l.15-1.17Z"/><path class="cls-23" d="M87.74,88.2a5.7,5.7,0,0,0,1.37.07s1.94-6,2.18-6.55,5.76-6.65,5.76-6.65l-3.49-4.79s-4.76,8.61-5.37,10c-1,2.32-1.34,7.51-1.34,7.51a2.45,2.45,0,0,0,.89.39Z"/><path class="cls-13" d="M92.35,84.41v0a6.05,6.05,0,0,0,2.56-1.3,9.63,9.63,0,0,0,2.86-4.43,12.72,12.72,0,0,0,.51-6.88,3.82,3.82,0,0,0-.21-.46,3.47,3.47,0,0,0-.64-.79A4.4,4.4,0,0,0,95,69.49a5.35,5.35,0,0,0-.55,0h-.4c-.45.13-.8.44-.48.84a2.55,2.55,0,0,1,.39,0,3.82,3.82,0,0,1,1.42.2,2.79,2.79,0,0,1,1.49,1.1,5.4,5.4,0,0,1,.75,3.28,16.57,16.57,0,0,1-.43,2.72,10.26,10.26,0,0,1-1.92,4,6,6,0,0,1-2.89,2.1,2.25,2.25,0,0,0-.06.36,1,1,0,0,0,0,.34Z"/><path class="cls-10" d="M106.13,88.12a1.66,1.66,0,0,0,.58.56c.31.11.79.51.84.4a.42.42,0,0,0-.21-.42c-.18-.12-.24-.29-.19-.38S106.13,88.12,106.13,88.12Z"/><path class="cls-8" d="M78.79,48.2c-4.51,0-8.16,3.94-8.16,8.8s8.16,12.64,8.16,12.64S87,61.87,87,57,83.3,48.2,78.79,48.2Zm0,13.11a4.83,4.83,0,0,1-4.72-5.76,4.92,4.92,0,0,1,1.32-2.48,4.86,4.86,0,0,1,2.46-1.32,4.81,4.81,0,0,1,2.78.28,4.75,4.75,0,0,1,2.16,1.78,4.86,4.86,0,0,1,.45,4.52,4.89,4.89,0,0,1-1,1.57A4.76,4.76,0,0,1,80.63,61a4.83,4.83,0,0,1-1.84.36Z"/><path class="cls-23" d="M81.42,47.24h0l-.11,0-.09-.08a.37.37,0,0,1,0-.11.49.49,0,0,1,0-.12s0-.22.09-.6a.34.34,0,0,1,.13-.2.25.25,0,0,1,.22-.05.28.28,0,0,1,.2.12.33.33,0,0,1,0,.22c-.06.38-.09.59-.09.6a.27.27,0,0,1-.1.18A.26.26,0,0,1,81.42,47.24Z"/><path class="cls-23" d="M81.72,45.43h-.06a.33.33,0,0,1-.19-.12.32.32,0,0,1,0-.23c.07-.4.15-.81.23-1.22a.26.26,0,0,1,.13-.19.25.25,0,0,1,.22-.05.3.3,0,0,1,.2.13.3.3,0,0,1,0,.23c-.08.4-.15.81-.23,1.21a.3.3,0,0,1-.1.17.26.26,0,0,1-.19.07ZM82.19,43h-.06a.29.29,0,0,1-.19-.13.27.27,0,0,1,0-.23c.08-.4.17-.81.26-1.21a.21.21,0,0,1,0-.11.2.2,0,0,1,.09-.09l.11,0h.12a.16.16,0,0,1,.11.05.18.18,0,0,1,.08.09.15.15,0,0,1,0,.11.24.24,0,0,1,0,.12l-.27,1.21a.33.33,0,0,1-.1.17.32.32,0,0,1-.19.07Zm.54-2.41h-.07a.31.31,0,0,1-.18-.14.27.27,0,0,1,0-.23l.3-1.2a.28.28,0,0,1,.14-.18.31.31,0,0,1,.23,0,.34.34,0,0,1,.18.13.31.31,0,0,1,0,.23c-.1.4-.2.8-.29,1.2a.36.36,0,0,1-.11.16.32.32,0,0,1-.19.07Zm.61-2.39-.08,0a.31.31,0,0,1-.18-.14.31.31,0,0,1,0-.23c.11-.4.22-.8.34-1.19a.22.22,0,0,1,0-.11.24.24,0,0,1,.09-.08l.11,0h.12a.24.24,0,0,1,.11.06.34.34,0,0,1,.08.09.27.27,0,0,1,0,.12.49.49,0,0,1,0,.12c-.11.39-.23.79-.33,1.18a.33.33,0,0,1-.29.23ZM84,35.84l-.09,0-.1,0a.39.39,0,0,1-.08-.1.2.2,0,0,1,0-.11.49.49,0,0,1,0-.12l.37-1.18a.31.31,0,0,1,.16-.16.28.28,0,0,1,.22,0,.31.31,0,0,1,.17.15.28.28,0,0,1,0,.22c-.13.38-.25.78-.37,1.17a.36.36,0,0,1-.11.16.35.35,0,0,1-.18.06Zm.76-2.35a.35.35,0,0,1-.14,0,.32.32,0,0,1-.1-.1.31.31,0,0,1-.06-.13.32.32,0,0,1,0-.14c.13-.4.27-.79.41-1.17a.6.6,0,0,1,.06-.11l.1-.07a.2.2,0,0,1,.11,0,.22.22,0,0,1,.12,0,.24.24,0,0,1,.11.06.36.36,0,0,1,.07.1.37.37,0,0,1,0,.24c-.14.38-.28.77-.41,1.16a.3.3,0,0,1-.11.14.27.27,0,0,1-.17.06Zm35.77-.72a.33.33,0,0,1-.28-.18c-.16-.36-.34-.73-.52-1.1a.27.27,0,0,1,0-.12.25.25,0,0,1,0-.12.24.24,0,0,1,.06-.11.31.31,0,0,1,.09-.07.27.27,0,0,1,.12,0,.25.25,0,0,1,.12,0,.21.21,0,0,1,.1.06.23.23,0,0,1,.07.1c.19.38.37.75.54,1.12a.3.3,0,0,1,0,.23.26.26,0,0,1-.15.17.28.28,0,0,1-.13,0Zm-34.91-1.6a.25.25,0,0,1-.12,0,.27.27,0,0,1-.1-.06.33.33,0,0,1-.06-.1.2.2,0,0,1,0-.11.5.5,0,0,1,0-.12c.15-.39.31-.77.46-1.15a.35.35,0,0,1,.17-.15.28.28,0,0,1,.22,0,.33.33,0,0,1,.17.16.3.3,0,0,1,0,.23c-.15.37-.31.75-.46,1.13a.26.26,0,0,1-.11.14.24.24,0,0,1-.16.05Zm33.83-.62a.29.29,0,0,1-.16,0,.32.32,0,0,1-.11-.12l-.58-1.08a.31.31,0,0,1,.12-.4.31.31,0,0,1,.23,0,.31.31,0,0,1,.18.14c.2.35.39.72.58,1.09a.28.28,0,0,1,0,.15.42.42,0,0,1,0,.15.35.35,0,0,1-.11.1A.28.28,0,0,1,119.48,30.55ZM86.59,28.9l-.12,0a.37.37,0,0,1-.16-.17.26.26,0,0,1,0-.23c.17-.39.35-.77.52-1.13a.33.33,0,0,1,.17-.16.3.3,0,0,1,.23,0,.27.27,0,0,1,.16.17.31.31,0,0,1,0,.23c-.17.36-.34.74-.51,1.11a.3.3,0,0,1-.11.14.33.33,0,0,1-.17,0Zm31.69-.5a.42.42,0,0,1-.15,0,.29.29,0,0,1-.11-.11c-.21-.35-.42-.7-.64-1.05a.29.29,0,0,1,0-.22.3.3,0,0,1,.36-.23.29.29,0,0,1,.18.13c.22.35.44.7.65,1.06a.36.36,0,0,1,0,.11.49.49,0,0,1,0,.12.54.54,0,0,1,0,.11.22.22,0,0,1-.09.07.27.27,0,0,1-.15,0ZM87.66,26.68a.23.23,0,0,1-.14,0,.22.22,0,0,1-.09-.07.27.27,0,0,1-.06-.1.25.25,0,0,1,0-.12.27.27,0,0,1,0-.12c.19-.37.39-.74.58-1.09a.24.24,0,0,1,.08-.09.33.33,0,0,1,.1-.06h.12l.11,0a.24.24,0,0,1,.09.08.21.21,0,0,1,.06.1.49.49,0,0,1,0,.12.36.36,0,0,1,0,.11l-.58,1.08a.25.25,0,0,1-.11.12.27.27,0,0,1-.15.05ZM117,26.31a.23.23,0,0,1-.14,0,.24.24,0,0,1-.11-.09c-.23-.35-.46-.68-.7-1a.28.28,0,0,1,0-.22.28.28,0,0,1,.12-.18.27.27,0,0,1,.21-.06.27.27,0,0,1,.19.11c.24.33.48.68.71,1a.21.21,0,0,1,0,.11.24.24,0,0,1,0,.12.36.36,0,0,1,0,.11l-.09.08a.3.3,0,0,1-.16,0ZM88.85,24.52a.26.26,0,0,1-.15,0,.23.23,0,0,1-.11-.11.28.28,0,0,1,0-.15.29.29,0,0,1,0-.16q.33-.54.66-1a.31.31,0,0,1,.19-.13.37.37,0,0,1,.23,0,.39.39,0,0,1,.13.2.35.35,0,0,1,0,.22c-.22.33-.44.68-.65,1a.35.35,0,0,1-.11.1.28.28,0,0,1-.15,0Zm26.69-.22a.28.28,0,0,1-.13,0,.31.31,0,0,1-.11-.09l-.76-1a.31.31,0,0,1-.05-.21.26.26,0,0,1,.1-.2.29.29,0,0,1,.22-.07.26.26,0,0,1,.2.1c.26.31.52.64.77,1a.32.32,0,0,1,.06.23.28.28,0,0,1-.12.2.28.28,0,0,1-.18.06ZM90.2,22.46a.26.26,0,0,1-.15,0,.34.34,0,0,1-.12-.12.45.45,0,0,1,0-.16A.44.44,0,0,1,90,22q.38-.51.75-1l.09-.08a.45.45,0,0,1,.11,0,.25.25,0,0,1,.12,0l.11.05.07.09a.56.56,0,0,1,0,.12.37.37,0,0,1,0,.11.24.24,0,0,1-.06.11c-.24.31-.49.63-.73,1a.31.31,0,0,1-.11.09.32.32,0,0,1-.14,0ZM114,22.4a.28.28,0,0,1-.13,0,.23.23,0,0,1-.1-.07c-.27-.31-.55-.61-.83-.89a.53.53,0,0,1-.06-.1.25.25,0,0,1,0-.12.5.5,0,0,1,0-.12.31.31,0,0,1,.07-.09l.1-.07.12,0a.23.23,0,0,1,.11,0,.21.21,0,0,1,.1.06c.28.3.57.6.84.92a.28.28,0,0,1,.08.15.25.25,0,0,1,0,.17.28.28,0,0,1-.11.13.3.3,0,0,1-.16,0Zm-1.72-1.77a.3.3,0,0,1-.2-.08c-.3-.28-.61-.56-.91-.81l-.08-.09a.56.56,0,0,1,0-.12.25.25,0,0,1,0-.12.37.37,0,0,1,0-.11.23.23,0,0,1,.1-.07.27.27,0,0,1,.12,0,.25.25,0,0,1,.12,0l.1.07c.31.26.62.54.93.83a.38.38,0,0,1,.09.15.28.28,0,0,1,0,.18.26.26,0,0,1-.11.14.34.34,0,0,1-.17.05Zm-20.52-.09a.3.3,0,0,1-.27-.18.25.25,0,0,1,0-.17.31.31,0,0,1,.08-.15c.28-.32.57-.62.86-.91a.33.33,0,0,1,.1-.06.2.2,0,0,1,.11,0l.12,0,.1.07a.33.33,0,0,1,.06.1.5.5,0,0,1,0,.12.27.27,0,0,1-.09.21c-.28.28-.56.57-.83.87a.28.28,0,0,1-.11.08l-.12,0ZM110.39,19a.28.28,0,0,1-.18-.06c-.33-.25-.66-.48-1-.7a.29.29,0,0,1-.13-.19.31.31,0,0,1,0-.23.39.39,0,0,1,.2-.13.29.29,0,0,1,.22.05c.34.22.68.47,1,.72a.33.33,0,0,1,.11.15.41.41,0,0,1,0,.19.27.27,0,0,1-.11.15.34.34,0,0,1-.17.05Zm-16.9-.22a.34.34,0,0,1-.17-.05.33.33,0,0,1-.11-.15.36.36,0,0,1,0-.18.31.31,0,0,1,.1-.15c.32-.28.65-.54,1-.78l.11-.06h.13l.11,0a.28.28,0,0,1,.1.09.37.37,0,0,1,0,.11.57.57,0,0,1,0,.13.24.24,0,0,1-.06.11.26.26,0,0,1-.09.09c-.32.23-.64.48-.95.74a.32.32,0,0,1-.19.07Zm14.85-1.13a.42.42,0,0,1-.15,0c-.35-.2-.71-.39-1.07-.56A.31.31,0,0,1,107,17a.27.27,0,0,1-.06-.1.25.25,0,0,1,0-.12.27.27,0,0,1,0-.12l.07-.09a.21.21,0,0,1,.1-.06l.12,0a.2.2,0,0,1,.11,0c.37.18.75.37,1.11.58a.24.24,0,0,1,.13.15.31.31,0,0,1,0,.19.31.31,0,0,1-.11.16.34.34,0,0,1-.19.07Zm-12.86-.3a.3.3,0,0,1-.18-.06.36.36,0,0,1-.11-.16.34.34,0,0,1,0-.2.29.29,0,0,1,.13-.14,11.94,11.94,0,0,1,1.11-.59.27.27,0,0,1,.12,0,.25.25,0,0,1,.12,0,.33.33,0,0,1,.1.06.23.23,0,0,1,.07.1.27.27,0,0,1,0,.12.25.25,0,0,1,0,.12.33.33,0,0,1-.06.1l-.1.07a9,9,0,0,0-1.06.56.42.42,0,0,1-.16,0Zm10.64-.75-.11,0a11.65,11.65,0,0,0-1.14-.37l-.11-.05-.08-.09a.56.56,0,0,1,0-.12.49.49,0,0,1,0-.12.37.37,0,0,1,0-.11.39.39,0,0,1,.1-.08.2.2,0,0,1,.11,0H105q.6.16,1.2.39a.34.34,0,0,1,.15.14.28.28,0,0,1,0,.2.34.34,0,0,1-.11.18.32.32,0,0,1-.19.07Zm-8.41-.28a.32.32,0,0,1-.2-.07.27.27,0,0,1-.1-.18.25.25,0,0,1,0-.21.26.26,0,0,1,.16-.13,10.37,10.37,0,0,1,1.21-.34h.12l.11,0a.3.3,0,0,1,.08.08.54.54,0,0,1,.05.11.24.24,0,0,1,0,.12.36.36,0,0,1,0,.11.3.3,0,0,1-.08.08A.27.27,0,0,1,99,16a11.53,11.53,0,0,0-1.15.32l-.09,0Zm6.05-.38h-.06a9.55,9.55,0,0,0-1.18-.16l-.12,0a.16.16,0,0,1-.09-.07.27.27,0,0,1-.06-.1.25.25,0,0,1,0-.12.56.56,0,0,1,0-.12.22.22,0,0,1,.07-.09.24.24,0,0,1,.11-.06h.12c.41,0,.83.09,1.24.17a.29.29,0,0,1,.19.11.39.39,0,0,1,.06.21.31.31,0,0,1-.3.28Zm-3.67-.15a.25.25,0,0,1-.21-.08.26.26,0,0,1-.1-.2.3.3,0,0,1,.08-.22.26.26,0,0,1,.2-.1l.38,0,.87,0,.12,0,.1.07a.27.27,0,0,1,.09.21.31.31,0,0,1-.09.22.33.33,0,0,1-.21.09q-.42,0-.84,0l-.36,0Z"/><path class="cls-23" d="M121.27,34.43a.34.34,0,0,1-.17,0,.33.33,0,0,1-.11-.15l-.22-.55a.28.28,0,0,1,0-.22.31.31,0,0,1,.16-.16.3.3,0,0,1,.23,0,.26.26,0,0,1,.16.15c.16.36.23.56.24.57a.5.5,0,0,1,0,.12.45.45,0,0,1,0,.11.36.36,0,0,1-.07.1.33.33,0,0,1-.1.06l-.11,0Z"/><rect class="cls-26" width="199" height="129"/></g></g></svg>