<svg xmlns="http://www.w3.org/2000/svg" viewBox="0 0 199 129"><defs><style>.cls-1{fill:#87cafd;isolation:isolate;opacity:0.21;}.cls-2{fill:#2d3554;}.cls-3{fill:#c8dffd;}.cls-4{fill:#0b3563;}.cls-5{fill:#ff7b35;}.cls-6{fill:#a8ccff;}.cls-7{fill:#d5e9ff;}.cls-8{fill:#fff;}.cls-9{fill:#b8d0fc;}.cls-10{fill:#ffae73;}.cls-11{fill:#25468f;}.cls-12{fill:#1e3865;}.cls-13{fill:#254c82;}.cls-14{fill:#ff912b;}.cls-15{fill:#fc7600;}.cls-16{fill:#f9924f;}.cls-17{fill:#0d458e;}.cls-18{fill:#6b98f6;}.cls-19{fill:#79afff;}.cls-20{opacity:0.5;}.cls-21{fill:#e9f1ff;}.cls-22{fill:#bfceff;}.cls-23{fill:#a6bcf6;}.cls-24{opacity:0.3;}.cls-25{fill:#ff8732;}.cls-26{fill:#fffdfd;}.cls-27{fill:none;}</style></defs><g id="Layer_2" data-name="Layer 2"><g id="Layer_1-2" data-name="Layer 1"><path class="cls-1" d="M10.73,123.33H188.66c5.89-14.87,5.89-22.09,6.54-30.63,3.68-47-26.13-54.24-34.86-56.21-26.79-6-14.59-35.7-84.28-30.13-6.39.51-21.45,4.63-26.64,7.31-3.64,1.87-17.36,10.25-21.35,24.4a30,30,0,0,0-.3,15.12C32.31,73,20.48,71.89,11.84,81.33.28,94,1.49,114.6,10.73,123.33Z"/><rect class="cls-2" x="1.47" y="122.8" width="196.06" height="0.54" rx="0.22"/><g id="Layer_2-2" data-name="Layer 2"><g id="Layer_1-2-2" data-name="Layer 1-2"><rect class="cls-3" x="87.21" y="29.94" width="55.31" height="92.98"/><rect class="cls-4" x="142.52" y="41.36" width="4.63" height="0.21"/><rect class="cls-5" x="146.9" y="37.47" width="21.08" height="8.84" rx="1.79"/><rect class="cls-6" x="126.23" y="38.37" width="10.59" height="15.34"/><path class="cls-7" d="M131.11,38.37a12.21,12.21,0,0,1-4.88,9.08V38.37Z"/><path class="cls-7" d="M132.16,38.37a12.35,12.35,0,0,0,4.66,9.08V38.37Z"/><rect class="cls-8" x="131.52" y="38.37" width="0.26" height="15.34"/><rect class="cls-8" x="126.23" y="42.9" width="10.59" height="0.21"/><rect class="cls-8" x="126.23" y="48.47" width="10.59" height="0.21"/><path class="cls-8" d="M137.06,54H126V38.13h11.08Zm-10.59-.5h10.11V38.6H126.47Z"/><rect class="cls-6" x="109.56" y="38.37" width="10.59" height="15.34"/><path class="cls-7" d="M114.44,38.37a12.18,12.18,0,0,1-4.88,9.08V38.37Z"/><path class="cls-7" d="M115.49,38.37a12.4,12.4,0,0,0,4.67,9.08V38.37Z"/><rect class="cls-8" x="114.86" y="38.37" width="0.26" height="15.34"/><rect class="cls-8" x="109.56" y="42.9" width="10.59" height="0.21"/><rect class="cls-8" x="109.56" y="48.47" width="10.59" height="0.21"/><path class="cls-8" d="M120.4,54H109.32V38.13H120.4Zm-10.59-.5h10.1V38.6h-10.1Z"/><rect class="cls-6" x="92.9" y="38.37" width="10.59" height="15.34"/><path class="cls-7" d="M97.78,38.37a12.21,12.21,0,0,1-4.88,9.08V38.37Z"/><path class="cls-7" d="M98.83,38.37a12.35,12.35,0,0,0,4.66,9.08V38.37Z"/><rect class="cls-8" x="98.2" y="38.37" width="0.26" height="15.34"/><rect class="cls-8" x="92.9" y="42.9" width="10.59" height="0.21"/><rect class="cls-8" x="92.9" y="48.47" width="10.59" height="0.21"/><path class="cls-8" d="M103.74,54H92.65V38.13h11.09Zm-10.6-.5h10.11V38.6H93.14Z"/><rect class="cls-6" x="126.23" y="61.41" width="10.59" height="15.34"/><path class="cls-7" d="M131.11,61.41a12.21,12.21,0,0,1-4.88,9.08V61.41Z"/><path class="cls-7" d="M132.16,61.41a12.35,12.35,0,0,0,4.66,9.08V61.41Z"/><rect class="cls-8" x="131.52" y="61.41" width="0.26" height="15.34"/><rect class="cls-8" x="126.23" y="65.94" width="10.59" height="0.21"/><rect class="cls-8" x="126.23" y="71.51" width="10.59" height="0.21"/><path class="cls-8" d="M137.06,77H126V61.17h11.08Zm-10.59-.49h10.11V61.64H126.47Z"/><rect class="cls-6" x="109.56" y="61.41" width="10.59" height="15.34"/><path class="cls-7" d="M114.44,61.41a12.18,12.18,0,0,1-4.88,9.08V61.41Z"/><path class="cls-7" d="M115.49,61.41a12.4,12.4,0,0,0,4.67,9.08V61.41Z"/><rect class="cls-8" x="114.86" y="61.41" width="0.26" height="15.34"/><rect class="cls-8" x="109.56" y="65.94" width="10.59" height="0.21"/><rect class="cls-8" x="109.56" y="71.51" width="10.59" height="0.21"/><path class="cls-8" d="M120.4,77H109.32V61.17H120.4Zm-10.59-.49h10.1V61.64h-10.1Z"/><rect class="cls-6" x="92.9" y="61.41" width="10.59" height="15.34"/><path class="cls-7" d="M97.78,61.41a12.21,12.21,0,0,1-4.88,9.08V61.41Z"/><path class="cls-7" d="M98.83,61.41a12.35,12.35,0,0,0,4.66,9.08V61.41Z"/><rect class="cls-8" x="98.2" y="61.41" width="0.26" height="15.34"/><rect class="cls-8" x="92.9" y="65.94" width="10.59" height="0.21"/><rect class="cls-8" x="92.9" y="71.51" width="10.59" height="0.21"/><path class="cls-8" d="M103.74,77H92.65V61.17h11.09Zm-10.6-.49h10.11V61.64H93.14Z"/><rect class="cls-6" x="109.56" y="84.45" width="10.59" height="15.34"/><path class="cls-7" d="M114.44,84.45a12.18,12.18,0,0,1-4.88,9.08V84.45Z"/><path class="cls-7" d="M115.49,84.45a12.4,12.4,0,0,0,4.67,9.08V84.45Z"/><rect class="cls-8" x="114.86" y="84.45" width="0.26" height="15.34"/><rect class="cls-8" x="109.56" y="88.99" width="10.59" height="0.21"/><rect class="cls-8" x="109.56" y="94.55" width="10.59" height="0.21"/><path class="cls-8" d="M120.4,100H109.32V84.2H120.4Zm-10.59-.49h10.1V84.69h-10.1Z"/><rect class="cls-6" x="92.9" y="84.45" width="10.59" height="15.34"/><path class="cls-7" d="M97.78,84.45a12.21,12.21,0,0,1-4.88,9.08V84.45Z"/><path class="cls-7" d="M98.83,84.45a12.35,12.35,0,0,0,4.66,9.08V84.45Z"/><rect class="cls-8" x="98.2" y="84.45" width="0.26" height="15.34"/><rect class="cls-8" x="92.9" y="88.99" width="10.59" height="0.21"/><rect class="cls-8" x="92.9" y="94.55" width="10.59" height="0.21"/><path class="cls-8" d="M103.74,100H92.65V84.2h11.09Zm-10.6-.49h10.11V84.69H93.14Z"/><rect class="cls-6" x="86.58" y="110.2" width="56.84" height="12.72"/><polygon class="cls-5" points="144.59 33.19 85.41 33.19 88.57 19.16 141.44 19.16 144.59 33.19"/><rect class="cls-9" x="96.16" y="23.33" width="5.43" height="5.43"/><path class="cls-4" d="M95.91,23.08v6h5.94v-6Zm5.44,5.43H96.43V23.58h4.92Z"/><rect class="cls-4" x="98.63" y="23.33" width="0.49" height="5.43"/><rect class="cls-4" x="94.83" y="22.06" width="7.86" height="1.14"/><rect class="cls-9" x="112.32" y="23.33" width="5.43" height="5.43"/><path class="cls-4" d="M112.06,23.08v6H118v-6Zm5.43,5.43h-5V23.58h4.92Z"/><rect class="cls-4" x="114.79" y="23.33" width="0.49" height="5.43"/><rect class="cls-4" x="110.93" y="22.06" width="7.86" height="1.14"/><rect class="cls-9" x="128.41" y="23.33" width="5.43" height="5.43"/><path class="cls-4" d="M128.16,23.08v6h5.94v-6Zm5.43,5.43h-4.92V23.58h4.92Z"/><rect class="cls-4" x="130.88" y="23.33" width="0.49" height="5.43"/><rect class="cls-4" x="127.02" y="22.06" width="7.86" height="1.14"/><g id="man"><path class="cls-10" d="M115.64,72.35a3.46,3.46,0,0,0,1.25,1.8,1.92,1.92,0,0,1,.8.58l.45-.27.55-.31V74l-.12-.39a.53.53,0,0,1-.07-.49,1.12,1.12,0,0,0-.09-.93c-.17-.26-.35-.89-.45-.87s.12.91,0,1a.19.19,0,0,1-.24.08h0c-.71-.31-1.58-2-2-1.78A3.54,3.54,0,0,0,115.64,72.35Z"/><rect class="cls-11" x="116.32" y="69.31" width="1.38" height="4.28" rx="0.14" transform="translate(-19.78 80.68) rotate(-35.27)"/><path class="cls-12" d="M117.29,74l-.52.37a.11.11,0,0,1-.15,0L114.29,71a.12.12,0,0,1,0-.16l.52-.36a.11.11,0,0,1,.15,0l2.36,3.29a.11.11,0,0,1,0,.15Z"/><path class="cls-12" d="M130.94,68.7s-4.55,7.93-6.2,9.39l-6-4.51a2.24,2.24,0,0,0-1.27,1.15s4.66,7.49,7.3,7.81c3.6.41,8.7-9,8.7-9Z"/><path class="cls-13" d="M139.44,122.8h2.63a1.65,1.65,0,0,0,.72-1.21c.12-.84,1.08-1.3,1.28-2s-.84-1.67-.84-1.67l-.19-.22-.18-.24-1.74.41s-.05.42-.07.94,0,.81,0,1.21c0,.93-.25,1.93-1.08,2.11C139.35,122.26,139.38,122.59,139.44,122.8Z"/><path class="cls-13" d="M126,122.67h6a4.27,4.27,0,0,0,.13-2,.28.28,0,0,0,0-.13s-2-1.64-2.33-.38v.11c-.36,1.18-1.95,1.71-2.87,1.86A1,1,0,0,0,126,122.67Z"/><path class="cls-14" d="M127.12,89.12s.32,3.88.68,8.56c.5,6.34,1.1,14.14,1.16,15.62.1,2.57.51,6.67.51,6.67a3.19,3.19,0,0,0,2.93.56,66.72,66.72,0,0,0,2.23-12.06v-.3c.45-6.3,1.18-19.59,1.18-19.59Z"/><path class="cls-15" d="M127.12,89.12s.32,3.88.68,8.56l6.83,10.79v-.3c.45-6.3,1.18-19.59,1.18-19.59Z"/><path class="cls-14" d="M128.65,88.47s4.71,14.38,8,21.18,4.27,8.73,4.27,8.73,2.12-.73,2.34-1.29c0,0-1.12-12-3.37-15.26-1.27-1.84-2.12-8.13-2.1-9.93s-.18-5.52-.18-5.52Z"/><path class="cls-10" d="M130,69c2.2.7,6-1.17,6-1.17A5.7,5.7,0,0,1,134,63.19l-1.7,1.37-1.16.93a12.3,12.3,0,0,0,.13,1.5h0a1.34,1.34,0,0,1-.52,1.25A4.49,4.49,0,0,0,130,69Z"/><path class="cls-16" d="M131.17,65.49a12.3,12.3,0,0,0,.13,1.5c1.28-.21,2.73-2.28,2.73-2.28a4.08,4.08,0,0,0-1.7-.15Z"/><path class="cls-10" d="M130.5,65.44s3.63.6,4-1.67,1-3.71-1.26-4.19-2.87.31-3.18,1S129.56,65.22,130.5,65.44Z"/><path class="cls-11" d="M126.88,89.43a.33.33,0,0,0,.23.09,37.13,37.13,0,0,0,5.27.25,15.28,15.28,0,0,0,4.86-1.42c.21-.09.71-.35.7-.6a11.18,11.18,0,0,0-.06-1.13,58.14,58.14,0,0,1-.12-7.92c0-.62.05-1.24.05-1.84,0-4.52-.88-8.51-2.69-9.85-.15-.11-1.09.35-2,.77a3,3,0,0,1-2.17.29l-1,.68a7.53,7.53,0,0,0-2.38,3.79,42.64,42.64,0,0,0-.71,7c0,1.27-.1,2.56-.11,3.78h0v.38C126.77,86.91,126.83,89.39,126.88,89.43Z"/><path class="cls-12" d="M137.88,86.62a58.14,58.14,0,0,1-.12-7.92c0-.62.05-1.24.05-1.84-.75-1.83-1.36-3.14-1.36-3.14h-1.9S133.16,83.2,137.88,86.62Z"/><path class="cls-11" d="M134.47,63.55s-.37-.06-.31-.58.06-1.17-.36-1-.43.47-.61.26-.17-1-1.41-1.07-1.75.38-2.32.13-.61-1.13-.61-1.13a1,1,0,0,0,.41.41s-1-1.32.15-2.22,2.26-.31,2.9-.28c1.42.1,2.34.18,2.79,1.11S135.38,62.66,134.47,63.55Z"/><path class="cls-17" d="M162.09,121.08a1.82,1.82,0,0,0,1.18,1.82,1.08,1.08,0,0,0,1.47-.41,1.21,1.21,0,0,0,.11-.32,1.82,1.82,0,0,0-1.18-1.82,1.07,1.07,0,0,0-1.46.41A1,1,0,0,0,162.09,121.08Z"/><path class="cls-17" d="M152.39,121.1a1.82,1.82,0,0,0,1.18,1.82,1.08,1.08,0,0,0,1.47-.41,1.21,1.21,0,0,0,.11-.32,1.8,1.8,0,0,0-1.17-1.82,1.09,1.09,0,0,0-1.48.42A1.15,1.15,0,0,0,152.39,121.1Z"/><path class="cls-18" d="M164.83,120.91l-1.74.71a1.4,1.4,0,0,1-.57.1l-10.93-.09-1.71-2Z"/><path class="cls-17" d="M153.64,97.48l-4.18-6.1h0s-.7-1.36-4.24-1.72h0l-2.92-.39a4,4,0,0,0-2,.06.45.45,0,0,0-.24.55,70.46,70.46,0,0,0,4.71,7l-.55.14c-.47-.65-4.63-6.41-4.76-7.12A.74.74,0,0,1,140,89a5.25,5.25,0,0,1,2.49-.13l2.87.4c3.82.37,4.66,1.82,4.74,2l4.17,6.1Z"/><path class="cls-18" d="M146.47,96.26l-5.57,1.22s-1.54.73-.41,3.81c1,2.71,6.23,17.94,6.23,17.94s1.08,3.17,7.45,2.24Z"/><path class="cls-19" d="M144.29,100.46l6,17a5.19,5.19,0,0,0,1.15,1.86,5,5,0,0,0,3.47,1.63h9a3.4,3.4,0,0,0,1-.13l.21-.07a2.75,2.75,0,0,0,1.76-2.62,4.21,4.21,0,0,0-.33-1.64l-6.66-16.27A5.29,5.29,0,0,0,155.62,97l-1-.11h-.43l-3.31-.3h-.4l-3.19-.3a3.36,3.36,0,0,0-1.37.14h-.07l-.16.06A3,3,0,0,0,144.29,100.46Z"/><g class="cls-20"><path class="cls-18" d="M151.39,119.37a4.92,4.92,0,0,0,3.47,1.63h9a3.4,3.4,0,0,0,1-.13l.21-.07a3,3,0,0,0,1.68-3.44s-11.58-.13-13.89.25A1.78,1.78,0,0,0,151.39,119.37Z"/></g><path class="cls-18" d="M154.22,96.89s3,1.6,3.65,3,7.27,18.08,7.34,18.24a3.35,3.35,0,0,1-.52,2.83h.16l.21-.07a3.08,3.08,0,0,0,.34-2.75c-.27-.68-6.63-16.82-7.34-18.3-.63-1.26-2.73-2.51-3.4-2.9h-.24Z"/><path class="cls-18" d="M150.49,96.55a7.25,7.25,0,0,1,2.91,3.33c.95,2.35,6.68,19.39,6.74,19.56h0a1.85,1.85,0,0,1,0,1.56h.27a1.89,1.89,0,0,0-.12-1.61c-.18-.52-5.81-17.23-6.75-19.56a7.34,7.34,0,0,0-2.7-3.26Z"/><path class="cls-18" d="M145.7,96.48a6.58,6.58,0,0,1,1.2.83,6.71,6.71,0,0,1,1.75,2.49c.95,2.34,6.39,19.32,6.44,19.5h0A2.27,2.27,0,0,1,155,121h.35a2.63,2.63,0,0,0-.08-1.73c-.18-.54-5.5-17.18-6.44-19.5a6.86,6.86,0,0,0-2.92-3.39h-.07Z"/><path class="cls-10" d="M141.72,85.9s.25,1.74.26,2c.12,1.54-.1,1.68.73,2a1.29,1.29,0,0,0,1.22-.37s-.58,0-.48-.87.05-.71-.54-1.49l-.13-1.45Z"/><path class="cls-11" d="M142.51,87.38a6.73,6.73,0,0,1-1.42.08s-2-6.25-2.29-6.82-6-7.33-6-7.33l2.4-6S141.41,77.7,142,79.16c1,2.41,1.41,7.82,1.41,7.82A2.61,2.61,0,0,1,142.51,87.38Z"/><path class="cls-10" d="M142,87.86a3,3,0,0,0-.15.57c0,.57-.18.84-.08.89s.43-.35.5-.73A.88.88,0,0,0,142,87.86Z"/></g><rect class="cls-8" x="68.27" y="80.65" width="1.11" height="22.79" transform="translate(-40.95 126.06) rotate(-70.43)"/><rect class="cls-8" x="67.57" y="82.64" width="1.11" height="22.79" transform="translate(-43.3 126.72) rotate(-70.43)"/><rect class="cls-8" x="66.85" y="84.62" width="1.11" height="22.79" transform="translate(-45.63 127.36) rotate(-70.43)"/><rect class="cls-8" x="69.9" y="91.92" width="0.98" height="14.93" transform="translate(-46.83 132.41) rotate(-70.43)"/><rect class="cls-8" x="47.49" y="47.69" width="24.69" height="58.18" transform="translate(-36.96 66.49) rotate(-46)"/><rect class="cls-3" x="48.09" y="51.99" width="0.68" height="14.34" transform="translate(-27.77 52.9) rotate(-46)"/><rect class="cls-3" x="46.78" y="53.35" width="0.68" height="14.34" transform="translate(-29.14 52.37) rotate(-46)"/><rect class="cls-3" x="44.04" y="55.31" width="0.68" height="10.37" transform="translate(-29.97 50.39) rotate(-46)"/><rect class="cls-3" x="42.73" y="56.68" width="0.68" height="10.37" transform="translate(-31.35 49.87) rotate(-46)"/><rect class="cls-3" x="46.83" y="56.57" width="3" height="35.95" transform="translate(-38.87 57.52) rotate(-46)"/><circle class="cls-5" cx="55.26" cy="70.25" r="5.08"/><rect class="cls-5" x="64.68" y="40.39" width="4.4" height="58.18" transform="translate(-29.56 69.33) rotate(-46)"/><rect class="cls-8" x="66.78" y="41.15" width="1.32" height="55.89" transform="translate(-29.11 69.61) rotate(-46)"/><rect class="cls-5" x="52.22" y="54.98" width="1.16" height="58.18" transform="translate(-44.35 63.65) rotate(-46)"/><rect class="cls-8" x="74.51" y="73.64" width="1.11" height="22.79" transform="translate(-38.25 79.96) rotate(-46)"/><rect class="cls-8" x="73.04" y="75.15" width="1.11" height="22.79" transform="translate(-39.78 79.37) rotate(-46)"/><rect class="cls-8" x="71.58" y="76.67" width="1.11" height="22.79" transform="translate(-41.32 78.78) rotate(-46)"/><rect class="cls-8" x="72.97" y="84.89" width="0.98" height="14.93" transform="translate(-44 81.04) rotate(-46)"/><path class="cls-8" d="M58.64,69.24a4.24,4.24,0,0,1-1.13.89h0l-1,.18-.07.25-.5.09-.33-.17L53,71h0l-.08.77-.46.07L52.36,71h0a.19.19,0,0,1-.11-.14h0l-.45-.27.24-.07.61.07L55,70l-1.17-.83.75-.23,1.49.74,1.29-.37C57.63,69.18,58.75,69,58.64,69.24Z"/><rect class="cls-18" x="61.39" y="44.54" width="44.72" height="77.97" rx="4.15"/><path class="cls-4" d="M102,123H65.53a4.67,4.67,0,0,1-4.67-4.66V48.68A4.67,4.67,0,0,1,65.53,44H102a4.67,4.67,0,0,1,4.66,4.67v69.69A4.65,4.65,0,0,1,102,123Zm-36.4-78a3.63,3.63,0,0,0-3.62,3.62v69.69A3.63,3.63,0,0,0,65.56,122H102a3.63,3.63,0,0,0,3.63-3.62V48.68A3.63,3.63,0,0,0,102,45.05Z"/><path class="cls-21" d="M102.17,89v25.79a3,3,0,0,1-3,3.05h-30a3,3,0,0,1-3-3.05V89a3,3,0,0,1,3-3h30a4.62,4.62,0,0,1,.65.07A3,3,0,0,1,102.17,89Z"/><rect class="cls-21" x="65.99" y="68.56" width="36.19" height="14.76" rx="2.1"/><path class="cls-11" d="M87.7,74.33H79a.18.18,0,0,1-.2-.18h0A.19.19,0,0,1,79,74h8.73a.2.2,0,0,1,.2.19h0a.19.19,0,0,1-.2.19Z"/><path class="cls-11" d="M93.54,75.75H79a.19.19,0,0,1-.2-.19h0a.19.19,0,0,1,.19-.19H93.54a.17.17,0,0,1,.19.17v0h0a.19.19,0,0,1-.17.2Z"/><rect class="cls-22" x="68.49" y="72.11" width="8.35" height="8.35"/><polygon class="cls-23" points="70.04 78.27 71.86 74.98 73.2 76.81 73.88 76.08 75.29 78.27 70.04 78.27"/><path class="cls-23" d="M72.74,74.51a.47.47,0,1,1,.46.47h0A.47.47,0,0,1,72.74,74.51Z"/><polygon class="cls-5" points="80.88 78.12 82.09 78.3 81.22 79.14 81.42 80.34 80.35 79.77 79.28 80.34 79.48 79.14 78.6 78.3 79.8 78.12 80.34 77.03 80.88 78.12"/><polygon class="cls-5" points="85.05 78.12 86.25 78.3 85.39 79.14 85.59 80.34 84.51 79.77 83.44 80.34 83.65 79.14 82.77 78.3 83.97 78.12 84.51 77.03 85.05 78.12"/><polygon class="cls-5" points="89.22 78.12 90.42 78.3 89.55 79.14 89.76 80.34 88.68 79.77 87.6 80.34 87.81 79.14 86.94 78.3 88.14 78.12 88.68 77.03 89.22 78.12"/><polygon class="cls-5" points="93.39 78.12 94.59 78.3 93.71 79.14 93.93 80.34 92.85 79.77 91.77 80.34 91.97 79.14 91.1 78.3 92.31 78.12 92.85 77.03 93.39 78.12"/><polygon class="cls-5" points="97.55 78.12 98.75 78.3 97.88 79.14 98.08 80.34 97.01 79.77 95.94 80.34 96.14 79.14 95.27 78.3 96.47 78.12 97.01 77.03 97.55 78.12"/><rect class="cls-21" x="65.99" y="51.45" width="36.19" height="14.76" rx="2.1"/><path class="cls-11" d="M87.7,57.23H79a.2.2,0,0,1-.2-.2h0a.2.2,0,0,1,.2-.2h8.73a.22.22,0,0,1,.2.2h0A.2.2,0,0,1,87.7,57.23Z"/><path class="cls-11" d="M93.54,58.63H79a.18.18,0,0,1-.2-.18h0a.19.19,0,0,1,.2-.19H93.54a.18.18,0,0,1,.19.19h0a.17.17,0,0,1-.17.19Z"/><rect class="cls-22" x="68.49" y="54.99" width="8.35" height="8.35"/><polygon class="cls-23" points="70.04 61.16 71.86 57.87 73.2 59.7 73.88 58.97 75.29 61.16 70.04 61.16"/><path class="cls-23" d="M72.74,57.4a.47.47,0,0,1,.93,0,.47.47,0,0,1-.47.47h0A.47.47,0,0,1,72.74,57.4Z"/><polygon class="cls-5" points="80.88 61.01 82.09 61.19 81.22 62.03 81.42 63.23 80.35 62.67 79.28 63.23 79.48 62.04 78.6 61.19 79.8 61.01 80.34 59.92 80.88 61.01"/><polygon class="cls-5" points="85.05 61.01 86.25 61.19 85.39 62.03 85.59 63.23 84.51 62.67 83.44 63.23 83.65 62.04 82.77 61.19 83.97 61.01 84.51 59.92 85.05 61.01"/><polygon class="cls-5" points="89.22 61.01 90.42 61.19 89.55 62.03 89.76 63.23 88.68 62.67 87.6 63.23 87.81 62.04 86.94 61.19 88.14 61.01 88.68 59.92 89.22 61.01"/><polygon class="cls-5" points="93.39 61.01 94.59 61.19 93.71 62.03 93.93 63.23 92.85 62.67 91.77 63.23 91.97 62.04 91.1 61.19 92.31 61.01 92.85 59.92 93.39 61.01"/><polygon class="cls-5" points="97.55 61.01 98.75 61.19 97.88 62.03 98.08 63.23 97.01 62.67 95.94 63.23 96.14 62.04 95.27 61.19 96.47 61.01 97.01 59.92 97.55 61.01"/><g class="cls-24"><path class="cls-18" d="M79.51,95.74h-.85a5.46,5.46,0,0,0-5.34,5.46,4,4,0,0,0,.07.85,5.45,5.45,0,0,0,5.27,4.61h.13a4.33,4.33,0,0,0,.72,0,5.48,5.48,0,0,0,4.68-4.57,5.93,5.93,0,0,0,.06-.84A5.48,5.48,0,0,0,79.51,95.74Zm0,9a3.51,3.51,0,0,1-.72.07h-.13A3.68,3.68,0,0,1,75.2,102a3.46,3.46,0,0,1-.09-.85,3.67,3.67,0,0,1,3.55-3.68h.13a3.51,3.51,0,0,1,.72.07,3.7,3.7,0,0,1,3,3.61,4,4,0,0,1-.1.85A3.68,3.68,0,0,1,79.51,104.77Z"/><path class="cls-18" d="M75.11,101.16a3.46,3.46,0,0,0,.09.85H68.43v-.85Z"/><path class="cls-18" d="M99.73,101.16V102H82.37a4,4,0,0,0,.1-.85Z"/><path class="cls-18" d="M79.51,87.08V97.55a3.51,3.51,0,0,0-.72-.07h-.13V87.08Z"/><path class="cls-18" d="M79.51,104.77v11.32h-.85V104.84h.13A3.51,3.51,0,0,0,79.51,104.77Z"/><polygon class="cls-18" points="98.89 87.08 98.89 101.74 98.89 102.54 99.73 102.54 99.73 101.74 99.73 87.14 98.89 87.08"/><rect class="cls-18" x="89.31" y="87.08" width="0.84" height="29.01"/><rect class="cls-18" x="80.63" y="88.16" width="4.2" height="6.52"/><rect class="cls-18" x="68.43" y="93.06" width="4.09" height="4.69"/><rect class="cls-18" x="68.43" y="88.16" width="8.24" height="4.09"/><rect class="cls-18" x="85.53" y="88.16" width="2.94" height="4.05"/><rect class="cls-18" x="85.53" y="93.06" width="2.94" height="6.77"/><rect class="cls-18" x="85.53" y="102.81" width="2.94" height="4.01"/><rect class="cls-18" x="92.04" y="88.16" width="2.37" height="11.67"/><rect class="cls-18" x="95.18" y="88.16" width="2.94" height="11.67"/><rect class="cls-18" x="91.59" y="103.24" width="8.14" height="12.85"/><rect class="cls-18" x="80.36" y="111.23" width="8.1" height="4.86"/><rect class="cls-18" x="80.36" y="107.74" width="8.1" height="2.57"/><rect class="cls-18" x="68.43" y="107.74" width="7.28" height="8.36"/><rect class="cls-18" x="68.43" y="102.47" width="3.06" height="4.5"/></g><path class="cls-4" d="M100.57,49.38a.47.47,0,0,0-.94,0v0a.47.47,0,0,0,.47.47A.49.49,0,0,0,100.57,49.38Z"/><path class="cls-4" d="M100.93,48.84h-.1a1,1,0,0,0-.76-.33,1.09,1.09,0,0,0-.68.32.17.17,0,0,1-.23,0,.14.14,0,0,1,0-.2h0a1.43,1.43,0,0,1,.91-.44,1.38,1.38,0,0,1,1,.43.14.14,0,0,1,0,.21A.12.12,0,0,1,100.93,48.84Z"/><path class="cls-4" d="M101.42,48.17a.12.12,0,0,1-.1-.05,1.75,1.75,0,0,0-1.27-.55,1.85,1.85,0,0,0-1.15.54.17.17,0,0,1-.23,0,.18.18,0,0,1,0-.22,1.91,1.91,0,0,1,2.7-.17l.17.17a.16.16,0,0,1,0,.22A.23.23,0,0,1,101.42,48.17Z"/><path class="cls-4" d="M101.94,47.51a.2.2,0,0,1-.11,0,2.28,2.28,0,0,0-3.44,0,.18.18,0,0,1-.22,0,.16.16,0,0,1,0-.22A2.88,2.88,0,0,1,100,46.4a2.75,2.75,0,0,1,2,.88.16.16,0,0,1,0,.22A.14.14,0,0,1,101.94,47.51Z"/><path class="cls-4" d="M70,47.35H67a.2.2,0,0,1-.2-.19h0A.19.19,0,0,1,67,47H70a.21.21,0,0,1,.21.18v0h0a.2.2,0,0,1-.2.2Z"/><path class="cls-4" d="M70,48.26H67a.2.2,0,0,1-.2-.2h0a.2.2,0,0,1,.2-.2h3a.21.21,0,0,1,.21.2h0A.21.21,0,0,1,70,48.26Z"/><path class="cls-4" d="M70,49.22H67a.2.2,0,0,1-.2-.18v0h0a.19.19,0,0,1,.19-.2H70a.21.21,0,0,1,.21.18v0h0a.21.21,0,0,1-.19.2Z"/><circle class="cls-21" cx="86.51" cy="95.25" r="7.46"/><path class="cls-25" d="M75.32,96.29c.21,6.44,11.39,16.35,11.39,16.35S97.19,102,97,95.57,91.74,84.08,85.79,84.29,75.11,89.87,75.32,96.29Zm4.42-.83a6.39,6.39,0,1,1,6.6,6.17A6.39,6.39,0,0,1,79.74,95.46Z"/><path class="cls-26" d="M155,43V38.46h.59V42q0,.72.78.72h.07s.07.08.07.25v.08c0,.2,0,.3-.07.3h-.08a1.07,1.07,0,0,1-.79-.26,1.86,1.86,0,0,1-2.05,2c-1.32,0-2-.64-2-1.91a3.93,3.93,0,0,1,.06-.69,5.83,5.83,0,0,1,.22-.71l.54.23a3.21,3.21,0,0,0-.23,1.17c0,.87.46,1.3,1.39,1.3A1.32,1.32,0,0,0,155,43Z"/><path class="cls-26" d="M159,43.07c0,.2,0,.3-.07.3h0a1,1,0,0,1-.93-.48,1.34,1.34,0,0,1-1.18.48h-.36c-.13,0-.19-.1-.19-.3V43c0-.17.06-.26.19-.26h.34c.53,0,.82-.15.88-.45a2.3,2.3,0,0,0,0-.28c0-.12,0-.23,0-.33l0-.28.56-.06.06.79a.57.57,0,0,0,.65.61h0s.07.1.07.29Zm-2.58-3,.5-.5.5.5-.5.5Zm1.11,0,.5-.5.5.5-.5.5Z"/><path class="cls-26" d="M159.18,43.37h-.35c-.13,0-.2-.1-.2-.3V43c0-.17.07-.26.2-.26h1.08a1.27,1.27,0,0,1-.24-.2,1,1,0,0,1-.25-.68,1.07,1.07,0,0,1,.29-.75,1.11,1.11,0,0,1,.9-.41,1.15,1.15,0,0,1,.85.32.92.92,0,0,1,.3.69,1.05,1.05,0,0,1-.54.95c.36.05.6.08.71.08a1.15,1.15,0,0,0,.36-.05.55.55,0,0,0,.37-.54c0-.55-.64-1.14-1.95-1.76l.3-.53c1.52.74,2.28,1.51,2.26,2.3a1.19,1.19,0,0,1-.3.83,1.34,1.34,0,0,1-1,.38,4.25,4.25,0,0,1-1.31-.25A5.06,5.06,0,0,1,159.18,43.37Zm1.8-1.14a.74.74,0,0,0,.24-.49.39.39,0,0,0-.1-.29.62.62,0,0,0-.47-.2.57.57,0,0,0-.53.3.67.67,0,0,0-.09.33.55.55,0,0,0,.21.4,1.28,1.28,0,0,0,.21.14l.17.06.1,0A1.79,1.79,0,0,0,161,42.23Z"/></g></g><rect class="cls-27" width="199" height="129"/></g></g></svg>