<svg xmlns="http://www.w3.org/2000/svg" viewBox="0 0 199 129"><defs><style>.cls-1{fill:#87cafd;isolation:isolate;opacity:0.21;}.cls-2{fill:#2d3554;}.cls-3{fill:#f5f5f5;}.cls-4{fill:#f7b279;}.cls-5{fill:#e1e1e1;}.cls-6{fill:#ececec;}.cls-7{fill:#fafafa;}.cls-8{opacity:0.6;}.cls-9{fill:#1a2e35;}.cls-10{fill:#24468d;}.cls-11{fill:#6fb7f1;}.cls-12{fill:#f97600;}.cls-13{fill:#fff;}.cls-14{opacity:0.1;}.cls-15{fill:#fd8f2b;}.cls-16{fill:#1e3865;}.cls-17{fill:#25468f;}.cls-18{fill:#ffae73;}.cls-19{fill:#ff912b;}.cls-20{fill:#f48f4e;}.cls-21{fill:#2a3967;}.cls-22{fill:#3c5ca9;}.cls-23{fill:#c5ddff;}.cls-24{fill:#7db0ff;}.cls-25{fill:#518dee;}.cls-26{fill:#6b98f6;}.cls-27{fill:none;}</style></defs><g id="Layer_2" data-name="Layer 2"><g id="Layer_1-2" data-name="Layer 1"><path class="cls-1" d="M11.49,122.4h175c5.79-14.63,5.79-21.73,6.43-30.13C196.54,46,167.22,38.92,158.63,37,132.28,31.08,144.28,1.87,75.74,7.35c-6.28.5-21.1,4.56-26.2,7.19-3.58,1.84-17.07,10.08-21,24a29.61,29.61,0,0,0-.29,14.87c4.46,19.51-7.17,18.39-15.67,27.68C1.21,93.52,2.4,113.81,11.49,122.4Z"/><rect class="cls-2" x="2.38" y="121.87" width="192.83" height="0.53" rx="0.22"/><rect class="cls-3" x="35.38" y="52.92" width="12.28" height="15.36" transform="translate(-23.03 95.67) rotate(-84.1)"/><rect class="cls-4" x="36.14" y="53.46" width="10.74" height="14.29" transform="translate(-23.04 95.67) rotate(-84.1)"/><polygon class="cls-5" points="33.85 65.21 39.5 59.08 42.14 63.55 44.46 61.55 48.07 66.67 33.85 65.21"/><path class="cls-5" d="M44,58.73a1.13,1.13,0,1,1-1-1.24h0a1.11,1.11,0,0,1,1,1.23Z"/><rect class="cls-3" x="143.3" y="68.98" width="15.62" height="19.55" transform="translate(51.25 216.82) rotate(-81.65)"/><rect class="cls-6" x="144.28" y="69.65" width="13.65" height="18.17" transform="translate(51.25 216.81) rotate(-81.65)"/><polygon class="cls-5" points="141.13 84.18 148.64 76.71 151.76 82.53 154.81 80.11 159.1 86.82 141.13 84.18"/><path class="cls-5" d="M154.33,76.49a1.43,1.43,0,1,1-1.26-1.59h.05A1.43,1.43,0,0,1,154.33,76.49Z"/><rect class="cls-3" x="50.54" y="95.84" width="11.09" height="8.87" transform="translate(-40.55 38.12) rotate(-28.03)"/><rect class="cls-6" x="50.92" y="96.4" width="10.31" height="7.75" transform="translate(-40.55 38.12) rotate(-28.03)"/><polygon class="cls-5" points="53.35 106.12 54.27 100.17 57.66 101.79 58.24 99.66 62.46 101.28 53.35 106.12"/><path class="cls-5" d="M56.8,98.16a.8.8,0,0,1-.32,1.09h0a.81.81,0,0,1-1.1-.34.81.81,0,0,1,1.43-.78Z"/><path class="cls-7" d="M139.49,50.09a20.82,20.82,0,0,1-.73-2.71,1.76,1.76,0,0,0-.82-1.23,8.2,8.2,0,0,0-1-.23c-1.16-.33-1.47-2-2.57-2.45a3.72,3.72,0,0,0-1.09-.23,5.7,5.7,0,0,1-3.9-1.83,6.94,6.94,0,0,0-.86-1.1,1.06,1.06,0,0,0-1.31-.12l.91,1.84a4.84,4.84,0,0,0,1,1.54,1.67,1.67,0,0,0,1.72.37,1,1,0,0,1,.57-.21.62.62,0,0,1,.37.24,2.54,2.54,0,0,1-.23,3.25,7.45,7.45,0,0,1-3,1.8,2.24,2.24,0,0,1-1.22.23c-.77-.13-1.18-1-1.4-1.72-.5-1.65-.74-3.44-1.77-4.83a6.07,6.07,0,0,1-.93-1.36,7.32,7.32,0,0,0-.49-1.69c-.34-.48-1.11-.81-1.11-1.42a1.13,1.13,0,0,1,.72-1c.4-.2.84-.25,1.25-.41.16-.07.34-.19.34-.36s-.35-.36-.45-.6.18-.53.3-.79c.25-.61-.38-1.22-1-1.47s-1.34-.42-1.62-1a3.87,3.87,0,0,1-.2-.88,1.92,1.92,0,0,0-1.44-1.6,1.28,1.28,0,0,0-1.48,1,1.94,1.94,0,0,0,0,.24,5.33,5.33,0,0,0,.56,1.12c.16.38.12,1-.28,1.07-.64.2-1.27-1-1.81-.58l.66,2.28c-.86.44-1.88-.34-2.23-1.23s-.38-1.9-.81-2.75-1.6-1.49-2.38-.9c0,1.1,1.41,1.54,2.05,2.43a1.49,1.49,0,0,1-.28,2.09h0c-.68.4-1.76-.31-1.5-1.06a3,3,0,0,0,.34-.75,1.13,1.13,0,0,0-.54-.84c-.4-.36-.82-.7-1.23-1a2.71,2.71,0,0,0-.88-.55,2.09,2.09,0,0,0-2.16,1.2,11.16,11.16,0,0,1-1.32,2.3,2.43,2.43,0,0,1-3.43,0h0a2,2,0,0,1,.23-2.79,1.85,1.85,0,0,1,.59-.35c.47-.13,1.07-.12,1.31-.52.43-.74-.8-1.67-.37-2.41.32-.58,1.18-.32,1.82-.51s1-.82,1.34-1.36,1-1.08,1.58-.94a2.13,2.13,0,0,1,.06-1.12.7.7,0,0,1,.9-.39l.09.05a1.15,1.15,0,0,0,.61,1.5h0a3.38,3.38,0,0,0,1.78.12c.61-.08,1.37-.3,1.42-.9a2,2,0,0,1,0-.6c.26-.72,1.6.27,2.1-.31.3-.3,0-.83-.44-.93a4.36,4.36,0,0,0-1.25.06c-.42,0-.93-.21-1-.62s.45-.72.5-1.12c.08-.69-1.1-.87-1.51-.31a2.57,2.57,0,0,0-.14,2,2.13,2.13,0,0,1-.32,2c-.22.32-.77.15-1-.19a2.85,2.85,0,0,1-.18-1.16,1,1,0,0,0-.59-1c-.26-.08-.54.06-.82.09-1.07.13-1.82-1.25-1.47-2.28A4.3,4.3,0,0,1,110.28,18a2.4,2.4,0,0,1,2.24-.34c.32.18.54.48.86.67a3.82,3.82,0,0,0,1.84.22,4.21,4.21,0,0,1,2.67,1c.28.25.55.67.33,1s-.91.39-.79.77a1.34,1.34,0,0,0,1.65-.93l0-.15a1.1,1.1,0,0,1,.64.91,2,2,0,0,1,2.8,0c.06.07.12.13.17.2a2.81,2.81,0,0,0,.53.7c.25.16.68.08.71-.21a.66.66,0,0,0,0-.28l-.44-1.24c.57-.31,1.25.17,1.64.69,1.44,2,2.47.77,4.51,1.09,1.37.2,2,1.09,2.76,2.15,2.38,3.28,5.52,5.93,7.69,9.4.23.37.43.73.63,1.1a.75.75,0,0,0-.11-.28,37.13,37.13,0,0,0-3.14-6.39c-.27-.44-.53-.86-.81-1.28s-.36-.53-.54-.78-.46-.65-.71-1-.37-.5-.57-.75l-.43-.52a6.28,6.28,0,0,0-.47-.58l-.48-.44-.17-.19c-.18-.21-.37-.41-.56-.61l-.06-.06-.15-.17c-.16-.18-.33-.35-.49-.5s-.53-.55-.81-.8l-.7-.67-.64-.57-.64-.54-.79-.66h0c-.75-.59-1.52-1.16-2.3-1.69l-.59-.39-.6-.39-.6-.36-.61-.37-.5-.28-.25-.14c-.35-.2-.7-.39-1.07-.57l-.54-.27c-.17-.07-.46-.23-.7-.33h-.11l-.63-.29c-.3-.14-.6-.26-.91-.38s-.68-.29-1-.42-.78-.29-1.17-.41l-1.2-.4-1.21-.35c-.8-.2-1.61-.4-2.43-.57h0l-.94-.17H111a1,1,0,0,1-.42-.06c-.59-.1-1.18-.18-1.78-.24h-.21l-.6-.2-1.22-.06c-.41,0-.83,0-1.24-.06h-1.32a24.69,24.69,0,0,0-3.45.16l-.8.07-.83.1-.82.12-.83.13-.71.13c-.58.11-1.16.24-1.72.38l-.79.2-.8.21c-.44.12-.87.26-1.29.4h0l-1,.34h0q-.53.18-1,.39h-.06c-.31.12-.63.25-.94.39s-.77.32-1.14.5l-1,.45L86,14h0l-1,.58-1,.57h0l-.88.53-.32.22-.91.61-1.08.78-.93.72a38.1,38.1,0,0,0-4.77,4.56c-.53.57-1,1.17-1.51,1.77A16.8,16.8,0,0,0,72.48,26l-1,1.44a16,16,0,0,1,1-1.44h.29a4.34,4.34,0,0,0,1.64-.26,9,9,0,0,0,1.21-.93c1.08-.78,2.83-.91,3.12-2.2a11.4,11.4,0,0,1,.14-1.31c.31-.78,1.34-.88,2.17-.87.34,0,.76,0,.92.36a.88.88,0,0,1,0,.71,6.67,6.67,0,0,1-2.86,3.44c-1.08.66-2.47,1.16-2.77,2.39.15.41.9.37,1,.81s-.4.52-.56.83.3,1,.82,1a2.27,2.27,0,0,0,1.31-.75,8.47,8.47,0,0,0,2.65-3.68,3.15,3.15,0,0,1,.72-1.73,1.19,1.19,0,0,1,1.67.27,1.3,1.3,0,0,1,.16.31c.5-.27,1.26-.47,1.51,0a2.94,2.94,0,0,1,.1.58c.16.79,1.24,1.15,1.35,2s-1,1.42-2,1.55l-2.49.4a2.31,2.31,0,0,0-1,.32.81.81,0,0,0-.31,1,2.63,2.63,0,0,0,.43.45,1.32,1.32,0,0,1-.21,1.87,1.28,1.28,0,0,1-.64.28c-.34,0-.66-.12-1-.12a2.71,2.71,0,0,0-2.24,1.7A6.94,6.94,0,0,1,76,36.78c-1.26,1-3.46.73-4.07,2.2a3.57,3.57,0,0,0,0,1.89,2.56,2.56,0,0,1-.23,1.86c-.36.51-1.31.63-1.58.05a1.43,1.43,0,0,1,0-.82c.15-.91.29-1.83.44-2.74a2.72,2.72,0,0,0-.21-2,1.81,1.81,0,0,0-2.55-.08,4.55,4.55,0,0,0-1.23,2.53,10.56,10.56,0,0,1-.7,2.47h0c-.13.76-.24,1.54-.32,2.32s-.13,1.59-.16,2.41a2.2,2.2,0,0,0,.31-.3c.39-.4,1.18-2.09,1.88-1.26a.62.62,0,0,1,0,.77c-.22.28-.64.34-.81.64s.08.8.42,1a3.88,3.88,0,0,1,1,.72c.46.66,0,1.63.46,2.3s1.18.6,1.87.67h.23a3.1,3.1,0,0,1,2.67-2.88c2.57-.58,5.94,1.53,7.35,3.46,1.61,2.15,2.36,5.2,4.83,6.28,1.74.77,4.25.49,5.11,2.21.76,1.55-.58,3.28-.77,4.95a18.34,18.34,0,0,0,.32,3.38,2.87,2.87,0,0,1-1.28,3c-.58.27-1.3.23-1.76.67-.82.78-.15,2.38-1,3.16a4.34,4.34,0,0,1-1,.54c-1.85.93-1.8,3.65-1,5.53l.09.2a39,39,0,0,0,38.29,1h0A39.16,39.16,0,0,0,130.93,77a36.12,36.12,0,0,0,3-3.09c.65-.75,1.28-1.54,1.87-2.34.3-.41.59-.82.87-1.25a38,38,0,0,0,4.75-10,37.6,37.6,0,0,0,1.49-6.61c.12-.88.21-1.77.27-2.66a2.26,2.26,0,0,1-1.57.7A2.5,2.5,0,0,1,139.49,50.09Z"/><path class="cls-6" d="M94.93,19.71c-.77.47-1.18,1.34-1.78,2s-1.66,1.16-2.36.59a1.6,1.6,0,0,1-.54-1.14,2.92,2.92,0,0,1,.43-1.78c.4-.5.77-1,1.12-1.56a1.25,1.25,0,0,0-.35-1.69c-.32-.14-.71-.08-1-.29-.5-.38-.14-1.25.44-1.47a4.44,4.44,0,0,1,1.85,0c2.27.14,4-1.34,5.63-2.57,1.31-1,4.13-2.08,5.65-1.1a1.19,1.19,0,0,1,.28,1.83c-.26.19-.61.24-.85.46s-.33.69-.49,1c-.43.92-1.67,1.25-2.06,2.17-.24.57-.13,1.26-.49,1.74a2.27,2.27,0,0,1-1.28.64l-3,.7A4.19,4.19,0,0,0,94.93,19.71Z"/><path class="cls-6" d="M121.28,67.69c-1,1.48-1.15,3.31-1.43,5.06s-.73,3.6-2.07,4.76S114,78.59,113.23,77c-.41-.87-.2-1.9-.42-2.84-.28-1.22-1.25-2.16-1.71-3.32a9.09,9.09,0,0,1-.42-3.15c-.18-5.83-1.6-11.86-5.57-16.17a3.81,3.81,0,0,0-1.73-1.23,2.21,2.21,0,0,0-2.27.79,9.13,9.13,0,0,1-.87,1.32c-.85.77-2.34.22-2.9-.78a5.91,5.91,0,0,1-.43-3.39L97.26,44a3.56,3.56,0,0,1,.63-2.07c.7-.8,1.93-.84,2.78-1.47,1.11-.83,1.26-2.43,2-3.62s2.9-1.71,3.22-.36c2.32-4.94,7.44,2.41,10.48,1.86a8.19,8.19,0,0,1,2.64-.46c1.57.21,2.39,2,3,3.45l2.66,7.44a3.55,3.55,0,0,0,1.71,2.35c.72.28,1.55.07,2.27.34,1.92.69,1.3,3.7-.25,5s-3.69,2.17-4.42,4.06c-.56,1.44-.11,3.12-.71,4.53A16.84,16.84,0,0,1,121.28,67.69Z"/><path class="cls-6" d="M128.54,69.31c-.63.09-1.37-.22-1.85.2a1.91,1.91,0,0,0-.45,1,2.07,2.07,0,0,1-.89,1.22,1.36,1.36,0,0,1-1.45,0,1,1,0,0,1-.2-1.37,4.51,4.51,0,0,1,.54-.44c.83-.78.26-2.25.89-3.19.38-.55,1-1.11,1.38-1.67s.43-.77,1-.89C130.06,63.65,131.21,69,128.54,69.31Z"/><g class="cls-8"><path class="cls-9" d="M82.55,80.84l1,.64.7.44-.7-.44Z"/></g><g class="cls-8"><path class="cls-9" d="M65.27,46.86h0v0Z"/></g><path class="cls-6" d="M70.36,58.74a27.17,27.17,0,0,1,.27-3.37V53a10.16,10.16,0,0,1-2-.28.65.65,0,0,1-.37-.18.88.88,0,0,1-.08-.42c0-.87-.88-1.45-1.65-1.89a6.07,6.07,0,0,0-1.2-.59,1.22,1.22,0,0,0,0,.27,38.74,38.74,0,0,0,2.48,12.36,36.62,36.62,0,0,0,2.38,5.12c.38.71.8,1.4,1.24,2.08.54.85,1.1,1.68,1.72,2.47s1.17,1.52,1.81,2.23A38.91,38.91,0,0,0,77.74,77q1.29,1.2,2.67,2.28c-2.12-5.71-4.13-11.54-7.77-16.4C71.64,61.61,70.54,60.32,70.36,58.74Z"/><path class="cls-6" d="M70.64,51.48h-.23c-.69-.07-1.49-.11-1.87-.67s0-1.64-.45-2.3a3.86,3.86,0,0,0-1-.72c-.34-.24-.63-.68-.42-1s.6-.36.81-.64a.62.62,0,0,0,0-.77c-.7-.83-1.49.86-1.88,1.26a2.2,2.2,0,0,1-.31.3h0v2.77a6.07,6.07,0,0,1,1.2.59c.77.44,1.61,1,1.66,1.89a.87.87,0,0,0,.07.42.65.65,0,0,0,.37.18,10.16,10.16,0,0,0,2,.28"/><path class="cls-6" d="M70.58,53c0,.78.06,1.6,0,2.38a27.17,27.17,0,0,0-.27,3.37c.18,1.58,1.28,2.87,2.24,4.14,3.63,4.86,5.64,10.69,7.77,16.4h0c.39.32.79.61,1.2.9s.64.46,1,.68l1,.64.7.44-.09-.2c-.86-1.88-.91-4.6,1-5.53a4.14,4.14,0,0,0,1-.54c.82-.78.15-2.38,1-3.16.46-.44,1.18-.4,1.76-.67a2.87,2.87,0,0,0,1.28-3,18.34,18.34,0,0,1-.32-3.38c.19-1.71,1.53-3.44.77-5-.86-1.72-3.36-1.44-5.11-2.21-2.46-1.08-3.22-4.13-4.83-6.28-1.43-2-4.78-4-7.34-3.46a3.11,3.11,0,0,0-2.68,2.88"/><path class="cls-6" d="M67.72,37.13a1.81,1.81,0,0,1,2.55.08,2.72,2.72,0,0,1,.21,2c-.15.91-.29,1.83-.44,2.74a1.43,1.43,0,0,0,0,.82c.27.58,1.22.46,1.59,0a2.56,2.56,0,0,0,.22-1.86,3.57,3.57,0,0,1,0-1.89c.62-1.47,2.81-1.24,4.08-2.2a7.06,7.06,0,0,0,1.61-2.45,2.71,2.71,0,0,1,2.24-1.7c.33,0,.65.13,1,.12a1.33,1.33,0,0,0,1.13-1.51,1.28,1.28,0,0,0-.28-.64,2.24,2.24,0,0,1-.42-.45.78.78,0,0,1,.3-1,2.2,2.2,0,0,1,1-.33l2.49-.4c.92-.13,2.1-.62,2-1.53s-1.19-1.16-1.35-2a2.94,2.94,0,0,0-.1-.58c-.25-.5-1-.3-1.51,0a1.19,1.19,0,0,0-1.52-.74,1.3,1.3,0,0,0-.31.16,3.19,3.19,0,0,0-.62,1.74,8.46,8.46,0,0,1-2.71,3.65,2.31,2.31,0,0,1-1.31.74c-.52,0-1-.53-.82-1,.17-.31.61-.49.56-.83s-.81-.4-1-.81c.3-1.23,1.69-1.73,2.77-2.39a6.66,6.66,0,0,0,2.83-3.48.88.88,0,0,0,0-.71c-.16-.31-.58-.36-.92-.36-.83,0-1.86.1-2.17.87a11.9,11.9,0,0,0-.07,1.34c-.29,1.29-2,1.42-3.12,2.2a10,10,0,0,1-1.21.94,4.54,4.54,0,0,1-1.64.25h-.29c-.34.47-.68,1-1,1.44a16.41,16.41,0,0,0-.92,1.49,39.14,39.14,0,0,0-3.38,7.53c-.3.93-.57,1.87-.8,2.82s-.43,1.92-.59,2.9a10.56,10.56,0,0,0,.7-2.47A4.62,4.62,0,0,1,67.72,37.13Z"/><path class="cls-6" d="M143.14,51.05a3.93,3.93,0,0,1-1.57.71,2.51,2.51,0,0,1-2.08-1.67,20.82,20.82,0,0,1-.73-2.71,1.76,1.76,0,0,0-.82-1.23,8.2,8.2,0,0,0-1-.23c-1.16-.33-1.47-2-2.57-2.45a3.72,3.72,0,0,0-1.09-.23,5.7,5.7,0,0,1-3.9-1.83,6.94,6.94,0,0,0-.86-1.1,1.06,1.06,0,0,0-1.31-.12l.91,1.84a4.84,4.84,0,0,0,1,1.54,1.67,1.67,0,0,0,1.72.37,1,1,0,0,1,.57-.21.62.62,0,0,1,.37.24,2.54,2.54,0,0,1-.23,3.25,7.45,7.45,0,0,1-3,1.8,2.24,2.24,0,0,1-1.22.23c-.77-.13-1.18-1-1.4-1.72-.5-1.65-.74-3.44-1.77-4.83a6.07,6.07,0,0,1-.93-1.36,7.32,7.32,0,0,0-.49-1.69c-.34-.48-1.11-.81-1.11-1.42a1.13,1.13,0,0,1,.72-1c.4-.2.84-.25,1.25-.41.16-.07.34-.19.34-.36s-.35-.36-.45-.6.18-.53.3-.79c.25-.61-.38-1.22-1-1.47s-1.34-.42-1.62-1a3.87,3.87,0,0,1-.2-.88,1.92,1.92,0,0,0-1.44-1.6,1.28,1.28,0,0,0-1.48,1,1.94,1.94,0,0,0,0,.24,5.33,5.33,0,0,0,.56,1.12c.16.38.12,1-.28,1.07-.64.2-1.27-1-1.81-.58l.66,2.28c-.86.44-1.88-.34-2.23-1.23s-.38-1.9-.81-2.75-1.6-1.49-2.38-.9c0,1.1,1.41,1.54,2.05,2.43a1.49,1.49,0,0,1-.28,2.09h0c-.68.4-1.76-.31-1.5-1.06a3,3,0,0,0,.34-.75,1.13,1.13,0,0,0-.54-.84c-.4-.36-.82-.7-1.23-1a2.71,2.71,0,0,0-.88-.55,2.09,2.09,0,0,0-2.16,1.2,11.16,11.16,0,0,1-1.32,2.3,2.43,2.43,0,0,1-3.43,0h0a2,2,0,0,1,.23-2.79,1.85,1.85,0,0,1,.59-.35c.47-.13,1.07-.12,1.31-.52.43-.74-.8-1.67-.37-2.41.32-.58,1.18-.32,1.82-.51s1-.82,1.34-1.36,1-1.08,1.58-.94a2.13,2.13,0,0,1,.06-1.12.7.7,0,0,1,.9-.39l.09.05a1.15,1.15,0,0,0,.61,1.5h0a3.38,3.38,0,0,0,1.78.12c.61-.08,1.37-.3,1.42-.9a2,2,0,0,1,0-.6c.26-.72,1.6.27,2.1-.31.3-.3,0-.83-.44-.93a4.36,4.36,0,0,0-1.25.06c-.42,0-.93-.21-1-.62s.45-.72.5-1.12c.08-.69-1.1-.87-1.51-.31a2.57,2.57,0,0,0-.14,2,2.13,2.13,0,0,1-.32,2c-.22.32-.77.15-1-.19a2.85,2.85,0,0,1-.18-1.16,1,1,0,0,0-.59-1c-.26-.08-.54.06-.82.09-1.07.13-1.82-1.25-1.47-2.28A4.3,4.3,0,0,1,110.28,18a2.4,2.4,0,0,1,2.24-.34c.32.18.54.48.86.67a3.82,3.82,0,0,0,1.84.22,4.21,4.21,0,0,1,2.67,1c.28.25.55.67.33,1s-.91.39-.79.77a1.34,1.34,0,0,0,1.65-.93l0-.15a1.1,1.1,0,0,1,.64.91,2,2,0,0,1,2.8,0c.06.07.12.13.17.2a2.81,2.81,0,0,0,.53.7c.25.16.68.08.71-.21a.66.66,0,0,0,0-.28l-.44-1.24c.57-.31,1.25.17,1.64.69,1.44,2,2.47.77,4.51,1.09,1.37.2,2,1.09,2.76,2.15,2.38,3.28,5.52,5.93,7.69,9.4.23.37.43.73.63,1.1h0c.19.5.36,1,.53,1.49s.31,1,.46,1.52a31.27,31.27,0,0,1,.93,3.82s.28,2.21.34,3c0,.54.09,1.1.12,1.65s.05,1.11.05,1.67Z"/><path class="cls-9" d="M143.37,48.48V47.07a7.15,7.15,0,0,0-.06-1.08l-.11-1.36A15.5,15.5,0,0,0,143,43c-.2-1.36-.47-2.71-.8-4a39.55,39.55,0,0,0-4.33-10.45A39.75,39.75,0,0,0,128,17.37a38.64,38.64,0,0,0-7.47-4.46,37.7,37.7,0,0,0-9-2.84,39.25,39.25,0,0,0-10.09-.56,40.36,40.36,0,0,0-5.23.73A38.63,38.63,0,0,0,85.83,14a41.44,41.44,0,0,0-4.81,3,45.53,45.53,0,0,0-4.41,3.8,42.52,42.52,0,0,0-3.86,4.51,38,38,0,0,0-3.18,5.12c-.23.45-.49.9-.68,1.36l-.66,1.41c-.37,1-.76,1.9-1.07,2.88a37.91,37.91,0,0,0-1.49,6.05,39,39,0,0,0,0,12.57,38.06,38.06,0,0,0,1.49,6l.24.74.13.36.14.36.56,1.44.64,1.39c.19.47.45.91.68,1.37a38.12,38.12,0,0,0,3.18,5.13,43.54,43.54,0,0,0,3.86,4.51A44.26,44.26,0,0,0,81,79.9a40.22,40.22,0,0,0,4.81,3,38.43,38.43,0,0,0,10.31,3.76,40.29,40.29,0,0,0,5.24.74,39.15,39.15,0,0,0,10.08-.57,37.47,37.47,0,0,0,9-2.84,38.31,38.31,0,0,0,7.46-4.45A39.34,39.34,0,0,0,142.1,58c.33-1.33.6-2.69.8-4,.07-.59.15-1.14.19-1.64L143.2,51a5.83,5.83,0,0,1,.06-1.07V51l-.1,1.38c0,.49-.12,1-.19,1.64a37.88,37.88,0,0,1-2.38,9,36.72,36.72,0,0,1-2.72,5.52A39.5,39.5,0,0,1,128,79.67a39.06,39.06,0,0,1-26.61,7.9,37.59,37.59,0,0,1-5.26-.73,40.5,40.5,0,0,1-5.24-1.49A38.22,38.22,0,0,1,80.94,80a39.14,39.14,0,0,1-11.5-13.47c-.23-.46-.48-.9-.68-1.38l-.63-1.4-.57-1.44L67.41,62l-.16-.37L67,60.86a38.41,38.41,0,0,1-1.49-6.07A41.63,41.63,0,0,1,65,48.48a40.39,40.39,0,0,1,.52-6.31A38,38,0,0,1,67,36.11c.31-1,.7-2,1.08-2.9l.63-1.41c.21-.47.46-.91.68-1.37a39,39,0,0,1,3.2-5.14,41.83,41.83,0,0,1,3.88-4.52A42.19,42.19,0,0,1,80.9,17a40.41,40.41,0,0,1,4.82-3.06,41.24,41.24,0,0,1,5.15-2.26,38.25,38.25,0,0,1,10.49-2.23A39.18,39.18,0,0,1,128,17.32a39.65,39.65,0,0,1,9.89,11.15A39.33,39.33,0,0,1,143,43c.07.59.14,1.13.19,1.64l.1,1.37v1.86A2.58,2.58,0,0,1,143.37,48.48Z"/><polygon class="cls-10" points="102.25 34.85 101.93 19.53 96.71 22.21 94.49 31.43 102.25 34.85"/><polygon class="cls-10" points="96.27 41.85 90.81 44.6 88.75 44.35 92.35 41.52 95.89 40.81 96.27 41.85"/><polygon class="cls-5" points="59.11 32.63 38.6 48.56 61.68 33.7 59.11 32.63"/><path class="cls-10" d="M71.92,36.94c-.3.15-30.05,12-30.05,12l-3.29-.36,22.6-16Z"/><rect class="cls-11" x="63.94" y="37.06" width="1.78" height="4.44" rx="0.87" transform="translate(3.98 84.48) rotate(-67.82)"/><rect class="cls-11" x="49.71" y="43.85" width="1.78" height="4.44" rx="0.87" transform="translate(-11.17 75.53) rotate(-67.82)"/><path class="cls-12" d="M53,34.53s8.9,1.23,7.69,5.94-10.08-.25-10.08-.25-1.31-.75-.8-3.25A3.14,3.14,0,0,1,53,34.53Z"/><path class="cls-10" d="M50.57,36.8a3,3,0,0,1,1-1.55,1.4,1.4,0,0,1,1.7-.06l.24.15A2.53,2.53,0,0,1,54,38l.09-.28a3.86,3.86,0,0,1-1.51,2.4,1.44,1.44,0,0,1-.71.32A1.23,1.23,0,0,1,51,40a2.39,2.39,0,0,1-.67-1.54A4.36,4.36,0,0,1,50.57,36.8Z"/><path class="cls-13" d="M107,36.94s3.65,3.65-3.3,4.54-19,.45-32.53-4.18S45.5,26.16,43.41,24.49c-1.56-1.26-4.07-3.42-3.17-6.52a5.27,5.27,0,0,1,3.28-3.45A15.58,15.58,0,0,1,52.85,14C58.92,15.59,107,36.94,107,36.94Z"/><path class="cls-9" d="M107,36.94l-.37-.15-1-.44-4.07-1.78L86.51,28c-6.31-2.74-13.84-6-22.24-9.52-2.11-.87-4.26-1.77-6.48-2.64-1.1-.46-2.23-.86-3.4-1.26-.58-.19-1.15-.38-1.74-.55a14.79,14.79,0,0,0-9.13.6,5.32,5.32,0,0,0-2.8,2.42,4.48,4.48,0,0,0-.26,3.7,8.17,8.17,0,0,0,2.34,3A19.06,19.06,0,0,0,46,26c2.2,1.28,4.47,2.48,6.67,3.53,4.45,2.18,8.84,4.07,13.08,5.73a110.61,110.61,0,0,0,12.27,4A84.93,84.93,0,0,0,89.06,41.3a69.81,69.81,0,0,0,9.26.49c1.37,0,2.64-.09,3.81-.19a21.09,21.09,0,0,0,3.16-.45A4.24,4.24,0,0,0,107.5,40a1.62,1.62,0,0,0,.39-.91,2.16,2.16,0,0,0-.13-.83,3.85,3.85,0,0,0-.55-1A3.28,3.28,0,0,0,107,37a3.71,3.71,0,0,1,.27.29,3.5,3.5,0,0,1,.57,1,2,2,0,0,1,.14.84,1.72,1.72,0,0,1-.39,1,4.3,4.3,0,0,1-2.24,1.19,21.29,21.29,0,0,1-3.17.48c-1.17.1-2.45.19-3.81.21A68.59,68.59,0,0,1,89,41.48a81.76,81.76,0,0,1-11.09-2,105.37,105.37,0,0,1-12.31-4.15c-4.25-1.64-8.64-3.54-13.1-5.71-2.23-1.1-4.47-2.25-6.69-3.53a19,19,0,0,1-3.21-2.2,8,8,0,0,1-2.39-3.11,4.65,4.65,0,0,1,.3-3.84,5.58,5.58,0,0,1,2.92-2.53,16.13,16.13,0,0,1,7.47-1,14.17,14.17,0,0,1,1.84.33c.6.17,1.17.38,1.75.56,1.14.44,2.28.85,3.38,1.3,2.22.87,4.37,1.77,6.48,2.65,8.4,3.52,15.92,6.8,22.23,9.57l14.92,6.59,4.06,1.82,1,.48Z"/><polygon class="cls-9" points="95.56 33.1 95.56 34.53 85.73 30.29 87.25 29.47 95.56 33.1"/><polygon class="cls-13" points="94.8 32.3 94.8 34.73 93.9 34.34 93.9 31.85 94.8 32.3"/><polygon class="cls-13" points="92.91 31.27 92.91 33.7 92.01 33.31 92.01 30.82 92.91 31.27"/><polygon class="cls-13" points="91.02 30.55 91.02 32.98 90.12 32.59 90.12 30.09 91.02 30.55"/><polygon class="cls-13" points="87.31 29.05 87.31 31.48 86.41 31.09 86.41 28.6 87.31 29.05"/><polygon class="cls-10" points="125.57 8.62 83.45 31.54 73.98 26.99 120.51 8.21 125.57 8.62"/><polyline class="cls-13" points="75.76 23.27 120.51 8.21 73.98 26.99"/><path class="cls-9" d="M74,27l.24-.1.67-.29,2.63-1.12,9.66-4L119.09,8.67l1.37-.56.08.21L88.84,19l-9.57,3.19L76.68,23,76,23.2l-.24.07.23-.09.67-.23,2.59-.9,9.54-3.25L120.47,8.11l.08.2-1.37.57L87.24,21.73l-9.69,3.88-2.64,1-.69.27Z"/><rect class="cls-11" x="104.08" y="17.38" width="1.78" height="4.44" rx="0.87" transform="translate(26.87 92.42) rotate(-53.57)"/><path class="cls-10" d="M120.76,30.55c-.14.1-13.38,6.92-13.38,6.92l-2.9-1.62,12.69-5.48Z"/><polygon class="cls-13" points="116.92 30.36 116.02 30.36 102.93 35.16 104.49 35.84 116.92 30.36"/><polygon class="cls-9" points="74.27 23.87 73.03 24.8 53.35 16.39 53.58 15.01 74.27 23.87"/><polygon class="cls-13" points="73.17 22.77 73.17 25.2 72.27 24.8 72.27 22.31 73.17 22.77"/><polygon class="cls-13" points="71.16 21.86 71.16 24.29 70.26 23.89 70.26 21.4 71.16 21.86"/><polygon class="cls-13" points="69.15 20.95 69.15 23.38 68.25 22.99 68.25 20.49 69.15 20.95"/><polygon class="cls-13" points="67.15 20.04 67.15 22.47 66.25 22.08 66.25 19.59 67.15 20.04"/><polygon class="cls-13" points="65.14 19.12 65.14 21.56 64.24 21.17 64.24 18.68 65.14 19.12"/><polygon class="cls-13" points="63.12 18.21 63.12 20.65 62.23 20.26 62.23 17.77 63.12 18.21"/><polygon class="cls-13" points="61.12 17.47 61.12 19.9 60.23 19.51 60.23 17.02 61.12 17.47"/><polygon class="cls-13" points="89.19 29.8 89.19 32.23 88.3 31.83 88.3 29.34 89.19 29.8"/><polygon class="cls-13" points="59.11 16.61 59.11 19.04 58.22 18.66 58.22 16.16 59.11 16.61"/><polygon class="cls-13" points="57.07 15.81 57.07 18.24 56.18 17.86 56.18 15.36 57.07 15.81"/><polygon class="cls-13" points="55.05 15.01 55.05 17.44 54.15 17.04 54.15 14.56 55.05 15.01"/><path class="cls-9" d="M48.94,15.19a16.05,16.05,0,0,0-5.42-.67,7.52,7.52,0,0,1,2-.58,6.76,6.76,0,0,1,3.78.22Z"/><polygon class="cls-5" points="88.75 44.35 91.26 41.59 92.46 41.69 88.75 44.35"/><path class="cls-9" d="M88.67,44.42l.07-.07,2.51-2.77h0l1.23.1h0Zm2.59-2.82-2.43,2.66,3.6-2.58Z"/><rect class="cls-11" x="95.27" y="22.07" width="1.78" height="4.44" rx="0.87" transform="translate(19.52 87.23) rotate(-53.57)"/><rect class="cls-11" x="113.4" y="12.36" width="1.78" height="4.44" rx="0.87" transform="translate(34.69 97.88) rotate(-53.57)"/><path class="cls-12" d="M86.75,18.56s8.61,2.73,6.59,7.13-9.89-2-9.89-2-1.16-1-.25-3.34A3.17,3.17,0,0,1,86.75,18.56Z"/><path class="cls-10" d="M84,20.38A3.13,3.13,0,0,1,85.16,19a1.42,1.42,0,0,1,1.7.23l.22.2a2.55,2.55,0,0,1,.06,2.66l.14-.27a3.84,3.84,0,0,1-1.89,2.11,1.33,1.33,0,0,1-.75.19,1.16,1.16,0,0,1-.81-.51,2.34,2.34,0,0,1-.4-1.62A4.42,4.42,0,0,1,84,20.38Z"/><g class="cls-14"><path d="M46.41,20.46c1.21-.34,2.3.3,3.31.9,15.82,9.53,33.5,17.15,52,17.11a1,1,0,0,1,1,.64h0a1,1,0,0,1-.56,1.36,1.15,1.15,0,0,1-.36.07,86.88,86.88,0,0,1-55.36-17c-.6-.45-1.24-1-1.14-1.8A1.6,1.6,0,0,1,46.41,20.46Z"/></g><path class="cls-12" d="M78.12,55.65a2.89,2.89,0,1,0-5.77,0,2.84,2.84,0,0,0,.39,1.45h0c.11.18.25.32.39.52l1.67,2.21a.51.51,0,0,0,.72.11.38.38,0,0,0,.11-.11l1.65-2.18a5.84,5.84,0,0,0,.42-.56h0A2.84,2.84,0,0,0,78.12,55.65Zm-2.89,1.26a1.27,1.27,0,1,1,1.27-1.27h0a1.27,1.27,0,0,1-1.27,1.27h0Z"/><path class="cls-15" d="M143,30.33a6.4,6.4,0,1,0-11.87,3.23h0c.25.42.56.72.86,1.15l3.72,4.94a1.17,1.17,0,0,0,1.64.22,1.1,1.1,0,0,0,.21-.22l3.65-4.84a14.31,14.31,0,0,0,.93-1.24h0A6.34,6.34,0,0,0,143,30.33Zm-6.41,2.78a2.82,2.82,0,1,1,2.79-2.85v0a2.81,2.81,0,0,1-2.79,2.81Z"/><path class="cls-10" d="M75.37,110.15,52.63,121.74,34,85.24,56.77,73.65a4,4,0,0,1,5.39,1.74h0l15,29.37a4,4,0,0,1-1.66,5.34Z"/><path class="cls-13" d="M62.63,102.59a6.44,6.44,0,0,1-1.31.89,6.08,6.08,0,0,1-4.8.31,6.58,6.58,0,0,1-3.73-3.26,6.41,6.41,0,0,1,2.59-8.68,6.09,6.09,0,0,1,4.82-.32,6.63,6.63,0,0,1,3.71,3.27,6.53,6.53,0,0,1,.46,4.94A6.15,6.15,0,0,1,62.63,102.59Zm-8.24-9.53a6.17,6.17,0,0,0,2.23,10.26A5.62,5.62,0,0,0,63.85,100a2.53,2.53,0,0,0,.12-.36,6.08,6.08,0,0,0-.42-4.6h0a6.18,6.18,0,0,0-3.46-3,5.74,5.74,0,0,0-4.47.29A6.13,6.13,0,0,0,54.39,93.06Z"/><rect class="cls-13" x="52.18" y="97.3" width="12.15" height="0.45" transform="translate(-37.93 37.08) rotate(-27)"/><rect class="cls-13" x="58" y="91.44" width="0.45" height="12.56" transform="translate(-38.01 37.07) rotate(-26.99)"/><path class="cls-13" d="M61.25,103.37l-.41-.15a11.55,11.55,0,0,0,.82-4.58,7.1,7.1,0,0,0-2-4.44,9.67,9.67,0,0,0-4.19-2l.12-.43a10.07,10.07,0,0,1,4.38,2,7.45,7.45,0,0,1,2.18,4.82A12,12,0,0,1,61.25,103.37Z"/><path class="cls-13" d="M61,103.58a10.38,10.38,0,0,1-4.44-2A7.4,7.4,0,0,1,54,97.05a10.82,10.82,0,0,1,1-5l.42.16a10.61,10.61,0,0,0-1,4.71,7.09,7.09,0,0,0,2.4,4.26,10.16,10.16,0,0,0,4.25,1.86Z"/><path class="cls-13" d="M59.83,93.51a13.43,13.43,0,0,1-7.54,3.33v-.46a12.83,12.83,0,0,0,8.53-4.5l.34.3A16.69,16.69,0,0,1,59.83,93.51Z"/><path class="cls-13" d="M64.43,98.92a13.19,13.19,0,0,0-8.84,4.22l-.35-.29a13.57,13.57,0,0,1,9.14-4.37Z"/><path class="cls-9" d="M54.61,120.8s-4.17-8.11-9.32-18.16S36,84.44,36.06,84.42s4.21,8.12,9.33,18.17S54.64,120.79,54.61,120.8Z"/><path class="cls-13" d="M71.88,106.66s-3.13,1.66-7,3.64-7.07,3.58-7.09,3.55,3.14-1.67,7-3.65S71.86,106.63,71.88,106.66Z"/><path class="cls-13" d="M70.82,108.88s-2.32,1.26-5.21,2.73-5.28,2.64-5.28,2.61,2.32-1.25,5.21-2.72S70.8,108.85,70.82,108.88Z"/><path class="cls-13" d="M46.42,88a.8.8,0,0,1-.33,1.07l-.08,0-.31.15.26.51-.49.25-1-2,.8-.41a.78.78,0,0,1,1.07.25A.75.75,0,0,1,46.42,88Zm-.5.25a.3.3,0,0,0-.4-.16l-.05,0-.28.14.3.57.26-.14a.31.31,0,0,0,.2-.39Z"/><path class="cls-13" d="M48.16,88.21l-.74.36.06.46-.5.25L46.76,87l.48-.25L49,88.25l-.51.26Zm-.35-.34-.54-.5.09.73Z"/><path class="cls-13" d="M48.93,88.07v-.5a1.1,1.1,0,0,0,.67-.09c.2-.1.25-.21.2-.3-.16-.31-1,.41-1.4-.31-.18-.34-.07-.76.45-1a1.16,1.16,0,0,1,.71-.14l.06.48a1.09,1.09,0,0,0-.56.09c-.2.11-.24.23-.19.32.16.29,1-.43,1.39.29.17.34.07.75-.45,1A1.5,1.5,0,0,1,48.93,88.07Z"/><path class="cls-13" d="M50.54,87.25l0-.48a1.11,1.11,0,0,0,.67-.1c.21-.1.25-.21.21-.3-.16-.31-1,.41-1.41-.31-.17-.34-.06-.75.45-1a1.29,1.29,0,0,1,.72-.15l.06.49a1.07,1.07,0,0,0-.56.09c-.21.11-.24.23-.19.32.15.3,1-.43,1.38.29.18.34.07.75-.44,1A1.44,1.44,0,0,1,50.54,87.25Z"/><path class="cls-13" d="M53.3,84.52a.77.77,0,0,1-.29,1l-.12.06-.31.15.26.51-.48.26-1-2,.8-.41a.78.78,0,0,1,1.07.26Zm-.5.26a.29.29,0,0,0-.38-.17l-.07,0-.28.14.3.56.26-.14a.3.3,0,0,0,.19-.38l0,0Z"/><path class="cls-13" d="M53.6,84.69a1.1,1.1,0,0,1,.53-1.45,1.09,1.09,0,0,1,.95,2,1.07,1.07,0,0,1-1.45-.45ZM55,84a.56.56,0,0,0-.71-.34l0,0a.55.55,0,0,0-.22.74l0,.05a.54.54,0,0,0,.7.33h.05a.56.56,0,0,0,.2-.77Z"/><path class="cls-13" d="M56.78,83.64l-.27.14.27.51-.5.25-1-2,.79-.4a.77.77,0,0,1,1.07.2.75.75,0,0,1,.07.12.73.73,0,0,1,0,.78l.68.43-.52.27Zm-.5-1-.28.14.29.57.28-.14a.3.3,0,0,0,.18-.39l0,0a.29.29,0,0,0-.37-.18l-.08,0Z"/><path class="cls-13" d="M57.7,81.92l-.54.28-.22-.44L58.5,81l.22.44-.53.27.77,1.5-.49.26Z"/><path class="cls-13" d="M68.64,93.42a1.83,1.83,0,0,1-1.33,2.23l-.06,0A2,2,0,0,1,68.64,93.42Z"/><path class="cls-13" d="M69,96.14a1.62,1.62,0,0,1-1.82,1.39h0A1.68,1.68,0,0,1,69,96.14Z"/><path class="cls-13" d="M68.68,98.5a1.73,1.73,0,0,1-2.26.91l0,0A1.8,1.8,0,0,1,68.68,98.5Z"/><path class="cls-13" d="M65.61,95.41A1.64,1.64,0,0,1,67.25,97v0A1.7,1.7,0,0,1,65.61,95.41Z"/><path class="cls-13" d="M66.19,97.19a1.24,1.24,0,0,1,.5,1.68l0,0A1.29,1.29,0,0,1,66.19,97.19Z"/><path class="cls-13" d="M67.12,91.94a1.48,1.48,0,0,1-.44,2h0A1.54,1.54,0,0,1,67.12,91.94Z"/><path class="cls-13" d="M64.57,91.72a1.41,1.41,0,0,1,1.48,1.36v0A1.48,1.48,0,0,1,64.57,91.72Z"/><path class="cls-13" d="M64.83,93.81a1.72,1.72,0,0,1,2.18,1v0A1.79,1.79,0,0,1,64.83,93.81Z"/><path class="cls-13" d="M65.57,100.28h0l.17-.17a4,4,0,0,0,.58-.66,5.8,5.8,0,0,0,.58-1.17,6.21,6.21,0,0,0,.2-.74V95.15a5.79,5.79,0,0,0-.49-1.21,5.11,5.11,0,0,0-.48-.73c-.06-.09-.12-.15-.15-.19h0l.16.18a5.11,5.11,0,0,1,.48.73,5.29,5.29,0,0,1,.49,1.21v.37l.1.16v1.85a4.79,4.79,0,0,1-.21.74,4.7,4.7,0,0,1-.59,1.16,5.18,5.18,0,0,1-.57.67l-.18.16h0Z"/><path class="cls-13" d="M49,103.45a1.83,1.83,0,0,0,2.59.17l0,0A2,2,0,0,0,49,103.45Z"/><path class="cls-13" d="M50.94,105.35a1.62,1.62,0,0,0,2.2-.65l0,0A1.69,1.69,0,0,0,50.94,105.35Z"/><path class="cls-13" d="M53.05,106.47a1.74,1.74,0,0,0,2.07-1.31v0A1.81,1.81,0,0,0,53.05,106.47Z"/><path class="cls-13" d="M52.36,102.18a1.59,1.59,0,0,0,.32,2.25l0,0A1.69,1.69,0,0,0,52.36,102.18Z"/><path class="cls-13" d="M53.46,103.68a1.22,1.22,0,0,0,1,1.38h.07A1.27,1.27,0,0,0,53.46,103.68Z"/><path class="cls-13" d="M48.67,101.36a1.45,1.45,0,0,0,1.88.83h0A1.51,1.51,0,0,0,48.67,101.36Z"/><path class="cls-13" d="M49.94,99.12a1.42,1.42,0,0,0,.23,2l0,0A1.48,1.48,0,0,0,49.94,99.12Z"/><path class="cls-13" d="M51.52,100.61a1.7,1.7,0,0,0-.45,2.37l0,0A1.79,1.79,0,0,0,51.52,100.61Z"/><path class="cls-13" d="M56.37,105h-.32a4.74,4.74,0,0,1-2.15-.14,5.66,5.66,0,0,1-.72-.28l-.18-.09h-.19l-.18-.11-.21-.13-.08-.06-.09-.07-.17-.11-.16-.14-.08-.06-.07-.07-.15-.15-.13-.14-.06-.06-.06-.08-.12-.13a5.07,5.07,0,0,1-.69-1.1,6.32,6.32,0,0,1-.32-.82,1.05,1.05,0,0,0-.06-.24h0a.51.51,0,0,0,.06.23,6.34,6.34,0,0,0,.3.83,5.53,5.53,0,0,0,.7,1.1l.12.14.06.07.07.07.13.14.14.14.07.07.08.07.16.13.17.12.08.06.09.06.17.12.19.1H53l.18.09a5.66,5.66,0,0,0,.72.28,4.67,4.67,0,0,0,1.28.19A3.69,3.69,0,0,0,56,105h.36Z"/><g id="man"><path class="cls-16" d="M122.91,59.65a19.18,19.18,0,0,1,7-1.81,4.82,4.82,0,0,1,4.94,3.31l.12.37c1,3.49.43,14-2.83,16.81s-9.25,1.59-9.25,1.59Z"/><path class="cls-17" d="M113.91,84.27l.76,9.61c.55,7.13,2.69,24.9,2.69,24.9s-.45.71,1.73.24a44.61,44.61,0,0,0,3.24-13v-.34c.52-7.08,1.33-22,1.33-22Z"/><path class="cls-16" d="M113.79,82.76l.91,11.12L122.36,106v-.34c.52-7.08,1.33-22,1.33-22Z"/><path class="cls-17" d="M115.5,81.65l13.18,37.92s1.37-.26,1.68-.87c0,0,.38-16-1.85-19.9-1.26-2.19-1.91-8.32-2-10.39-.26-6.16-.91-7.84-.91-7.84Z"/><path class="cls-16" d="M119.41,121.88h-1.07c-.37,0-.62-.16-1-.21a1,1,0,0,0-.87.21h-4.57c-.11-.16,0-.53.11-.82a.67.67,0,0,1,.43-.39,5,5,0,0,0,2.31-1,27.33,27.33,0,0,1,2.36-1.63h0a3.81,3.81,0,0,1,1.1.78c.45.37,1.2-.53,1.2-.53a1.17,1.17,0,0,1,.34,1,4.46,4.46,0,0,0,.33,1.69c.1.31.19.54.19.54S120.34,121.77,119.41,121.88Z"/><path class="cls-16" d="M119.41,121.9h-1.07c-.36-.06-.62-.18-1-.23a1,1,0,0,0-.87.21h-4.57c-.11-.16,0-.53.11-.82.14-.12.18.53.26.64a18.63,18.63,0,0,0,4-.12,2.25,2.25,0,0,1,1.72-.2,4.21,4.21,0,0,0,2.18-.41c.1.31.19.53.19.53S120.33,121.78,119.41,121.9Z"/><path class="cls-16" d="M130.36,121.88h-1.07c-.36,0-.62-.16-1-.21a1.06,1.06,0,0,0-.87.21h-4.56c-.11-.16,0-.53.11-.82a.65.65,0,0,1,.42-.39,4.93,4.93,0,0,0,2.31-1c.49-.45,2.37-1.63,2.37-1.63h0a3.92,3.92,0,0,1,1.09.78c.45.37,1.2-.53,1.2-.53a1.15,1.15,0,0,1,.35,1,4.65,4.65,0,0,0,.32,1.69c.1.31.19.54.19.54S131.29,121.77,130.36,121.88Z"/><path class="cls-16" d="M130.36,121.9h-1.07c-.35-.06-.62-.18-1-.23a1.06,1.06,0,0,0-.87.21h-4.56c-.11-.16,0-.53.11-.82.13-.12.17.53.25.64a18.73,18.73,0,0,0,4-.12,2.24,2.24,0,0,1,1.72-.2,4.16,4.16,0,0,0,2.17-.41c.1.31.19.53.19.53S131.28,121.78,130.36,121.9Z"/><path class="cls-18" d="M123.6,59.09s-4.27,2.11-6.74,1.33a5.94,5.94,0,0,1,1.67-1.36q-.09-.56-.15-1a13.12,13.12,0,0,1-.14-1.66l2.61-2.11.59-.47a7.21,7.21,0,0,0,.08,1.39v.09A6.22,6.22,0,0,0,123.6,59.09Z"/><path class="cls-19" d="M126,81.41c0,.26-.54.56-.79.67a21.51,21.51,0,0,1-3.17,1.16,15,15,0,0,1-2.3.42,39.19,39.19,0,0,1-5.93-.27.37.37,0,0,1-.26-.1c-.06,0-.1-2.84-.06-6.36v-.47c0-1.37.06-2.82.12-4.25a47.79,47.79,0,0,1,.81-7.91,9.91,9.91,0,0,1,3.63-5.21,15.65,15.65,0,0,1,4.68-1c2,1.53,3.14,6,3.12,11.09v.48a14.17,14.17,0,0,1-.06,1.59,69.55,69.55,0,0,0,.14,8.9C126,80.67,126,81.1,126,81.41Z"/><path class="cls-20" d="M121.56,55.25h0A6.06,6.06,0,0,1,118.41,58a13.12,13.12,0,0,1-.14-1.66l2.61-2.11a6.76,6.76,0,0,1,.67.92Z"/><path class="cls-18" d="M117.48,56.31s4.08.68,4.46-1.87,1.16-4.17-1.42-4.71-3.24.35-3.57,1.18S116.43,56.07,117.48,56.31Z"/><path class="cls-21" d="M121.2,53.79s.54-.55.22-.9-.49.19-.74.17-.68-.74-.72-1.39-2.39.34-3.35,0-1.78-1.59-.3-2.27c.88-.4,5.25-2.48,6.92-.37,2.12,2.69-.7,5.49-1.08,5.93s-.6.3-.6.3S120.87,54.38,121.2,53.79Z"/><path class="cls-21" d="M123.3,49.3a2.65,2.65,0,0,0-.23-1,3.69,3.69,0,0,1-.06.81C122.94,49.35,123.3,49.3,123.3,49.3Z"/><path class="cls-21" d="M123.74,48.87s-.52.05-.55.45l.18.25A.75.75,0,0,1,123.74,48.87Z"/><path class="cls-16" d="M126,71.94l.13-.78a6.91,6.91,0,0,1-4.55-2.7,8.79,8.79,0,0,1-1.64-4c-.37-2.79.36-4.37,2.25-4.84,1.69-.44,3.63.89,3.65.9l.45-.65c-.09-.07-2.27-1.54-4.3-1-1.58.41-3.36,1.72-2.83,5.73a9.55,9.55,0,0,0,1.8,4.39A7.67,7.67,0,0,0,126,71.94Z"/><path class="cls-18" d="M118.54,76.57l-.83-.4c-.3-.13-.87-.49-.91-.23s-.29.73.25.82A4.39,4.39,0,0,0,118.54,76.57Z"/><rect class="cls-22" x="114.5" y="73.78" width="1.1" height="0.95" rx="0.36" transform="translate(-16.38 35.85) rotate(-16.55)"/><rect class="cls-23" x="114.43" y="74.19" width="2.9" height="5.77" rx="0.57" transform="translate(-17.15 36.18) rotate(-16.54)"/><path class="cls-24" d="M116.68,74.62l1.24,4.24a.58.58,0,0,1-.37.72l-1.69.49a.56.56,0,0,1-.71-.39l-1.24-4.17a3.72,3.72,0,0,1,1.24-.22A3.51,3.51,0,0,0,116.68,74.62Z"/><rect class="cls-22" x="114.35" y="75.38" width="2.9" height="2.91" transform="translate(-17.08 36.15) rotate(-16.54)"/><path class="cls-18" d="M116.05,76.46c.76-.19,1.43.28,2.49.11,0,0,5.21-3.66,6.13-4.57.66-.66-2-3.65-3.38-5.93a.52.52,0,0,0,.21-.07,14.11,14.11,0,0,1,5-2,.47.47,0,0,0,.17,0,28.44,28.44,0,0,1,2.63,8.73,1.2,1.2,0,0,1-.41,1.07,27.46,27.46,0,0,1-9.06,4.29,5.67,5.67,0,0,1-1.85.81c-.91.17-1.27-.33-2.6.43-.6.35-.8-.4-.72-.78S115.21,76.68,116.05,76.46Z"/><path class="cls-19" d="M124.19,59.72a14.68,14.68,0,0,1,3.18,5.09,10.9,10.9,0,0,1-5.81,2.11s-1.56-2.87-.42-4.31A19.41,19.41,0,0,1,124.19,59.72Z"/></g><path class="cls-12" d="M82.47,110.5H78s-1,.17-1.38,3.14S75,121.93,75,121.93H81Z"/><path class="cls-19" d="M79.45,121.89c.51-.06,24.1,0,24.1,0s1-.14.1-4.18a5,5,0,0,1-.08-.65c-.08-1.1.12-2.42.05-3.47,0,0,.3-3.4-4.21-3.11a139.15,139.15,0,0,1-15.82,0c-3.11-.32-3.82,2.1-3.67,3.61a9.37,9.37,0,0,1,0,1.06C79.7,117.42,79,121.94,79.45,121.89Z"/><path class="cls-12" d="M86.44,111.86s1.56-2.53,4.13-2.67,5.17,2.38,5.2,2.41l.55-.56c-.11-.11-2.86-2.82-5.8-2.64a6.56,6.56,0,0,0-4.76,3.09Z"/><path class="cls-25" d="M106.91,105.56a2.42,2.42,0,0,0-1.11-2.07A9.35,9.35,0,0,0,100,102c-4.55.28-5.56,2.81-5.69,4.76s-1.67,4.76-2,6.92-1,7.68,2.25,8.11,14,0,14,0,2.51-3,0-8.61A17.73,17.73,0,0,1,106.91,105.56Z"/><path class="cls-26" d="M109.11,105.56a2.43,2.43,0,0,0-1.11-2.1,9.38,9.38,0,0,0-5.81-1.46c-4.53.29-5.55,2.81-5.69,4.76s-1.66,4.76-2,6.92-1,7.68,2.27,8.11,14,0,14,0,2.51-3,0-8.61A17.62,17.62,0,0,1,109.11,105.56Z"/><path class="cls-25" d="M96.11,114.51h6.45s.44,4.72-2.65,4.86S96,117.54,96.11,114.51Z"/><path class="cls-26" d="M96.11,114.51a3.9,3.9,0,0,0,3.13,1.64,4.85,4.85,0,0,0,3.32-1.64Z"/><path class="cls-25" d="M103.83,114.51h6.44s.44,4.72-2.64,4.86S103.83,117.54,103.83,114.51Z"/><path class="cls-26" d="M103.83,114.51a3.86,3.86,0,0,0,3.13,1.64,4.81,4.81,0,0,0,3.31-1.64Z"/><path class="cls-25" d="M104.81,110.87h-3.43A2.9,2.9,0,0,1,98.5,108h0a2.9,2.9,0,0,1,2.88-2.89h3.43A2.9,2.9,0,0,1,107.7,108h0A2.9,2.9,0,0,1,104.81,110.87Z"/><path class="cls-26" d="M98.78,104.86a5.41,5.41,0,0,0,4.33,2.27,6.75,6.75,0,0,0,4.61-2.27Z"/><path class="cls-26" d="M105.52,102.67l-.86-.09a1.26,1.26,0,0,0-.27-.81,1.95,1.95,0,0,0-2.32-.11,1.33,1.33,0,0,0-.38.87h-.83a2.19,2.19,0,0,1,.63-1.49,2.4,2.4,0,0,1,1.81-.57,2.31,2.31,0,0,1,1.78.75A2.1,2.1,0,0,1,105.52,102.67Z"/><rect class="cls-27" width="199" height="129"/></g></g></svg>