<svg xmlns="http://www.w3.org/2000/svg" xmlns:xlink="http://www.w3.org/1999/xlink" viewBox="0 0 199 129"><defs><style>.cls-1,.cls-4{fill:#87cafd;}.cls-1,.cls-2,.cls-22,.cls-26,.cls-31,.cls-37,.cls-38,.cls-6{isolation:isolate;}.cls-1{opacity:0.21;}.cls-2{fill:#a6adcb;opacity:0.61;}.cls-3{fill:#1e3865;}.cls-5{fill:url(#linear-gradient);}.cls-6{fill:#939292;opacity:0.54;}.cls-31,.cls-37,.cls-38,.cls-7{fill:#fff;}.cls-8{fill:#25468f;}.cls-9{fill:#fffefb;}.cls-10{fill:#5f96cc;}.cls-11{fill:#0f5791;}.cls-12{fill:#71b9f3;}.cls-13{fill:#bf3022;}.cls-14{fill:#ef3430;}.cls-15{fill:#f44437;}.cls-16{fill:#d1e5f7;}.cls-17{fill:#ffeaec;}.cls-18{fill:#fffeff;}.cls-19{fill:#2680ca;}.cls-20{fill:#84c9f4;}.cls-21{fill:#40a3ed;}.cls-22{fill:#ff7d1d;opacity:0.32;}.cls-23{fill:#f29b0f;}.cls-24{fill:#ffac1b;}.cls-25{fill:#788587;}.cls-26{fill:#83c8d3;opacity:0.8;}.cls-27{fill:#1a335b;}.cls-28{fill:#2d3554;}.cls-29{fill:#878787;}.cls-30{fill:#1a2e35;}.cls-31{opacity:0.4;}.cls-32{fill:#254c82;}.cls-33{fill:#ff912b;}.cls-34{fill:#fc7600;}.cls-35{fill:#ffae73;}.cls-36{fill:#f9924f;}.cls-37{opacity:0.66;}.cls-38{opacity:0.63;}.cls-39{fill:#b5f1f4;}.cls-40{fill:#d3eeef;}.cls-41{fill:#eea24f;}.cls-42{fill:#f99a00;}.cls-43{fill:#e2890a;}.cls-44{fill:#232154;}.cls-45{fill:none;}</style><linearGradient id="linear-gradient" x1="-543.96" y1="1059.37" x2="-543.96" y2="1030.68" gradientTransform="matrix(0.95, -0.26, -0.27, -0.96, 958.66, 969.09)" gradientUnits="userSpaceOnUse"><stop offset="0" stop-color="#e5e5e5"/><stop offset="0.16" stop-color="#e1e1e1"/><stop offset="0.3" stop-color="#d6d6d6"/><stop offset="0.43" stop-color="#c4c4c4"/><stop offset="0.57" stop-color="#aaa"/><stop offset="0.7" stop-color="#888"/><stop offset="0.83" stop-color="#5f5f5f"/><stop offset="0.95" stop-color="#303030"/><stop offset="1" stop-color="#1a1a1a"/></linearGradient></defs><g id="Layer_2" data-name="Layer 2"><g id="Layer_1-2" data-name="Layer 1"><path class="cls-1" d="M12.29,122h175c5.78-14.63,5.78-21.73,6.42-30.13C197.34,45.64,168,38.53,159.44,36.6,133.08,30.69,145.08,1.48,76.54,7c-6.28.5-21.1,4.56-26.2,7.19-3.58,1.84-17.07,10.08-21,24A29.61,29.61,0,0,0,29.05,53c4.46,19.51-7.17,18.39-15.67,27.68C2,93.13,3.2,113.42,12.29,122Z"/><path class="cls-2" d="M166.84,92.45a60.69,60.69,0,0,0-3.43,10.92.69.69,0,0,0,0,.45l.81,1.53h0a10.34,10.34,0,0,1-1.65-1.07A59.35,59.35,0,0,1,166,93.61,6.94,6.94,0,0,1,167.09,92Z"/><path class="cls-2" d="M151.77,102.8l.87-.88a1.61,1.61,0,0,0,.23.71l8,8.25s3,3.3,6.43,1.14a1.41,1.41,0,0,1-.59,1c-3.63,2.57-6.76-.91-6.76-.91l-8-8.25C151.54,103.11,151.77,102.8,151.77,102.8Z"/><path class="cls-3" d="M170,90.74c-6.6,1.65-14.84-.43-14.84-.43s-6.07,6-12.57,8c0,0,3.1,21.28,21.44,23.92C178.26,110.57,170,90.74,170,90.74Z"/><path class="cls-4" d="M169.91,90.54c-6.6,1.65-14.84-.23-14.84-.23s-6.12,5.86-12.62,7.87c0,0,2.84,20.32,21.08,22.63C178,109.43,169.91,90.54,169.91,90.54Z"/><path class="cls-5" d="M168.87,92a35,35,0,0,1-13.49-.21,34.56,34.56,0,0,1-11.45,7.12s2.63,18.46,19.17,20.5C176.21,109.08,168.87,92,168.87,92Z"/><path class="cls-6" d="M168.31,92.83a32.54,32.54,0,0,1-12.63-.24A32.27,32.27,0,0,1,145,99.18s2.47,17.36,17.89,19.3C175.12,108.83,168.31,92.83,168.31,92.83Z"/><path class="cls-7" d="M167.78,93.31a30.45,30.45,0,0,1-12-.26,30.16,30.16,0,0,1-10.12,6.4s2.35,16.64,17.07,18.6C174.33,108.8,167.78,93.31,167.78,93.31Z"/><path class="cls-4" d="M167,94.1a27.27,27.27,0,0,1-11-.31,27.35,27.35,0,0,1-9.3,5.95s2.27,15.66,15.81,17.57C173.15,108.68,167,94.1,167,94.1Z"/><path class="cls-8" d="M156,93.79l6.51,23.54C173.15,108.7,167,94.12,167,94.12A27.28,27.28,0,0,1,156,93.79Z"/><polygon class="cls-9" points="163.35 105.3 162.71 102.96 159.98 103.7 159.22 100.98 156.88 101.64 157.62 104.36 154.9 105.11 155.56 107.46 158.28 106.71 159.03 109.43 161.38 108.78 160.63 106.06 163.35 105.3"/><path class="cls-10" d="M99.24,118h0a1.15,1.15,0,0,1-1.08-1.15V9.44a1.17,1.17,0,0,1,1.08-1.16h0a1.16,1.16,0,0,1,1.06,1.16V116.87A1.14,1.14,0,0,1,99.24,118Z"/><path class="cls-11" d="M105,122.62a7.32,7.32,0,0,1-7-7.45v-8.74a1.55,1.55,0,0,1,3.08-.38,1.21,1.21,0,0,1,0,.38v8.67a4,4,0,0,0,7.94.23c0-.13,0-.26,0-.4a1.55,1.55,0,1,1,3.09-.26,1.13,1.13,0,0,1,0,.26A7.4,7.4,0,0,1,105,122.62Z"/><path class="cls-12" d="M49.46,54a21.79,21.79,0,0,1,30.75-1.86A23.19,23.19,0,0,1,82.06,54h.8a21.79,21.79,0,0,1,30.77-1.85A23.07,23.07,0,0,1,115.48,54h1a21.78,21.78,0,0,1,30.76-1.85A21.53,21.53,0,0,1,149.11,54h0c-2.67-21.67-24-38.54-49.87-38.54S52,32.31,49.35,54Z"/><path class="cls-8" d="M82.5,54h.35a21.79,21.79,0,0,1,30.77-1.85A21.53,21.53,0,0,1,115.47,54h.5c-.85-21.67-8-38.54-16.74-38.54h0C90.54,15.44,83.4,32.31,82.5,54Z"/><path class="cls-13" d="M115.76,112.59l3.63,4.37a3.11,3.11,0,0,1-.37,4.38l-.32.23h0a3.84,3.84,0,0,1-5-.62L110,116.57Z"/><path class="cls-14" d="M115.76,112.59l3.63,4.37a3,3,0,0,1-.12,4.18l-.29.24h0a3.67,3.67,0,0,1-4.77-.82l-3.63-4.38Z"/><path class="cls-15" d="M115.25,112.91l3.63,4.37a2.86,2.86,0,0,1,.06,4l-.21.2h0a3.53,3.53,0,0,1-4.52-1l-3.63-4.38Z"/><path class="cls-16" d="M115.86,112.69l-3.65-4.36a3.84,3.84,0,0,0-5-.64h0a3.12,3.12,0,0,0-.91,4.32,3.55,3.55,0,0,0,.23.31l3.63,4.36Z"/><path class="cls-17" d="M115.86,112.69l-3.65-4.36a3.63,3.63,0,0,0-4.76-.83h0a3,3,0,0,0-.66,4.13,3.07,3.07,0,0,0,.24.29l3.63,4.37Z"/><path class="cls-18" d="M115.33,113.05l-3.63-4.36a3.52,3.52,0,0,0-4.52-1h0a2.85,2.85,0,0,0-.35,4l.2.22,3.63,4.37Z"/><path class="cls-19" d="M105.9,115.12l5.69.18a3.11,3.11,0,0,1,3,3.2c0,.12,0,.25,0,.38h0a3.83,3.83,0,0,1-3.81,3.37l-5.69-.18Z"/><path class="cls-20" d="M105.9,115.12l5.69.18a3,3,0,0,1,3,2.9c0,.12,0,.23,0,.35h0a3.66,3.66,0,0,1-3.78,3l-5.68-.18Z"/><path class="cls-21" d="M105.76,115.76l5.68.18a2.84,2.84,0,0,1,3.07,2.59c0,.11,0,.22,0,.33h0a3.55,3.55,0,0,1-3.76,2.77l-5.68-.18Z"/><path class="cls-16" d="M106,115.13l-5.69-.17a3.82,3.82,0,0,0-3.81,3.37h0a3.11,3.11,0,0,0,2.6,3.54,2.56,2.56,0,0,0,.39,0l5.69.17Z"/><path class="cls-17" d="M106,115.13l-5.69-.17a3.64,3.64,0,0,0-3.77,3h0a3,3,0,0,0,2.68,3.21h.36l5.67.16Z"/><path class="cls-18" d="M105.9,115.76l-5.68-.18a3.53,3.53,0,0,0-3.74,2.76h0a2.85,2.85,0,0,0,2.82,2.87h.25l5.67.16Z"/><path class="cls-13" d="M97.1,113l5.15-2.41a3.11,3.11,0,0,1,4.14,1.49c0,.12.1.24.14.36h0a3.83,3.83,0,0,1-1.89,4.73l-5.16,2.39Z"/><path class="cls-14" d="M97.1,113l5.15-2.41a3,3,0,0,1,4,1.25,2.59,2.59,0,0,1,.14.29h0a3.66,3.66,0,0,1-2,4.4L99.23,119Z"/><path class="cls-15" d="M97.31,113.63l5.16-2.4a2.86,2.86,0,0,1,3.93,1,2.1,2.1,0,0,1,.13.26h0a3.5,3.5,0,0,1-2.12,4.14L99.26,119Z"/><path class="cls-16" d="M97.23,113l-5.14,2.39a3.85,3.85,0,0,0-1.89,4.74h0a3.09,3.09,0,0,0,3.92,2,2.87,2.87,0,0,0,.37-.15l5.15-2.4Z"/><path class="cls-17" d="M97.23,113l-5.14,2.39a3.65,3.65,0,0,0-2,4.45h0a3,3,0,0,0,3.85,1.66l.29-.13,5.15-2.4Z"/><path class="cls-18" d="M97.43,113.57,92.28,116a3.53,3.53,0,0,0-2.11,4.15h0A2.85,2.85,0,0,0,94,121.49l.28-.15,5.15-2.41Z"/><path class="cls-22" d="M90.71,112.43l4.66-3.25a3.1,3.1,0,0,1,4.32.73,2.5,2.5,0,0,1,.21.35h0a3.83,3.83,0,0,1-1.05,5l-4.69,3.19Z"/><path class="cls-23" d="M90.71,112.43l4.66-3.25a3,3,0,0,1,4.16.48l.21.31h0a3.64,3.64,0,0,1-1.23,4.68l-4.67,3.26Z"/><path class="cls-24" d="M91,113l4.65-3.25a2.85,2.85,0,0,1,4,.34l.13.18h0a3.47,3.47,0,0,1-1.38,4.4l-4.67,3.26Z"/><path class="cls-16" d="M90.79,112.36l-4.67,3.31a3.83,3.83,0,0,0-1.05,5h0a3.12,3.12,0,0,0,4.55,1.06l4.65-3.28Z"/><path class="cls-17" d="M90.79,112.36l-4.67,3.31a3.65,3.65,0,0,0-1.21,4.69h0a2.94,2.94,0,0,0,4,1,2.11,2.11,0,0,0,.31-.21l4.67-3.26Z"/><path class="cls-18" d="M91.11,112.91l-4.67,3.25a3.53,3.53,0,0,0-1.38,4.42h0a2.86,2.86,0,0,0,4,.62l.15-.11,4.67-3.26Z"/><rect class="cls-25" x="36.34" y="89.86" width="9.31" height="2.14" transform="matrix(0.51, -0.86, 0.86, 0.51, -58.14, 79.96)"/><path class="cls-26" d="M55.31,82.88a8.56,8.56,0,1,1-3-11.72h0a8.55,8.55,0,0,1,3,11.71Z"/><path class="cls-27" d="M53.17,69.69a10.28,10.28,0,1,0,3.62,14.08h0A10.27,10.27,0,0,0,53.17,69.69ZM43.59,85.9a8.56,8.56,0,1,1,11.73-3h0a8.54,8.54,0,0,1-11.7,3Z"/><path class="cls-27" d="M41.09,92.05,40,91.38a1.74,1.74,0,0,0-2.29.83L29.84,105.5a1.74,1.74,0,0,0,.33,2.4l1.18.65a1.73,1.73,0,0,0,2.24-.86L41.44,94.4A1.73,1.73,0,0,0,41.09,92.05Z"/><path class="cls-7" d="M53.45,77.36a2.68,2.68,0,1,1-2.14-3.13h0A2.69,2.69,0,0,1,53.45,77.36Z"/><path class="cls-7" d="M53.21,82.3a1,1,0,0,1-1.14.85,1,1,0,0,1,.29-2h.09A1,1,0,0,1,53.21,82.3Z"/><rect class="cls-28" x="3.08" y="122.11" width="192.83" height="0.53" rx="0.22"/><path class="cls-29" d="M125.26,86l.67.11-.46,1.08-1.77-.27-1.1-.16-.18,0h0a.58.58,0,0,1-.38-.52s0,0,0-.08a.06.06,0,0,0,0,0,.55.55,0,0,1,.46-.44.72.72,0,0,1,.26,0l1.63.27.4.06Z"/><polygon class="cls-30" points="122.37 121.51 121.81 121.44 125.4 87.76 125.98 87.84 122.37 121.51"/><polygon class="cls-31" points="122.37 121.51 121.81 121.44 125.4 87.76 125.98 87.84 122.37 121.51"/><path class="cls-30" d="M122.42,122.05l-.93-.12c-.11,0-.18-.17-.14-.32l.29-.53a.18.18,0,0,1,.19-.2l.64.07c.09,0,.16.13.16.25v.58C122.62,121.92,122.52,122.07,122.42,122.05Z"/><polygon class="cls-29" points="126.06 88.06 126.86 80.81 125.86 80.56 125.28 87.99 126.06 88.06"/><path class="cls-3" d="M124.69,83.82a4.47,4.47,0,0,1-1.1-.63s2.21-6.92,2.41-7.6c.09-.4-.07-3.8-.21-6.43a4.94,4.94,0,0,1,2.65-4.51l3-1.51s-1.65,11-2.06,12.65c-.66,2.81-3.68,8.11-3.68,8.11a2.26,2.26,0,0,1-1-.08Z"/><path class="cls-29" d="M127.07,79.32l-2.21-.63a.25.25,0,0,0-.32.19.07.07,0,0,0,0,.05l-.17,1.36a.31.31,0,0,0,.22.34l2.21.4a.27.27,0,0,0,.31-.23l.09-.5.12-.64a.27.27,0,0,0-.22-.34Z"/><g id="man"><path class="cls-32" d="M140,122.21h2.86a1.73,1.73,0,0,0,.78-1.3c.14-.92,1.17-1.41,1.39-2.21s-.92-1.81-.92-1.81l-.19-.25-.19-.25-1.91.44s0,.46-.06,1,0,.88,0,1.31c.05,1-.29,2.08-1.17,2.28C139.93,121.64,140,122,140,122.21Z"/><path class="cls-32" d="M125.47,122.07H132a4.59,4.59,0,0,0,.15-2.21v-.14s-2.21-1.78-2.53-.42v.13c-.38,1.27-2.11,1.84-3.11,2A1.12,1.12,0,0,0,125.47,122.07Z"/><path class="cls-33" d="M126.66,85.67s.34,4.22.74,9.29c.54,6.89,1.2,15.35,1.25,17,.11,2.79.56,7.24.56,7.24a3.5,3.5,0,0,0,3.18.61,73.67,73.67,0,0,0,2.42-13.08v-.33c.49-6.85,1.27-21.27,1.27-21.27Z"/><path class="cls-34" d="M126.66,85.67s.34,4.22.74,9.29l7.41,11.72v-.33c.49-6.85,1.27-21.27,1.27-21.27Z"/><path class="cls-33" d="M128.32,85s5.1,15.61,8.63,23,4.64,9.46,4.64,9.46,2.3-.79,2.54-1.41c0,0-1.22-13-3.66-16.48-1.38-2-2.3-8.77-2.27-10.78s-.2-6-.2-6Z"/><path class="cls-35" d="M129.72,63.89c2.39.75,6.51-1.27,6.51-1.27a6.24,6.24,0,0,1-2.08-5.08L132.31,59l-1.25,1a14.9,14.9,0,0,0,.13,1.64h0a1.44,1.44,0,0,1-.56,1.35A5.76,5.76,0,0,0,129.72,63.89Z"/><path class="cls-36" d="M131.06,60a14.9,14.9,0,0,0,.13,1.64c1.39-.24,3-2.48,3-2.48a4.24,4.24,0,0,0-1.84-.16Z"/><path class="cls-35" d="M130.33,60s3.93.65,4.3-1.8,1.1-4-1.37-4.55-3.13.34-3.45,1.1S129.31,59.75,130.33,60Z"/><path class="cls-8" d="M126.4,86a.38.38,0,0,0,.25.09,39,39,0,0,0,5.71.27,16.59,16.59,0,0,0,5.26-1.53c.25-.11.79-.4.77-.66s0-.7-.07-1.23a66.39,66.39,0,0,1-.13-8.58c0-.68,0-1.35.06-2,0-4.92-1-9.23-2.91-10.7a6.4,6.4,0,0,0-2.14.85,3.34,3.34,0,0,1-2.36.31l-1,.73a8.18,8.18,0,0,0-2.57,4.11,46.57,46.57,0,0,0-.78,7.64c0,1.38-.11,2.78-.12,4.11h0v.41C126.3,83.24,126.34,86,126.4,86Z"/><path class="cls-8" d="M134.64,57.93s-.41-.06-.34-.62.06-1.28-.39-1.1-.47.5-.66.29-.19-1.11-1.54-1.17-1.89.4-2.52.13-.65-1.22-.65-1.22a1.1,1.1,0,0,0,.44.44s-1-1.42.17-2.4,2.44-.34,3.14-.29c1.54.09,2.54.17,3,1.19S135.62,57,134.64,57.93Z"/></g><path class="cls-37" d="M133.2,58.93l-1.1.59a.26.26,0,0,1-.36-.1s0,0,0,0h0a.33.33,0,0,1,.12-.42l1.11-.6a.27.27,0,0,1,.36.11.06.06,0,0,1,0,0h0A.32.32,0,0,1,133.2,58.93Z"/><path class="cls-38" d="M132.89,58.93l-.64.34h-.09l-.14-.34a.07.07,0,0,1,0-.09l.63-.34a.05.05,0,0,1,.08,0h0l.15.34A.06.06,0,0,1,132.89,58.93Z"/><path class="cls-3" d="M136.33,70.61a2.29,2.29,0,0,0-.54-.49,8,8,0,0,1-2-1.89c-1.64-2.38.15-4.69,2.71-5.09a1.51,1.51,0,0,1,.52,0,1.35,1.35,0,0,1,.58.3,6.57,6.57,0,0,1,2.06,4.88,30,30,0,0,0,.37,5.44l-2.7.66-.81-3.23a2.47,2.47,0,0,0-.18-.52A.13.13,0,0,1,136.33,70.61Z"/><path class="cls-4" d="M139.69,67.89s2.3,6.73,2.21,7.94c0,0-.22,3.14-2.36,3l-7.67-1a.16.16,0,0,1-.13-.17h0l.83-4.92Z"/><polygon class="cls-33" points="139.67 67.89 132.53 72.76 132.43 73.46 139.93 68.66 139.67 67.89"/><polygon class="cls-33" points="132.53 72.76 129.81 63.62 130.83 62.84 133.45 72.13 132.53 72.76"/><path class="cls-35" d="M125.21,86a1.12,1.12,0,0,1,.08-.24,1.07,1.07,0,0,0-.08-.84.44.44,0,0,1,0-.43l0-.35v-.15l-.52-.18-.44-.15a1.84,1.84,0,0,1-.61.63,2.89,2.89,0,0,0-.7,1.34,2.34,2.34,0,0,0-.07.45,2.92,2.92,0,0,0,.39,1.44h0c.15,0,.32-.26.5-.59a7.73,7.73,0,0,1,.61-1.06,1.16,1.16,0,0,1,.24-.25s.1-.09.22,0a.59.59,0,0,1,.07.3Z"/><path class="cls-35" d="M127.68,76.09a3.05,3.05,0,0,0,1.91.74,1.79,1.79,0,0,1,.92,0l.21-.44.25-.52-.11-.11-.3-.23a.5.5,0,0,1-.3-.35,1.1,1.1,0,0,0-.56-.67c-.28-.1-.73-.5-.81-.42s.58.63.58.81-.12.18-.15.18h0c-.7.14-2.26-.71-2.44-.34A3.16,3.16,0,0,0,127.68,76.09Z"/><path class="cls-3" d="M131.67,77.82,130.19,77s-.16-1.11.52-1.45l1.29.29Z"/><path class="cls-39" d="M56,91.08H50.31l.28,23.2v.14h0a2.57,2.57,0,0,0,5.13.41,2.42,2.42,0,0,0,0-.54.54.54,0,0,0,0-.18Z"/><path class="cls-3" d="M55.36,114v-.18L55.51,99a37.66,37.66,0,0,1-4.75-.08l.16,15v.14h0a2.53,2.53,0,0,0,2.21,2.76A2.58,2.58,0,0,0,55.36,114Z"/><path class="cls-40" d="M56.29,91.4H50c-.13,0-.25-.18-.25-.4h0c0-.22.12-.41.25-.41h6.28c.13,0,.25.19.25.41h0C56.54,91.22,56.42,91.4,56.29,91.4Z"/><path class="cls-12" d="M54.67,99v17.06a3.37,3.37,0,0,0,.69-2.09v-.18L55.51,99Z"/><path class="cls-39" d="M65.74,91.08H60.08l.25,23.2h0v.11h0a2.57,2.57,0,0,0,5.13.41,2.42,2.42,0,0,0,0-.54v-.18Z"/><path class="cls-34" d="M65.24,102.28h-4.7l.13,11.7v.14h0c.07,1.54,1,2.76,2.23,2.76s2.18-1.3,2.18-2.9a.54.54,0,0,0,0-.18Z"/><path class="cls-40" d="M66.08,91.4H59.76c-.14,0-.25-.18-.25-.4h0c0-.22.11-.41.25-.41h6.32c.14,0,.25.19.25.41h0C66.28,91.22,66.17,91.4,66.08,91.4Z"/><path class="cls-41" d="M65.24,102.28h-.82V116.1h0a3.09,3.09,0,0,0,.41-.67h0l.09-.23h0c0-.08,0-.16.07-.23h0v-.51a.08.08,0,0,1,0-.07v-.48Z"/><path class="cls-7" d="M61.25,110.08h0a.21.21,0,0,1-.19-.19v-3a.19.19,0,0,1,.19-.19h0a.18.18,0,0,1,.19.19h0v3A.2.2,0,0,1,61.25,110.08Z"/><path class="cls-39" d="M75.85,91.08H70.17l.29,23.2h0a.2.2,0,0,0,0,.11h0a2.57,2.57,0,0,0,5.12.41,3.23,3.23,0,0,0,0-.54v-.18Z"/><path class="cls-42" d="M75.35,102.28H70.67l.12,11.7v.14h0c.06,1.54,1,2.76,2.22,2.76s2.23-1.29,2.23-2.89v-.18Z"/><path class="cls-40" d="M76.15,91.4H69.89c-.14,0-.25-.18-.25-.4h0c0-.22.11-.41.25-.41h6.26c.14,0,.25.19.25.41h0C76.4,91.22,76.29,91.4,76.15,91.4Z"/><path class="cls-43" d="M75.35,102.28h-.81V116.1h0a2.7,2.7,0,0,0,.4-.67h0a1.09,1.09,0,0,0,.09-.23h0a1.19,1.19,0,0,0,.07-.23h0a.88.88,0,0,0,0-.23v-.65a.54.54,0,0,0,0-.18Z"/><path class="cls-7" d="M71.38,110.08h0a.2.2,0,0,1-.19-.19v-3a.19.19,0,0,1,.17-.19h0a.19.19,0,0,1,.19.19h0v3A.21.21,0,0,1,71.38,110.08Z"/><path class="cls-3" d="M45.13,118.47h36.4A1.48,1.48,0,0,1,83,120V122H43.65V120A1.48,1.48,0,0,1,45.13,118.47Z"/><rect class="cls-4" x="43.65" y="120.68" width="39.38" height="1.33"/><rect class="cls-4" x="45.42" y="91.48" width="0.88" height="26.99"/><rect class="cls-4" x="79.93" y="91.48" width="0.88" height="26.99"/><rect class="cls-44" x="43.65" y="91.48" width="39.38" height="0.88"/><path class="cls-7" d="M51.69,106.63h0a.18.18,0,0,1-.18-.19v-3a.18.18,0,0,1,.17-.18h0a.18.18,0,0,1,.19.17v3a.18.18,0,0,1-.19.19Z"/><rect class="cls-45" width="199" height="129"/></g></g></svg>