<?xml version="1.0" encoding="utf-8"?>
<!-- Generator: Adobe Illustrator 24.2.0, SVG Export Plug-In . SVG Version: 6.00 Build 0)  -->
<svg version="1.1" id="Layer_1" xmlns="http://www.w3.org/2000/svg" xmlns:xlink="http://www.w3.org/1999/xlink" x="0px" y="0px"
	 viewBox="0 0 400 400" style="enable-background:new 0 0 400 400;" xml:space="preserve">
<style type="text/css">
	.st0{fill:none;}
	.st1{display:none;}
	.st2{display:inline;fill:none;}
	.st3{fill:#0094D5;}
</style>
<g>
	<rect id="canvas_background" x="-1" y="-1" class="st0" width="402" height="402"/>
	<g id="canvasGrid" class="st1">
		<rect id="svg_1" y="0" class="st2" width="400" height="400"/>
	</g>
</g>
<g>
	<g id="svg_15">
		<g id="svg_9" transform="matrix(0.79242601778358,0,0,0.7785534022559921,-2863.825775609116,-1880.2703266200651) ">
			<g id="svg_10">
				<path id="svg_13" class="st3" d="M3866.4,2756.8c-2.6,0-5.2,1.1-7.1,2.9s-2.9,4.4-2.9,7.1s1.1,5.2,2.9,7.1s4.4,2.9,7.1,2.9
					s5.2-1.1,7.1-2.9c1.9-1.9,2.9-4.4,2.9-7.1s-1.1-5.2-2.9-7.1C3871.6,2757.9,3869,2756.8,3866.4,2756.8z"/>
				<path id="svg_12" class="st3" d="M3866.4,2646c44.1,0,80-35.9,80-80s-35.9-80-80-80s-80,35.9-80,80S3822.3,2646,3866.4,2646z
					 M3866.4,2506c33.1,0,60,26.9,60,60s-26.9,60-60,60s-60-26.9-60-60S3833.3,2506,3866.4,2506z"/>
				<path id="svg_11" class="st3" d="M4080.4,2470h-97.9l-28.6-28.6c-1.9-1.9-4.4-2.9-7.1-2.9s-5.2,1.1-7.1,2.9l-10.7,10.7
					c-8.4-4.7-17.3-8.3-26.6-11V2426c0-5.5-4.5-10-10-10h-52.4c-5.5,0-10,4.5-10,10v15.1c-9.2,2.7-18.1,6.4-26.6,11l-10.7-10.7
					c-1.9-1.9-4.4-2.9-7.1-2.9s-5.2,1.1-7.1,2.9l-28.6,28.6h-97.9c-23.2,0-42,18.8-42,42v282c0,23.2,18.8,42,42,42H3820v31.3
					c0,17.3-8.7,33.1-23.4,42.3c-3.8,2.4-5.5,7-4.3,11.2s5.2,7.2,9.6,7.2h128.9c4.5,0,8.4-2.9,9.6-7.2s-0.5-8.9-4.3-11.2
					c-14.6-9.2-23.4-25-23.4-42.3V2836h167.6c23.2,0,42-18.8,42-42v-282C4122.4,2488.8,4103.5,2470,4080.4,2470L4080.4,2470z
					 M3785.9,2462.6l9.1,9.1c3.3,3.3,8.5,3.9,12.4,1.4c10.8-6.8,22.5-11.7,35-14.5c4.6-1,7.8-5.1,7.8-9.8V2436h32.4v12.8
					c0,4.7,3.3,8.7,7.8,9.8c12.4,2.8,24.2,7.6,35,14.5c4,2.5,9.1,1.9,12.4-1.4l9.1-9.1l22.9,22.9l-9.1,9.1
					c-3.3,3.3-3.9,8.5-1.4,12.4c6.9,10.8,11.7,22.5,14.5,35c1,4.6,5.1,7.8,9.8,7.8h12.8v32.4h-12.8c-4.7,0-8.7,3.3-9.8,7.8
					c-2.8,12.4-7.6,24.2-14.5,35c-2.5,4-1.9,9.1,1.4,12.4l9.1,9.1l-22.9,22.9l-9.1-9.1c-3.3-3.3-8.5-3.9-12.4-1.4
					c-10.8,6.9-22.5,11.7-35,14.5c-4.6,1-7.8,5.1-7.8,9.8v12.8h-32.4v-12.8c0-4.7-3.3-8.7-7.8-9.8c-12.4-2.8-24.2-7.6-35-14.5
					c-4-2.5-9.1-1.9-12.4,1.4l-9.1,9.1l-22.9-22.9l9.1-9.1c3.3-3.3,3.9-8.5,1.4-12.4c-6.9-10.8-11.7-22.5-14.5-35
					c-1-4.6-5.1-7.8-9.8-7.8h-12.8v-32.4h12.8c4.7,0,8.7-3.3,9.8-7.8c2.8-12.4,7.6-24.2,14.5-35c2.5-4,1.9-9.1-1.4-12.4l-9.1-9.1
					L3785.9,2462.6L3785.9,2462.6z M3905.8,2908h-78.9c8.4-11.7,13-25.8,13-40.7V2836h52.8v31.3
					C3892.8,2882.2,3897.5,2896.3,3905.8,2908z M4080.4,2816h-428c-12.1,0-22-9.9-22-22v-17.1h191.1c5.5,0,10-4.5,10-10
					s-4.5-10-10-10h-191.1V2512c0-12.1,9.9-22,22-22h87.6c0.5,0.9,1.1,1.8,1.9,2.6l10.6,10.6c-4.7,8.4-8.4,17.3-11,26.6h-15
					c-5.5,0-10,4.5-10,10v52.4c0,5.5,4.5,10,10,10h15c2.7,9.3,6.4,18.2,11,26.6l-10.6,10.6c-3.9,3.9-3.9,10.2,0,14.1l37,37
					c3.9,3.9,10.2,3.9,14.1,0l10.6-10.6c8.4,4.7,17.3,8.4,26.6,11v15c0,5.5,4.5,10,10,10h52.4c5.5,0,10-4.5,10-10v-15
					c9.3-2.7,18.2-6.4,26.6-11l10.6,10.6c3.9,3.9,10.2,3.9,14.1,0l37-37c3.9-3.9,3.9-10.2,0-14.1l-10.6-10.6
					c4.7-8.4,8.4-17.3,11-26.6h15c5.5,0,10-4.5,10-10v-52.4c0-5.5-4.5-10-10-10h-15c-2.7-9.3-6.4-18.1-11-26.6l10.6-10.6
					c0.8-0.8,1.4-1.7,1.9-2.6h87.6c12.1,0,22,9.9,22,22v244.9h-190.9c-5.5,0-10,4.5-10,10s4.5,10,10,10h190.9v17.1
					C4102.4,2806.1,4092.5,2816,4080.4,2816L4080.4,2816z"/>
			</g>
		</g>
	</g>
</g>
</svg>
