<?xml version="1.0" encoding="utf-8"?>
<!-- Generator: Adobe Illustrator 24.2.0, SVG Export Plug-In . SVG Version: 6.00 Build 0)  -->
<svg version="1.1" id="Layer_1" xmlns="http://www.w3.org/2000/svg" xmlns:xlink="http://www.w3.org/1999/xlink" x="0px" y="0px"
	 viewBox="0 0 512 512" style="enable-background:new 0 0 512 512;" xml:space="preserve">
<style type="text/css">
	.st0{fill:none;}
	.st1{fill:#0099AC;}
	.st2{fill:#005E9D;}
</style>
<g>
	<rect id="canvas_background" x="-1" y="-1" class="st0" width="514" height="514"/>
</g>
<g>
	<g id="svg_1">
		<g id="svg_2">
			<path id="svg_3" class="st1" d="M125.7,126c-5.5,0-10,4.5-10,10s4.5,10,10,10c5.5,0,10-4.5,10-10S131.2,126,125.7,126z"/>
		</g>
	</g>
	<g id="svg_4">
		<g id="svg_5">
			<path id="svg_6" class="st1" d="M215.7,313h-30v-30c0-5.5-4.5-10-10-10s-10,4.5-10,10v30h-30c-5.5,0-10,4.5-10,10s4.5,10,10,10
				h30v30c0,5.5,4.5,10,10,10s10-4.5,10-10v-30h30c5.5,0,10-4.5,10-10S221.2,313,215.7,313z"/>
		</g>
	</g>
	<g id="svg_7">
		<g id="svg_8">
			<path id="svg_9" class="st1" d="M485.6,322c-22.1-38.3-71-51.4-109.3-29.3l-40.6,23.5v-86.8c0-10.7-3.5-21.4-10-30l-50-66.7
				v-28.4c11.6-4.1,20-15.2,20-28.3V30c0-16.5-13.5-30-30-30h-180c-16.5,0-30,13.5-30,30v46c0,13,8.4,24.2,20,28.3v28.4l-50,66.7
				c-6.4,8.6-10,19.3-10,30V423c0,27.6,22.4,50,50,50h160.7c22.4,37.6,70.8,50.2,108.7,28.3l121.2-70
				C494.3,409.3,507.8,360.5,485.6,322z M75.7,30c0-5.5,4.5-10,10-10h180c5.5,0,10,4.5,10,10v46c0,5.5-4.5,10-10,10h-180
				c-5.5,0-10-4.5-10-10L75.7,30L75.7,30L75.7,30z M41.7,211.3l52-69.3c1.3-1.7,2-3.8,2-6v-30h160v20h-90c-5.5,0-10,4.5-10,10
				s4.5,10,10,10h95l49,65.3c3.2,4.3,5.2,9.4,5.8,14.7H35.9C36.5,220.7,38.5,215.6,41.7,211.3L41.7,211.3z M65.7,453
				c-16.5,0-30-13.5-30-30v-10.1h181.7c-3.2,13-3.1,26.8,0.5,40.1L65.7,453C65.7,453,65.7,453,65.7,453z M225.2,393H35.7V246h280
				v81.7l-60.6,35C242.4,370,232.2,380.4,225.2,393L225.2,393z M325.1,483.9c-28.7,16.6-65.4,6.8-81.9-21.9c-16.7-29-6.6-65.5,22-82
				l54.3-31.3l60,103.9L325.1,483.9L325.1,483.9z M446.3,413.9l-49.6,28.7l-60-103.9l49.6-28.7c28.7-16.6,65.4-6.8,82,22
				C484.9,360.8,474.8,397.5,446.3,413.9z"/>
		</g>
	</g>
	<g id="svg_10">
	</g>
	<g id="svg_11">
	</g>
	<g id="svg_12">
	</g>
	<g id="svg_13">
	</g>
	<g id="svg_14">
	</g>
	<g id="svg_15">
	</g>
	<g id="svg_16">
	</g>
	<g id="svg_17">
	</g>
	<g id="svg_18">
	</g>
	<g id="svg_19">
	</g>
	<g id="svg_20">
	</g>
	<g id="svg_21">
	</g>
	<g id="svg_22">
	</g>
	<g id="svg_23">
	</g>
	<g id="svg_24">
	</g>
</g>
<g>
	<g>
		<path id="svg_1_23_" class="st2" d="M616.8,629.2h-0.7c0.1-0.3,0.2-0.6,0.2-0.9V627c0.3-0.2,0.5-0.5,0.5-0.8
			c0-0.4-0.2-0.7-0.5-0.8v-13c0.3-0.2,0.5-0.5,0.5-0.8c0-0.4-0.2-0.7-0.5-0.8v-1.3c0-1.6-1.3-2.9-2.9-2.9h-1V604
			c0-1.7-1.4-3.1-3.1-3.1h-7.5c-1.7,0-3.1,1.4-3.1,3.1v2.4h-1.1c-1.6,0-2.9,1.3-2.9,2.9v1.4c-0.2,0.2-0.4,0.5-0.4,0.8
			c0,0.3,0.2,0.6,0.4,0.8v4.6h-3.3v-4.6c0-2.3-1.9-4.2-4.2-4.2h-2c-0.5,0-1,0.4-1,1c0,0.5,0.4,1,1,1h2c1.2,0,2.2,1,2.2,2.2v23h-15.2
			v-4.1h6.9c0.5,0,1-0.4,1-1c0-0.5-0.4-1-1-1h-6.9v-4.9h6.9c0.5,0,1-0.4,1-1c0-0.5-0.4-1-1-1h-6.9v-4.9h6.9c0.5,0,1-0.4,1-1
			c0-0.5-0.4-1-1-1h-6.9v-3.2c0-1.2,1-2.2,2.2-2.2c0.5,0,1-0.5,0.9-1c0-0.5-0.5-1-1-0.9c-2.3,0.1-4,1.9-4,4.2v24
			c0,0.5,0.3,0.9,0.8,1v12.7c0,0.5,0.4,1,1,1c0.5,0,1-0.4,1-1V647l6.3,3.7c0.3,0.2,0.7,0.2,1,0l6.3-3.7v2.9c0,0.5,0.4,1,1,1
			c0.5,0,1-0.4,1-1v-12.7c0.4-0.1,0.8-0.5,0.8-1v-13.6h3.3v2.7c-0.2,0.2-0.4,0.5-0.4,0.8c0,0.3,0.2,0.6,0.4,0.8v1.3
			c0,0.3,0.1,0.7,0.2,0.9h-0.7c-0.5,0-1,0.4-1,1v3.8c0,0.5,0.4,1,1,1h0.6v14.9c0,0.5,0.4,1,1,1h7.7c0.5,0,1-0.4,1-1V641h2.2v8.9
			c0,0.5,0.4,1,1,1h7.4c0.5,0,1-0.4,1-1V635h0.8c0.5,0,1-0.4,1-1v-3.8C617.7,629.6,617.3,629.2,616.8,629.2z M615.8,633H615
			c0,0,0,0,0,0h-19.3c0,0,0,0,0,0h-0.5v-1.9h20.6V633z M608.6,627.1h5.7v1.1c0,0.5-0.4,0.9-0.9,0.9h-3.9c-0.5,0-0.9-0.4-0.9-0.9
			L608.6,627.1L608.6,627.1z M608.6,625.2v-12.7h5.7v12.7H608.6z M614.3,609.3v1.2h-5.7v-1.2c0-0.5,0.4-0.9,0.9-0.9h3.9
			C613.9,608.4,614.3,608.8,614.3,609.3z M597.7,608.4h3.9c0.5,0,0.9,0.4,0.9,0.9v1.2h-5.7v-1.2
			C596.8,608.8,597.2,608.4,597.7,608.4z M596.8,627.1h5.7v1.1c0,0.5-0.4,0.9-0.9,0.9h-3.9c-0.5,0-0.9-0.4-0.9-0.9V627.1z
			 M596.8,621.7v-9.3h5.7v12.7h-5.7V621.7z M582.9,639.1v-1.9h3.2L582.9,639.1z M588.7,638v5.7l-4.9-2.8L588.7,638z M581,639.1
			l-3.2-1.9h3.2V639.1z M580,640.8l-4.9,2.8V638L580,640.8z M581,642.5v5.7l-4.9-2.9L581,642.5z M582.9,642.5l4.9,2.8l-4.9,2.9
			V642.5z M591.5,620.7v-1.9h3.3v1.9H591.5z M604.4,628.2v-1.2c0.4-0.1,0.6-0.5,0.6-0.9s-0.2-0.8-0.6-0.9v-12.9
			c0.4-0.1,0.6-0.5,0.6-0.9c0-0.4-0.2-0.8-0.6-0.9v-1.2c0-1.6-1.3-2.9-2.9-2.9h-0.9V604c0-0.6,0.5-1.1,1.1-1.1h7.5
			c0.6,0,1.1,0.5,1.1,1.1v2.4h-1c-1.6,0-2.9,1.3-2.9,2.9v1.3c-0.3,0.2-0.5,0.5-0.5,0.8c0,0.4,0.2,0.7,0.5,0.8v13
			c-0.3,0.2-0.5,0.5-0.5,0.8c0,0.4,0.2,0.7,0.5,0.8v1.2c0,0.3,0.1,0.7,0.2,0.9h-2.5C604.4,628.9,604.4,628.6,604.4,628.2z
			 M614.1,648.9h-5.5V640c0-0.5-0.4-1-1-1h-4.2c-0.5,0-1,0.4-1,1v8.9h-5.7V635h17.3V648.9z"/>
		<path id="svg_2_23_" class="st2" d="M580,609.4c0.2,0.4,0.5,0.6,0.9,0.6s0.8-0.3,0.9-0.7c0.1-0.4,0-0.8-0.3-1.1
			c-0.3-0.3-0.8-0.3-1.1-0.1C580,608.5,579.8,609,580,609.4z"/>
	</g>
</g>
</svg>
