<?xml version="1.0" encoding="utf-8"?>
<!-- Generator: Adobe Illustrator 24.2.0, SVG Export Plug-In . SVG Version: 6.00 Build 0)  -->
<svg version="1.1" id="Layer_1" xmlns="http://www.w3.org/2000/svg" xmlns:xlink="http://www.w3.org/1999/xlink" x="0px" y="0px"
	 viewBox="0 0 512 512" style="enable-background:new 0 0 512 512;" xml:space="preserve">
<style type="text/css">
	.st0{fill:none;}
	.st1{fill:#F16722;}
</style>
<g>
	<rect id="canvas_background" x="-1" y="-1" class="st0" width="514" height="514"/>
</g>
<g>
	<g id="svg_1">
		<g id="svg_2">
			<path id="svg_3" class="st1" d="M365,140c-5.5,0-10,4.5-10,10s4.5,10,10,10s10-4.5,10-10S370.5,140,365,140z"/>
		</g>
	</g>
	<g id="svg_4">
		<g id="svg_5">
			<path id="svg_6" class="st1" d="M265,140c-5.5,0-10,4.5-10,10s4.5,10,10,10s10-4.5,10-10S270.5,140,265,140z"/>
		</g>
	</g>
	<g id="svg_7">
		<g id="svg_8">
			<path id="svg_9" class="st1" d="M505.7,240.7c-7-10.8-18.8-17.5-31.5-18c-15.3-0.6-29.6,7.9-36.5,21.6c-0.9,1.8-1.8,3.5-2.7,5.1
				V110c0-16.5-13.5-30-30-30h-30V60c0-33.1-26.9-60-60-60c-33.1,0-60,26.9-60,60v20h-30c-16.5,0-30,13.5-30,30v142.4
				c-3.3-0.3-6.6-0.4-10.1-0.4c-38.5,0-71.3,30.1-87.5,48c-0.8,0.9-13.4,14.9-21.3,28.5l-2.4-2.4c-1.9-1.9-4.4-2.9-7.1-2.9
				s-5.2,1.1-7.1,2.9L2.9,382.6c-1.9,1.9-2.9,4.4-2.9,7.1c0,2.7,1.1,5.2,2.9,7.1l112.5,112.3c2,1.9,4.5,2.9,7.1,2.9
				c2.6,0,5.1-1,7.1-2.9l56.6-56.3c1.9-1.9,2.9-4.4,2.9-7.1c0-2.7-1.1-5.2-2.9-7.1l-9.2-9.2c6.9-9.7,24.3-17.5,36.7-17.5
				c0,0,0,0,0,0l134.9,0c0,0,0,0,0.1,0c17.5,0,34.2-4.8,48.4-14c36.5-23.5,87.8-61.6,112.1-122.1
				C513.9,264.3,512.6,251.4,505.7,240.7L505.7,240.7z M275,60c0-22.1,17.9-40,40-40c22.1,0,40,17.9,40,40v20h-80V60z M215,110
				c0-5.5,4.5-10,10-10h30v10c0,5.5,4.5,10,10,10s10-4.5,10-10v-10h80v10c0,5.5,4.5,10,10,10s10-4.5,10-10v-10h30
				c5.5,0,10,4.5,10,10v167c-6.5,6.3-14.2,11.6-24.4,16.9c-6.7-13-20.3-21.9-35.6-21.9H254.9c-6.4,0-11.6-2.7-18.7-6.5
				c-5.7-3-12.4-6.5-21.2-9.2L215,110L215,110z M122.6,487.9l-98.4-98.2l42.4-42.4c32.9,32.9,65.2,65.2,98.4,98.4
				C165,445.7,122.6,487.9,122.6,487.9z M490.6,268.5c-22.1,55.1-70.1,90.7-104.3,112.7c-11,7.1-24,10.8-37.6,10.8c0,0,0,0,0,0
				l-134.9,0c0,0,0,0,0,0c-17.5,0-39.1,9.1-50.9,23.2l-72-72c7.9-16.3,49.4-71.2,94.1-71.2c6.6,0,12.5,0.6,18.1,1.8c0,0,0,0,0,0
				c0,0,0,0,0,0c10,2.1,17,5.8,23.8,9.4c8.2,4.3,16.7,8.8,28,8.8H355c11,0,20,9,20,20c0,11-9,20-20,20H254.9c-5.5,0-10,4.5-10,10
				s4.5,10,10,10H355c21.4,0,38.9-16.8,39.9-37.9c16.3-7.9,27.8-15.9,37.5-26.2c8.5-9,15.8-19.9,23.1-34.5
				c3.3-6.7,10.4-10.8,17.8-10.6c6.4,0.2,12,3.5,15.5,8.9C492.2,256.7,492.9,262.9,490.6,268.5L490.6,268.5z"/>
		</g>
	</g>
	<g id="svg_10">
		<g id="svg_11">
			<path id="svg_12" class="st1" d="M123.2,432.1L109,418c-3.9-3.9-10.2-3.9-14.1,0c-3.9,3.9-3.9,10.2,0,14.1l14.2,14.1
				c3.9,3.9,10.2,3.9,14.1,0C127.1,442.4,127.1,436,123.2,432.1z"/>
		</g>
	</g>
	<g id="svg_13">
	</g>
	<g id="svg_14">
	</g>
	<g id="svg_15">
	</g>
	<g id="svg_16">
	</g>
	<g id="svg_17">
	</g>
	<g id="svg_18">
	</g>
	<g id="svg_19">
	</g>
	<g id="svg_20">
	</g>
	<g id="svg_21">
	</g>
	<g id="svg_22">
	</g>
	<g id="svg_23">
	</g>
	<g id="svg_24">
	</g>
	<g id="svg_25">
	</g>
	<g id="svg_26">
	</g>
	<g id="svg_27">
	</g>
</g>
</svg>
