<?xml version="1.0" encoding="utf-8"?>
<!-- Generator: Adobe Illustrator 24.2.0, SVG Export Plug-In . SVG Version: 6.00 Build 0)  -->
<svg version="1.1" id="Layer_1" xmlns="http://www.w3.org/2000/svg" xmlns:xlink="http://www.w3.org/1999/xlink" x="0px" y="0px"
	 viewBox="0 0 511 512" style="enable-background:new 0 0 511 512;" xml:space="preserve">
<style type="text/css">
	.st0{fill:none;}
	.st1{fill:#F1BF4E;}
</style>
<g>
	<rect id="canvas_background" x="-1" y="-1" class="st0" width="513" height="514"/>
</g>
<g>
	<path id="svg_1" class="st1" d="M452.6,182.7c22.1-2.1,39.5-20.8,39.5-43.4c0-24-19.6-43.6-43.6-43.6h-1.5
		c-1.8-10.2-6.3-19.2-13.2-26c-9.2-9-22.2-13.6-37.7-13.4l-3.4,0.1c-46.2,0.8-55.9,1-132.1-38.1C212.4-6.4,156.8-6.1,115.5,19.2
		c-29.1,17.7-46.9,45.2-50,76.4h-2.9c-24,0-43.6,19.6-43.6,43.6c0,22.7,17.4,41.3,39.5,43.4l-9.3,212.6
		c-23.4,41.1-29.1,72.5-17.1,93.4c6.1,10.6,19.9,23.3,50.4,23.3h346.1c30.6,0,44.3-12.7,50.4-23.3c12-20.9,6.3-52.3-17.1-93.4
		L452.6,182.7z M38.9,139.2c0-13,10.6-23.6,23.6-23.6h153c5.5,0,10-4.5,10-10c0-5.5-4.5-10-10-10h-130c3.1-24.1,17.4-45.4,40.3-59.4
		c35.4-21.7,83.5-21.7,125.5-0.2C332.1,77.4,345,77.2,393,76.3l3.4-0.1c10.1-0.2,18,2.4,23.3,7.6c3.1,3,5.4,7.1,6.7,11.7h-131
		c-5.5,0-10,4.5-10,10s4.5,10,10,10h153c13,0,23.6,10.6,23.6,23.6s-10.6,23.6-23.6,23.6H62.6C49.5,162.9,38.9,152.3,38.9,139.2z
		 M461.7,478.7c-6.4,11-21.5,13.3-33.1,13.3H82.5c-11.6,0-26.8-2.3-33.1-13.3c-8.2-14.2-1.7-41,18.3-75.5c0.8-1.4,1.3-3,1.3-4.6
		l9.5-215.7h354.1l9.5,215.7c0.1,1.6,0.5,3.2,1.3,4.6C463.4,437.7,469.9,464.5,461.7,478.7z"/>
	<path id="svg_2" class="st1" d="M301.8,271.4c-7-7-17.9-8.7-30.7-4.8c0.1-2,0.2-4,0.2-6.1c0-29.5-15.2-52.6-34.6-52.6
		c-19.4,0-34.5,23.1-34.5,52.6c0,2,0.1,4.1,0.2,6.1c-12.8-3.9-23.6-2.3-30.7,4.8c-10.2,10.2-8.9,28.1,2.7,46.9
		c-0.9,0.7-1.8,1.4-2.7,2.3c-13.7,13.7-6,42.1,17.9,66c11.1,11.1,23.7,19.1,35.5,22.7c0.5,0.2,1.1,0.4,1.6,0.6v26.4
		c0,5.5,4.5,10,10,10c5.5,0,10-4.5,10-10V410c0.5-0.2,1.1-0.4,1.6-0.6c11.8-3.6,24.4-11.6,35.5-22.7c23.9-23.9,31.6-52.3,17.9-66
		c-0.8-0.8-1.7-1.6-2.7-2.3C310.6,299.6,312,281.6,301.8,271.4z M287.6,285.6c2.5,2.5,1,14.3-10,28.7c-2.7,0.4-5.5,1.1-8.4,2.2
		c-7.4,2.6-15.1,6.8-22.4,12.4v-22.1c1-1.1,2-2.2,3.1-3.3c4-4,8.4-7.6,12.7-10.5c0,0,0,0,0,0c4.5-3,8.9-5.3,13.1-6.8
		C282.1,284,286.4,284.3,287.6,285.6z M236.8,227.9c5.8,0,14.6,13,14.6,32.7c0,6.3-0.9,12.3-2.6,17.7c-4.1,3-8.1,6.3-11.9,10.1
		c-3.8-3.7-7.8-7.1-11.9-10.1c-1.7-5.3-2.6-11.4-2.6-17.7C222.3,241,231,227.9,236.8,227.9z M186,285.6c1.3-1.3,5.5-1.6,11.9,0.6
		c4.1,1.4,8.5,3.7,12.9,6.7c0,0,0.1,0.1,0.1,0.1c4.4,2.9,8.7,6.5,12.7,10.5c1.1,1.1,2.1,2.2,3.2,3.4v22.1c-7.3-5.6-15-9.9-22.4-12.4
		c-2.9-1-5.7-1.7-8.4-2.2C185,299.9,183.5,288.1,186,285.6z M203.9,372.5c-18.1-18.1-20.8-34.9-17.9-37.8c1.3-1.3,5.5-1.6,11.9,0.6
		c8.3,2.9,17.7,9.2,25.8,17.3c1.1,1.1,2.1,2.2,3.1,3.3v32.8C219.3,385.5,211.2,379.8,203.9,372.5z M269.8,372.5
		c-7.3,7.3-15.5,13-23,16.2v-32.8c1-1.1,2-2.2,3.1-3.3c8.1-8.2,17.6-14.5,25.8-17.3c6.4-2.2,10.6-1.8,11.9-0.6
		C290.5,337.6,287.8,354.4,269.8,372.5z"/>
	<path id="svg_3" class="st1" d="M237,115.6h0.2c5.5,0,10-4.5,10-10c0-5.5-4.5-10-10-10H237c-5.5,0-10,4.5-10,10
		C227,111.1,231.5,115.6,237,115.6z"/>
</g>
</svg>
