<svg xmlns="http://www.w3.org/2000/svg" viewBox="0 0 71.03 71.96"><defs><style>.cls-1,.cls-2,.cls-3,.cls-4,.cls-5,.cls-6,.cls-7{fill:none;}.cls-2,.cls-4,.cls-6{stroke:#0aa2d8;}.cls-2,.cls-3{stroke-miterlimit:10;}.cls-2,.cls-3,.cls-4,.cls-5,.cls-6,.cls-7{stroke-width:2px;}.cls-3,.cls-5{stroke:#26c485;}.cls-4,.cls-5,.cls-7{stroke-linecap:round;}.cls-4,.cls-5,.cls-6,.cls-7{stroke-linejoin:round;}.cls-7{stroke:#ff8c42;}</style></defs><g id="Layer_2" data-name="Layer 2"><g id="Layer_1-2" data-name="Layer 1"><rect class="cls-1" y="0.47" width="71.03" height="71.03"/><line class="cls-2" x1="49.57" y1="65.96" x2="49.56" y2="65.96"/><path class="cls-2" d="M18.19,66.21a8.31,8.31,0,0,1-8.14-8.31V9.31A8.31,8.31,0,0,1,18.36,1H47.54a8.31,8.31,0,0,1,8.31,8.31V54.82"/><path class="cls-3" d="M35.69,60.56s0,0,0,0"/><path class="cls-3" d="M25.85,46.26l3.75-5.68a3,3,0,0,1,4.17-.85L55.85,54.3l3.78,2.5A3,3,0,0,1,60.48,61l-5.68,8.6a2.8,2.8,0,0,1-1.19,1,2.1,2.1,0,0,1-.26.13"/><path class="cls-3" d="M20.65,54.69l1.8-6.3a3,3,0,0,1,3.4-2.13,1.83,1.83,0,0,1,.32.07l29.68,8.49.11,0A3,3,0,0,1,58,58.57l-2.84,9.92a3.24,3.24,0,0,1-.13.33A.58.58,0,0,1,55,69"/><rect class="cls-3" x="18.19" y="54.64" width="37" height="16.33" rx="3.01"/><line class="cls-4" x1="31.75" y1="63.15" x2="27.33" y2="63.15"/><line class="cls-4" x1="45.83" y1="62.8" x2="41.41" y2="62.8"/><path class="cls-5" d="M51.05,60.14A2.09,2.09,0,0,1,49,58h0a.29.29,0,0,0-.29-.3h-24a.29.29,0,0,0-.29.3h0a2.08,2.08,0,0,1-2,2.12h-.15a.29.29,0,0,0-.3.29V65a.29.29,0,0,0,.3.29h.15a2.08,2.08,0,0,1,2,2.12v.16a.28.28,0,0,0,.29.3h24a.28.28,0,0,0,.29-.3v-.16a2.09,2.09,0,0,1,2-2.12h.1a.29.29,0,0,0,.3-.29V60.42a.28.28,0,0,0-.3-.28Z"/><ellipse class="cls-6" cx="36.69" cy="62.8" rx="2.4" ry="2.48"/><polyline class="cls-7" points="35.91 14.59 36.19 11.34 28.37 19.28 26.42 14.92 19.81 21.77"/><line class="cls-7" x1="32.9" y1="11.55" x2="36.19" y2="11.34"/><line class="cls-7" x1="48.83" y1="24.36" x2="38.91" y2="24.36"/><line class="cls-7" x1="48.81" y1="35.04" x2="15.73" y2="35.04"/><line class="cls-7" x1="48.81" y1="29.33" x2="15.73" y2="29.33"/></g></g></svg>