<svg xmlns="http://www.w3.org/2000/svg" viewBox="0 0 71.03 71.56"><defs><style>.cls-1,.cls-2,.cls-3,.cls-4{fill:none;}.cls-2{stroke:#0aa2d8;}.cls-2,.cls-4{stroke-miterlimit:10;}.cls-2,.cls-3,.cls-4{stroke-width:2px;}.cls-3{stroke:#ff8c42;stroke-linecap:round;stroke-linejoin:round;}.cls-4{stroke:#26c485;}</style></defs><g id="Layer_2" data-name="Layer 2"><g id="Layer_1-2" data-name="Layer 1"><rect class="cls-1" y="0.26" width="71.03" height="71.03"/><line class="cls-2" x1="16.16" y1="60.11" x2="16.16" y2="60.1"/><path class="cls-2" d="M15.65,47.51V9.29A8.29,8.29,0,0,1,23.94,1h29.5a8.29,8.29,0,0,1,8.29,8.29V57.23a8.29,8.29,0,0,1-8.29,8.29H27.52"/><line class="cls-3" x1="54.25" y1="26.66" x2="23.77" y2="26.66"/><line class="cls-3" x1="54.14" y1="19.47" x2="34.05" y2="19.47"/><line class="cls-3" x1="54.25" y1="33.12" x2="23.77" y2="33.12"/><path class="cls-4" d="M9.76,59.24a16.25,16.25,0,0,0,3.41,7.45,11.15,11.15,0,0,0,6.38,3.8l.36.06.35-.06a11.12,11.12,0,0,0,6.38-3.8,16.17,16.17,0,0,0,3.42-7.45A31.71,31.71,0,0,0,30.4,51a6,6,0,0,0-.11-.84,2.53,2.53,0,0,0-.18-.55,2.76,2.76,0,0,0-1.89-1.31c-.77-.19-1.57-.19-2.35-.31a8,8,0,0,1-3.82-1.68c-.3-.25-1.48-1.49-2.11-1.53h-.07c-.62,0-1.8,1.28-2.11,1.53A8,8,0,0,1,14,48c-.79.12-1.59.12-2.36.31a2.74,2.74,0,0,0-1.88,1.31,2.11,2.11,0,0,0-.19.55,6,6,0,0,0-.1.84A30.86,30.86,0,0,0,9.76,59.24Z"/><path class="cls-4" d="M25.08,55.75l-4.22,5.12h0l-.08.1-.64.8a1.21,1.21,0,0,1-1.69.18l-3.58-2.9a1.2,1.2,0,0,1-.18-1.68l.64-.8A1.21,1.21,0,0,1,17,56.4l1.86,1.5,3.56-4.33a1.35,1.35,0,0,1,1.89-.18l.57.47A1.35,1.35,0,0,1,25.08,55.75Z"/></g></g></svg>